<?xml version="1.0" standalone="no"?>
<!DOCTYPE svg PUBLIC "-//W3C//DTD SVG 1.1//EN" "http://www.w3.org/Graphics/SVG/1.1/DTD/svg11.dtd" >
<svg>
<metadata>
Created by FontForge 20120731 at Thu Jan  3 19:11:39 2019
 By www-data
This typeface is licensed under the SIL open font license.
</metadata>
<defs>
<font id="Jost-Book" horiz-adv-x="570" >
  <font-face 
    font-family="Jost* 400 Book"
    font-weight="400"
    font-stretch="normal"
    units-per-em="1000"
    panose-1="0 0 0 0 0 0 0 0 0 0"
    ascent="800"
    descent="-200"
    x-height="460"
    cap-height="700"
    bbox="-110.998 -350.006 1476 1030"
    underline-thickness="50"
    underline-position="-125"
    unicode-range="U+0020-FF19"
  />
<missing-glyph horiz-adv-x="500" 
d="M50 0v533h400v-533h-400zM100 50h300v433h-300v-433z" />
    <glyph glyph-name=".notdef" horiz-adv-x="500" 
d="M50 0v533h400v-533h-400zM100 50h300v433h-300v-433z" />
    <glyph glyph-name="uni0020" unicode=" " horiz-adv-x="300" 
 />
    <glyph glyph-name="uni0021" unicode="!" horiz-adv-x="300" 
d="M95 40c0 -14.667 5.5 -27.5 16.5 -38.5s23.833 -16.5 38.5 -16.5c15.333 0 28.333 5.5 39 16.5s16 23.833 16 38.5c0 15.333 -5.33301 28.333 -16 39s-23.667 16 -39 16c-14.667 0 -27.5 -5.33301 -38.5 -16s-16.5 -23.667 -16.5 -39zM100 700l20 -500h60l20 500h-100z
" />
    <glyph glyph-name="uni0022" unicode="&#x22;" horiz-adv-x="465" 
d="M310 700l-50 -300h55l90 300h-95zM130 700l-50 -300h55l90 300h-95z" />
    <glyph glyph-name="uni0023" unicode="#" horiz-adv-x="605" 
d="M245 700l-47 -195h-123v-65h107l-43 -175h-104v-65h89l-49 -200h75l49 200h134l-48 -200h75l49 200h121v65h-106l43 175h103v65h-87l47 195h-75l-47 -195h-135l47 195h-75zM350 265h-136l43 175h135z" />
    <glyph glyph-name="uni0024" unicode="$" horiz-adv-x="580" 
d="M440 514l69.002 46c-8 20.667 -20.167 41.334 -36.5 62.001s-36 38.667 -59 54s-49.833 25.666 -80.5 30.999v111h-74v-110c-32 -4 -60.833 -14 -86.5 -30s-45.834 -35.833 -60.501 -59.5s-22 -49.834 -22 -78.501c0 -32 5.83301 -59.333 17.5 -82
s26.5 -41.834 44.5 -57.501s37.167 -28.5 57.5 -38.5s39.166 -18 56.499 -24c26.667 -9.33301 52.5 -20.333 77.5 -33s45.667 -28.667 62 -48s24.5 -44 24.5 -74c0 -34.667 -10 -62.167 -30 -82.5s-50 -30.5 -90 -30.5c-43.333 0 -79.333 14 -108 42s-53.667 66 -75 114
l-72 -43c19.333 -49.333 46.5 -90.833 81.5 -124.5s75.833 -55.167 122.5 -64.5v-106h74v103c60.667 5.33301 106.667 26 138 62s47 81.667 47 137c0 32 -5.66699 59.5 -17 82.5s-26 42.333 -44 58s-37.333 28.834 -58 39.501s-40 19.334 -58 26.001
c-28 10.667 -54.333 21.834 -79 33.501s-44.667 25.667 -60 42s-23 37.166 -23 62.499c0 30.667 9.16699 54.167 27.5 70.5s47.5 24.5 87.5 24.5c26 0 48 -5.5 66 -16.5s33.333 -25.333 46 -43s24 -36.167 34 -55.5z" />
    <glyph glyph-name="uni0025" unicode="%" horiz-adv-x="751" 
d="M563 700l-450 -700h75l450 700h-75zM471 150c0 25.333 7.66699 47.5 23 66.5s36.666 28.5 63.999 28.5s48.666 -9.5 63.999 -28.5s23 -41.167 23 -66.5s-7.66699 -47.5 -23 -66.5s-36.666 -28.5 -63.999 -28.5s-48.666 9.5 -63.999 28.5s-23 41.167 -23 66.5zM400 150
c0 -29.333 6.5 -56.166 19.5 -80.499s31.5 -43.666 55.5 -57.999s51.667 -21.5 83 -21.5c32 0 59.833 7.16699 83.5 21.5s42 33.666 55 57.999s19.5 51.166 19.5 80.499c0 30 -6.5 57 -19.5 81s-31.333 43.167 -55 57.5s-51.5 21.5 -83.5 21.5
c-31.333 0 -59 -7.16699 -83 -21.5s-42.5 -33.5 -55.5 -57.5s-19.5 -51 -19.5 -81zM106 550c0 25.333 7.66699 47.5 23 66.5s36.666 28.5 63.999 28.5s48.666 -9.5 63.999 -28.5s23 -41.167 23 -66.5s-7.66699 -47.5 -23 -66.5s-36.666 -28.5 -63.999 -28.5
s-48.666 9.5 -63.999 28.5s-23 41.167 -23 66.5zM35 550c0 -29.333 6.5 -56.166 19.5 -80.499s31.5 -43.666 55.5 -57.999s51.667 -21.5 83 -21.5c32 0 59.833 7.16699 83.5 21.5s42 33.666 55 57.999s19.5 51.166 19.5 80.499c0 30 -6.5 57 -19.5 81
s-31.333 43.167 -55 57.5s-51.5 21.5 -83.5 21.5c-31.333 0 -59 -7.16699 -83 -21.5s-42.5 -33.5 -55.5 -57.5s-19.5 -51 -19.5 -81z" />
    <glyph glyph-name="ampersand" unicode="&#x26;" horiz-adv-x="675" 
d="M279 432c-18.667 21.333 -36.3311 41.835 -52.998 61.502s-25 40.5 -25 62.5c0 25.333 7.66699 45.666 23 60.999s36.666 23 63.999 23s48.666 -8 63.999 -24s23 -36.667 23 -62c0 -20.667 -8.5 -41.334 -25.5 -62.001s-40.5 -40.667 -70.5 -60zM543.003 129.002
c21.333 22.667 42.167 46.665 62.5 71.998s39.833 50.666 58.5 75.999l-62 39c-16.667 -23.333 -34 -46.166 -52 -68.499s-36.667 -43.166 -56 -62.499l-169 195c41.333 26.667 73.5 54.5 96.5 83.5s34.5 59.167 34.5 90.5c0 28 -6.66699 53.833 -20 77.5
s-32.5 42.834 -57.5 57.501s-55.167 22 -90.5 22c-50 0 -91 -14 -123 -42s-48 -65.667 -48 -113c0 -23.333 5.5 -44.666 16.5 -63.999s23.833 -37 38.5 -53s28 -30.333 40 -43c-18 -9.33301 -37 -20 -57 -32s-38.667 -26.333 -56 -43s-31.5 -36.334 -42.5 -59.001
s-16.5 -49 -16.5 -79c0 -39.333 10.833 -73.5 32.5 -102.5s49.667 -51.333 84 -67s70.5 -23.5 108.5 -23.5c44 0 84.5 8.16699 121.5 24.5s71.5 37.833 103.5 64.5l69 -79h96zM441.004 135c-26.667 -21.333 -54.167 -38.501 -82.5 -51.501s-57.833 -19.5 -88.5 -19.5
c-40 0 -74.167 11.167 -102.5 33.5s-42.5 52.5 -42.5 90.5c0 26.667 6.66699 49.334 20 68.001s30.333 35 51 49s41.667 26.667 63 38z" />
    <glyph glyph-name="uni0027" unicode="'" horiz-adv-x="285" 
d="M130 700l-50 -300h55l90 300h-95z" />
    <glyph glyph-name="uni0028" unicode="(" horiz-adv-x="310" 
d="M205 780c-40 -74.667 -69.167 -153.667 -87.5 -237s-27.5 -167.666 -27.5 -252.999c0 -84.667 9.16699 -168.667 27.5 -252s47.5 -162.666 87.5 -237.999h75c-34.667 75.333 -60 154.666 -76 237.999s-24 167.333 -24 252c0 85.333 8 169.666 24 252.999
s41.333 162.333 76 237h-75z" />
    <glyph glyph-name="uni0029" unicode=")" horiz-adv-x="310" 
d="M105 -200c40 75.333 69.167 154.666 87.5 237.999s27.5 167.333 27.5 252c0 85.333 -9.16699 169.666 -27.5 252.999s-47.5 162.333 -87.5 237h-75c35.333 -74.667 60.833 -153.667 76.5 -237s23.5 -167.666 23.5 -252.999c0 -84.667 -7.83301 -168.667 -23.5 -252
s-41.167 -162.666 -76.5 -237.999h75z" />
    <glyph glyph-name="uni002A" unicode="*" horiz-adv-x="592" 
d="M261 700l8 -158l-148 57l-21 -67l152 -41l-99 -123l57 -41l86 132l86 -132l57 41l-99 123l152 41l-21 67l-148 -57l8 158h-70z" />
    <glyph glyph-name="uni002B" unicode="+" horiz-adv-x="615" 
d="M265 500v-205h-200v-80h200v-205h85v205h200v80h-200v205h-85z" />
    <glyph glyph-name="comma" unicode="," horiz-adv-x="308" 
d="M148 110l-88 -259l58 -21l110 250z" />
    <glyph glyph-name="uni002D" unicode="-" horiz-adv-x="210" 
d="M5 200h200v75h-200v-75z" />
    <glyph glyph-name="uni002E" unicode="." horiz-adv-x="300" 
d="M95 40c0 -14.667 5.5 -27.5 16.5 -38.5s23.833 -16.5 38.5 -16.5c15.333 0 28.333 5.5 39 16.5s16 23.833 16 38.5c0 15.333 -5.33301 28.333 -16 39s-23.667 16 -39 16c-14.667 0 -27.5 -5.33301 -38.5 -16s-16.5 -23.667 -16.5 -39z" />
    <glyph glyph-name="uni002F" unicode="/" horiz-adv-x="515" 
d="M420 700l-405 -850h80l405 850h-80z" />
    <glyph glyph-name="zero" unicode="0" horiz-adv-x="600" 
d="M40 350c0 -70 11 -132 33 -186s52.5 -96.5 91.5 -127.5s84.167 -46.5 135.5 -46.5s96.5 15.5 135.5 46.5s69.5 73.5 91.5 127.5s33 116 33 186s-11 132 -33 186s-52.5 96.5 -91.5 127.5s-84.167 46.5 -135.5 46.5s-96.5 -15.5 -135.5 -46.5s-69.5 -73.5 -91.5 -127.5
s-33 -116 -33 -186zM125 350c0 54.667 7.16699 103 21.5 145s34.5 75 60.5 99s57 36 93 36s67.167 -12 93.5 -36s46.5 -57 60.5 -99s21 -90.333 21 -145c0 -54 -7 -102.167 -21 -144.5s-34.167 -75.5 -60.5 -99.5s-57.5 -36 -93.5 -36s-67 12 -93 36
s-46.167 57.167 -60.5 99.5s-21.5 90.5 -21.5 144.5z" />
    <glyph glyph-name="uni0031" unicode="1" horiz-adv-x="450" 
d="M80 562l155 46v-608h85v710l-240 -60v-88z" />
    <glyph glyph-name="two" unicode="2" horiz-adv-x="569" 
d="M20 0l494 0.00390625v80h-319l223 227c27.333 28 49.666 59.667 66.999 95s26 71 26 107c0 21.333 -4.33301 43.666 -13 66.999s-22 45.166 -40 65.499s-41 37 -69 50s-61.333 19.5 -100 19.5c-48 0 -89.167 -10.5 -123.5 -31.5s-60.5 -50.333 -78.5 -88
s-27 -81.5 -27 -131.5h85c0 53.333 12.833 95.166 38.5 125.499s60.834 45.5 105.501 45.5c28.667 0 53 -6.16699 73 -18.5s35.333 -28 46 -47s16 -38.833 16 -59.5c0 -28 -6.33301 -54.333 -19 -79s-30.667 -49.334 -54 -74.001z" />
    <glyph glyph-name="uni0033" unicode="3" horiz-adv-x="546" 
d="M283 -10c42 0 79.3311 8.00098 111.998 24.001s58.5 38.667 77.5 68s28.5 63.666 28.5 102.999c0 49.333 -12.833 88.5 -38.5 117.5s-58.834 49.833 -99.501 62.5c36.667 15.333 65.5 37 86.5 65s31.5 59.333 31.5 94c0 33.333 -7.83301 64 -23.5 92s-38 50.667 -67 68
s-63.5 26 -103.5 26c-38 0 -71.833 -7.83301 -101.5 -23.5s-53 -37.167 -70 -64.5s-25.5 -59.333 -25.5 -96h81c0 30.667 11.333 56.167 34 76.5s50.334 30.5 83.001 30.5c35.333 0 61.833 -10.333 79.5 -31s26.5 -47.667 26.5 -81c0 -32.667 -12.167 -61 -36.5 -85
s-59.166 -36 -104.499 -36v-20v-35v-20c45.333 0 83.5 -10.833 114.5 -32.5s46.5 -54.167 46.5 -97.5c0 -38 -11.833 -68.333 -35.5 -91s-55.5 -34 -95.5 -34s-72.833 11 -98.5 33s-38.5 49.333 -38.5 82h-86c0 -36 9.16699 -68.833 27.5 -98.5s44.333 -53.167 78 -70.5
s72.834 -26 117.501 -26z" />
    <glyph glyph-name="uni0034" unicode="4" horiz-adv-x="583" 
d="M20 140h338v-140h85v140h110v75h-110v485h-35zM358 215h-198l198 296v-296z" />
    <glyph glyph-name="uni0035" unicode="5" horiz-adv-x="564" 
d="M524 230c0 46.667 -9 87.665 -27 122.998s-42.833 63 -74.5 83s-67.5 30 -107.5 30c-36 0 -70.667 -8.66699 -104 -26l47 185h264v75h-330l-92 -373c24 16.667 45.167 29.5 63.5 38.5s36.666 15.333 54.999 19s38.5 5.5 60.5 5.5c30 0 56.833 -6.66699 80.5 -20
s42.334 -32 56.001 -56s20.5 -52 20.5 -84c0 -48 -13.667 -86.667 -41 -116s-66 -44 -116 -44c-25.333 0 -49.666 5.5 -72.999 16.5s-43.833 25.333 -61.5 43s-31.834 36.5 -42.501 56.5l-72 -49c15.333 -26.667 34.166 -51.167 56.499 -73.5s49.333 -40.166 81 -53.499
s68.834 -20 111.501 -20c45.333 0 86.5 9 123.5 27s66.5 44.833 88.5 80.5s33 79.834 33 132.501z" />
    <glyph glyph-name="uni0036" unicode="6" horiz-adv-x="576" 
d="M330 700l-236 -324.998c-13.333 -18.667 -24 -40.334 -32 -65.001s-12 -51.334 -12 -80.001c0 -48 10.5 -90 31.5 -126s49.5 -64 85.5 -84s76.333 -30 121 -30c45.333 0 85.833 10 121.5 30s64 48 85 84s31.5 78 31.5 126c0 43.333 -9.33301 82 -28 116
s-43.667 61 -75 81s-66 30 -104 30c-15.333 0 -29.5 -1 -42.5 -3s-25.167 -6.33301 -36.5 -13l197 259h-107zM131 230.002c0 32 6.83301 60.5 20.5 85.5s32.334 44.5 56.001 58.5s50.5 21 80.5 21s56.833 -7 80.5 -21s42.334 -33.5 56.001 -58.5s20.5 -53.5 20.5 -85.5
s-6.83301 -60.167 -20.5 -84.5s-32.334 -43.5 -56.001 -57.5s-50.5 -21 -80.5 -21s-56.833 7 -80.5 21s-42.334 33.167 -56.001 57.5s-20.5 52.5 -20.5 84.5z" />
    <glyph glyph-name="uni0037" unicode="7" horiz-adv-x="525" 
d="M30 620h363l-297 -620h89l335 700h-490v-80z" />
    <glyph glyph-name="eight" unicode="8" horiz-adv-x="546" 
d="M136 200c0 25.333 6.5 48.166 19.5 68.499s30 36.5 51 48.5s43.167 18 66.5 18s45.5 -6 66.5 -18s38 -28.167 51 -48.5s19.5 -43.166 19.5 -68.499c0 -28.667 -6.5 -53 -19.5 -73s-30 -35.333 -51 -46s-43.167 -16 -66.5 -16s-45.5 5.33301 -66.5 16s-38 26 -51 46
s-19.5 44.333 -19.5 73zM161 521c0 33.333 10.5 60.666 31.5 81.999s47.833 32 80.5 32s59.5 -10.667 80.5 -32s31.5 -48.666 31.5 -81.999c0 -32.667 -11.167 -59.334 -33.5 -80.001s-48.5 -31 -78.5 -31s-56.167 10.333 -78.5 31s-33.5 47.334 -33.5 80.001zM80 531
c0 -38 8.83301 -70.5 26.5 -97.5s41.834 -47.167 72.501 -60.5c-36 -14 -65.667 -36.5 -89 -67.5s-35 -69.5 -35 -115.5c0 -36 9.5 -69.167 28.5 -99.5s45 -54.666 78 -72.999s70.167 -27.5 111.5 -27.5c42 0 79.333 9.16699 112 27.5s58.5 42.666 77.5 72.999
s28.5 63.5 28.5 99.5c0 46 -11.667 84.5 -35 115.5s-53 53.5 -89 67.5c31.333 13.333 55.666 33.5 72.999 60.5s26 59.5 26 97.5c0 33.333 -8.5 63.5 -25.5 90.5s-40 48.5 -69 64.5s-61.833 24 -98.5 24s-69.5 -8 -98.5 -24s-52 -37.5 -69 -64.5s-25.5 -57.167 -25.5 -90.5z
" />
    <glyph glyph-name="uni0039" unicode="9" horiz-adv-x="576" 
d="M246 0l236.001 324.998c13.333 18.667 24 40.334 32 65.001s12 51.334 12 80.001c0 48 -10.5 90 -31.5 126s-49.333 64 -85 84s-76.167 30 -121.5 30c-44.667 0 -85 -10 -121 -30s-64.5 -48 -85.5 -84s-31.5 -78 -31.5 -126c0 -42.667 9.33301 -81.167 28 -115.5
s43.667 -61.5 75 -81.5s66 -30 104 -30c15.333 0 29.666 1 42.999 3s25.333 6.33301 36 13l-197 -259h107zM445.001 469.998c0 -32 -6.83301 -60.333 -20.5 -85s-32.334 -44.167 -56.001 -58.5s-50.5 -21.5 -80.5 -21.5s-56.833 7.16699 -80.5 21.5
s-42.334 33.833 -56.001 58.5s-20.5 53 -20.5 85s6.83301 60.167 20.5 84.5s32.334 43.5 56.001 57.5s50.5 21 80.5 21s56.833 -7 80.5 -21s42.334 -33.167 56.001 -57.5s20.5 -52.5 20.5 -84.5z" />
    <glyph glyph-name="colon" unicode=":" horiz-adv-x="300" 
d="M95 420c0 -14.667 5.5 -27.5 16.5 -38.5s23.833 -16.5 38.5 -16.5c15.333 0 28.333 5.5 39 16.5s16 23.833 16 38.5c0 15.333 -5.33301 28.333 -16 39s-23.667 16 -39 16c-14.667 0 -27.5 -5.33301 -38.5 -16s-16.5 -23.667 -16.5 -39zM95 40
c0 -14.667 5.5 -27.5 16.5 -38.5s23.833 -16.5 38.5 -16.5c15.333 0 28.333 5.5 39 16.5s16 23.833 16 38.5c0 15.333 -5.33301 28.333 -16 39s-23.667 16 -39 16c-14.667 0 -27.5 -5.33301 -38.5 -16s-16.5 -23.667 -16.5 -39z" />
    <glyph glyph-name="uni003B" unicode=";" horiz-adv-x="330" 
d="M148 110l-88 -259l58 -21l110 250zM125 420c0 -14.667 5.5 -27.5 16.5 -38.5s23.833 -16.5 38.5 -16.5c15.333 0 28.333 5.5 39 16.5s16 23.833 16 38.5c0 15.333 -5.33301 28.333 -16 39s-23.667 16 -39 16c-14.667 0 -27.5 -5.33301 -38.5 -16s-16.5 -23.667 -16.5 -39
z" />
    <glyph glyph-name="less" unicode="&#x3c;" horiz-adv-x="640" 
d="M197 262l378 158v80l-510 -220v-45l510 -220v80z" />
    <glyph glyph-name="uni003D" unicode="=" horiz-adv-x="615" 
d="M65 290h485v75h-485v-75zM65 140h485v75h-485v-75z" />
    <glyph glyph-name="uni003E" unicode="&#x3e;" horiz-adv-x="640" 
d="M443 253l-378 -158v-80l510 220v45l-510 220v-80z" />
    <glyph glyph-name="uni003F" unicode="?" horiz-adv-x="557" 
d="M195 40c0 -14.667 5.5 -27.5 16.5 -38.5s23.833 -16.5 38.5 -16.5c15.333 0 28.333 5.5 39 16.5s16 23.833 16 38.5c0 15.333 -5.33301 28.333 -16 39s-23.667 16 -39 16c-14.667 0 -27.5 -5.33301 -38.5 -16s-16.5 -23.667 -16.5 -39zM416 500
c0 -25.333 -7.66602 -49.833 -22.999 -73.5s-37.333 -43.167 -66 -58.5s-63 -23 -103 -23h-26l20 -175h60l7 120c37.333 2 72 12.5 104 31.5s58 44 78 75s30 65.5 30 103.5c0 40 -9.5 75.833 -28.5 107.5s-44.833 56.667 -77.5 75s-70 27.5 -112 27.5
c-39.333 0 -72.5 -4.83301 -99.5 -14.5s-49.833 -23.334 -68.5 -41.001s-35.667 -38.167 -51 -61.5l65 -41c15.333 25.333 34.833 45.5 58.5 60.5s52.167 22.5 85.5 22.5c45.333 0 81.166 -11.667 107.499 -35s39.5 -56.666 39.5 -99.999z" />
    <glyph glyph-name="uni0040" unicode="@" horiz-adv-x="770" 
d="M35 320c0 -66 12.6689 -123.836 38.002 -173.503s62.5 -88.167 111.5 -115.5s109.167 -41 180.5 -41c57.333 0 103.5 5.5 138.5 16.5s67.5 25.5 97.5 43.5l-35 57c-32.667 -20.667 -65.5 -34.5 -98.5 -41.5s-67.167 -10.5 -102.5 -10.5
c-52.667 0 -98.5 10.833 -137.5 32.5s-69.167 52.334 -90.5 92.001s-32 86.5 -32 140.5c0 61.333 12.833 116.5 38.5 165.5s61.667 87.833 108 116.5s100.833 43 163.5 43c56 0 102.5 -12 139.5 -36s64.667 -55.333 83 -94s27.5 -80.334 27.5 -125.001
c0 -42 -6.16699 -75.833 -18.5 -101.5s-26.333 -44.167 -42 -55.5s-28.5 -17 -38.5 -17c-16.667 0 -27.334 4.66699 -32.001 14s-7 20 -7 32c0 8.66699 0.666992 17.667 2 27l41 231h-75l-10 -67c-8.66699 22 -21.834 40.333 -39.501 55s-40.167 22 -67.5 22
c-28 0 -56.5 -8.16699 -85.5 -24.5s-53.333 -40.166 -73 -71.499s-29.5 -70.333 -29.5 -117c0 -32.667 6.5 -60.834 19.5 -84.501s30 -41.667 51 -54s43.5 -18.5 67.5 -18.5c28 0 54 6.16699 78 18.5s44 30.5 60 54.5c3.33301 -24 13 -43.833 29 -59.5
s36.333 -23.5 61 -23.5c18.667 0 38.334 4.33301 59.001 13s40.167 22.334 58.5 41.001s33.166 43.334 44.499 74.001s17 68 17 112c0 40 -6.66699 79 -20 117s-33.333 72.333 -60 103s-60 55 -100 73s-86.667 27 -140 27c-56 0 -107.167 -10 -153.5 -30
s-86.5 -47.667 -120.5 -83s-60.167 -76.666 -78.5 -123.999s-27.5 -98.333 -27.5 -153zM266.002 319.997c0 28.667 5.50098 53.499 16.501 74.499s25.167 37.167 42.5 48.5s35 17 53 17c25.333 0 46.166 -8 62.499 -24s24.5 -38 24.5 -66
c0 -35.333 -6.33301 -63.166 -19 -83.499s-28 -34.833 -46 -43.5s-35.333 -13 -52 -13c-27.333 0 -47.833 8 -61.5 24s-20.5 38 -20.5 66z" />
    <glyph glyph-name="uni0041" unicode="A" horiz-adv-x="660" 
d="M189 210h282l89 -210h95l-325 735l-325 -735h95zM223 290l107 252l107 -252h-214z" />
    <glyph glyph-name="uni0042" unicode="B" horiz-adv-x="558" 
d="M352 382c36 10.667 64.334 28.167 85.001 52.5s31 54.5 31 90.5c0 59.333 -19 103.333 -57 132s-88.333 43 -151 43h-180v-700h190c45.333 0 85.833 7.5 121.5 22.5s64 37.667 85 68s31.5 68.5 31.5 114.5c0 50.667 -14.333 90.5 -43 119.5s-66.334 48.167 -113.001 57.5
zM165.001 343l105 0.000976562c45.333 0 82.166 -11.333 110.499 -34s42.5 -55.667 42.5 -99c0 -42.667 -14.167 -75.834 -42.5 -99.501s-65.166 -35.5 -110.499 -35.5h-105v268zM165.001 417.001v207.999h95c35.333 0 64.666 -9.16699 87.999 -27.5s35 -44.166 35 -77.499
c0 -32.667 -11.667 -58 -35 -76s-52.666 -27 -87.999 -27h-95z" />
    <glyph glyph-name="C" unicode="C" horiz-adv-x="685" 
d="M130 350c0 54.667 12.167 102.501 36.5 143.501s56.166 73.167 95.499 96.5s82 35 128 35c49.333 0 93 -9.5 131 -28.5s69.333 -44.167 94 -75.5v112c-29.333 26 -61.333 45.333 -96 58s-77.667 19 -129 19c-48.667 0 -94.167 -8.83301 -136.5 -26.5
s-79.5 -42.667 -111.5 -75s-57 -70.5 -75 -114.5s-27 -92 -27 -144s9 -100 27 -144s43 -82.167 75 -114.5s69.167 -57.333 111.5 -75s87.833 -26.5 136.5 -26.5c51.333 0 94.333 6.33301 129 19s66.667 32 96 58v112c-24.667 -30.667 -56 -55.667 -94 -75
s-81.667 -29 -131 -29c-46 0 -88.667 11.667 -128 35s-71.166 55.666 -95.499 96.999s-36.5 89 -36.5 143z" />
    <glyph glyph-name="uni0044" unicode="D" horiz-adv-x="680" 
d="M127 0l38 0.00195312h125c68 0 128.333 14.667 181 44s94 70.166 124 122.499s45 113.5 45 183.5s-15 131.167 -45 183.5s-71.333 93.166 -124 122.499s-113 44 -181 44h-125h-38h-47v-700h47zM165 85.002v530.001h125c52.667 0 98.834 -10.833 138.501 -32.5
s70.667 -52.167 93 -91.5s33.5 -86.333 33.5 -141c0 -54 -11.167 -100.833 -33.5 -140.5s-53.333 -70.334 -93 -92.001s-85.834 -32.5 -138.501 -32.5h-125z" />
    <glyph glyph-name="uni0045" unicode="E" horiz-adv-x="550" 
d="M165 340h295v80h-295v200h315v80h-315h-38h-47v-700h47h38h315v80h-315v260z" />
    <glyph glyph-name="uni0046" unicode="F" horiz-adv-x="500" 
d="M165 340h265v80h-265v200h275v80h-275h-38h-47v-700h85v340z" />
    <glyph glyph-name="uni0047" unicode="G" horiz-adv-x="775" 
d="M405 275l233 -0.000976562c-7.33301 -36 -21.333 -69.167 -42 -99.5s-47.667 -54.666 -81 -72.999s-73.333 -27.5 -120 -27.5c-49.333 0 -94 11.667 -134 35s-71.833 55.666 -95.5 96.999s-35.5 89 -35.5 143c0 54.667 11.833 102.5 35.5 143.5s55.5 73.167 95.5 96.5
s84.667 35 134 35c53.333 0 99.666 -10.5 138.999 -31.5s70 -50.167 92 -87.5l60 55c-30 48.667 -69.833 85.667 -119.5 111s-106.834 38 -171.501 38c-50.667 0 -97.667 -8.83301 -141 -26.5s-81 -42.667 -113 -75s-56.833 -70.5 -74.5 -114.5s-26.5 -92 -26.5 -144
s8.83301 -100 26.5 -144s42.5 -82.167 74.5 -114.5s69.667 -57.333 113 -75s90.333 -26.5 141 -26.5c53.333 0 100.833 9.83301 142.5 29.5s76.834 46.5 105.501 80.5s50.334 72.833 65.001 116.5s22 89.834 22 138.501h-325v-80z" />
    <glyph glyph-name="uni0048" unicode="H" horiz-adv-x="715" 
d="M80 700v-700h85v340h385v-340h85v700h-85v-280h-385v280h-85z" />
    <glyph glyph-name="uni0049" unicode="I" horiz-adv-x="245" 
d="M80 700v-700h85v700h-85z" />
    <glyph glyph-name="J" unicode="J" horiz-adv-x="240" 
d="M-67 -104l-43.998 -65.999c7.33301 -10 22.166 -20.833 44.499 -32.5s46.833 -17.5 73.5 -17.5c47.333 0 84.666 13 111.999 39s41 66.333 41 121v760h-80v-750c0 -32.667 -7.5 -55.834 -22.5 -69.501s-30.167 -20.5 -45.5 -20.5c-38 0 -64.333 12 -79 36z" />
    <glyph glyph-name="uni004B" unicode="K" horiz-adv-x="565" 
d="M440 700l-275 -301v301h-85v-700h85v340l290 -340h105l-318 372l303 328h-105z" />
    <glyph glyph-name="uni004C" unicode="L" horiz-adv-x="450" 
d="M80 700v-700h360v80h-275v620h-85z" />
    <glyph glyph-name="uni004D" unicode="M" horiz-adv-x="810" 
d="M177 473l228 -408l228 408l52 -473h85l-85 735l-280 -507l-280 507l-85 -735h85z" />
    <glyph glyph-name="uni004E" unicode="N" horiz-adv-x="775" 
d="M610 700v-521l-530 556v-735h85v521l530 -556v735h-85z" />
    <glyph glyph-name="uni004F" unicode="O" horiz-adv-x="790" 
d="M40 350c0 -50.667 8.83301 -98 26.5 -142s42.5 -82.167 74.5 -114.5s69.667 -57.666 113 -75.999s90.333 -27.5 141 -27.5c51.333 0 98.5 9.16699 141.5 27.5s80.5 43.666 112.5 75.999s56.833 70.5 74.5 114.5s26.5 91.333 26.5 142
c0 51.333 -8.83301 98.833 -26.5 142.5s-42.5 81.667 -74.5 114s-69.5 57.666 -112.5 75.999s-90.167 27.5 -141.5 27.5c-50.667 0 -97.667 -9.16699 -141 -27.5s-81 -43.666 -113 -75.999s-56.833 -70.333 -74.5 -114s-26.5 -91.167 -26.5 -142.5zM130 350
c0 52.667 11.5 99.667 34.5 141s54.5 74 94.5 98s85.333 36 136 36c51.333 0 96.833 -12 136.5 -36s71 -56.667 94 -98s34.5 -88.333 34.5 -141s-11.5 -99.667 -34.5 -141s-54.333 -74 -94 -98s-85.167 -36 -136.5 -36c-50.667 0 -96 12 -136 36s-71.5 56.667 -94.5 98
s-34.5 88.333 -34.5 141z" />
    <glyph glyph-name="uni0050" unicode="P" horiz-adv-x="548" 
d="M165 280h105c45.333 0 85.833 8.5 121.5 25.5s64 41.333 85 73s31.5 68.834 31.5 111.501c0 43.333 -10.5 80.666 -31.5 111.999s-49.333 55.5 -85 72.5s-76.167 25.5 -121.5 25.5h-105h-38h-47v-700h85v280zM165 360v260h105c45.333 0 82.166 -10.833 110.499 -32.5
s42.5 -54.167 42.5 -97.5c0 -42.667 -14.167 -75 -42.5 -97s-65.166 -33 -110.499 -33h-105z" />
    <glyph glyph-name="uni0051" unicode="Q" horiz-adv-x="790" 
d="M379 300l174.001 -174.001c-21.333 -16 -45.333 -28.5 -72 -37.5s-55.334 -13.5 -86.001 -13.5c-50.667 0 -96 12 -136 36s-71.5 56.667 -94.5 98s-34.5 88.333 -34.5 141s11.5 99.667 34.5 141s54.5 74 94.5 98s85.333 36 136 36c51.333 0 96.833 -12 136.5 -36
s71 -56.667 94 -98s34.5 -88.333 34.5 -141c0 -32.667 -4.5 -63.167 -13.5 -91.5s-21.833 -54.166 -38.5 -77.499l-119 119h-110zM40.001 349.999c0 -50.667 8.83301 -98 26.5 -142s42.5 -82.167 74.5 -114.5s69.667 -57.666 113 -75.999s90.333 -27.5 141 -27.5
c42.667 0 82.5 6.66699 119.5 20s70.5 31.333 100.5 54l64 -64h110l-118 118c25.333 31.333 44.833 66.666 58.5 105.999s20.5 81.333 20.5 126c0 51.333 -8.83301 98.833 -26.5 142.5s-42.5 81.667 -74.5 114s-69.5 57.666 -112.5 75.999s-90.167 27.5 -141.5 27.5
c-50.667 0 -97.667 -9.16699 -141 -27.5s-81 -43.666 -113 -75.999s-56.833 -70.333 -74.5 -114s-26.5 -91.167 -26.5 -142.5z" />
    <glyph glyph-name="uni0052" unicode="R" horiz-adv-x="560" 
d="M165 280l85 0.000976562l195 -280h105l-209 288c49.333 12 89.5 35.5 120.5 70.5s46.5 78.833 46.5 131.5c0 43.333 -10.5 80.666 -31.5 111.999s-49.333 55.5 -85 72.5s-76.167 25.5 -121.5 25.5h-105h-38h-47v-700h85v280zM165 355.001v270h105
c45.333 0 82.166 -11.667 110.499 -35s42.5 -56.666 42.5 -99.999c0 -42.667 -14.167 -75.834 -42.5 -99.501s-65.166 -35.5 -110.499 -35.5h-105z" />
    <glyph glyph-name="uni0053" unicode="S" horiz-adv-x="548" 
d="M112 226l-72.002 -43.0029c22 -57.333 54.833 -103.833 98.5 -139.5s94.167 -53.5 151.5 -53.5c43.333 0 80.833 8.33301 112.5 25s56.334 40.167 74.001 70.5s26.5 65.166 26.5 104.499c0 32 -5.66699 59.5 -17 82.5s-26 42.333 -44 58s-37.333 28.834 -58 39.501
s-40 19.334 -58 26.001c-28 10.667 -54.333 22 -79 34s-44.667 25.833 -60 41.5s-23 34.834 -23 57.501c0 30.667 8.83301 55 26.5 73s43.834 27 78.501 27c26 0 48.833 -5.5 68.5 -16.5s36.667 -25.333 51 -43s26.5 -36.167 36.5 -55.5l69 46
c-12 27.333 -27.667 52.333 -47 75s-42.833 40.834 -70.5 54.501s-60.5 20.5 -98.5 20.5c-41.333 0 -77.166 -7.66699 -107.499 -23s-53.833 -36.5 -70.5 -63.5s-25 -58.167 -25 -93.5c0 -32 5.83301 -59 17.5 -81s26.5 -40 44.5 -54s37.167 -25.5 57.5 -34.5
s39.166 -16.5 56.499 -22.5c26.667 -9.33301 52.5 -20.333 77.5 -33s45.667 -28.667 62 -48s24.5 -44 24.5 -74c0 -34.667 -10 -62.167 -30 -82.5s-50 -30.5 -90 -30.5c-43.333 0 -79.333 14 -108 42s-53.667 66 -75 114z" />
    <glyph glyph-name="uni0054" unicode="T" horiz-adv-x="465" 
d="M10 620h180v-620h85v620h180v80h-445v-80z" />
    <glyph glyph-name="uni0055" unicode="U" horiz-adv-x="626" 
d="M75 700l-0.000976562 -470c0 -46 9.83301 -87.167 29.5 -123.5s47.334 -64.833 83.001 -85.5s77.5 -31 125.5 -31c48.667 0 90.667 10.333 126 31s62.833 49.167 82.5 85.5s29.5 77.5 29.5 123.5v470h-85v-470c0 -48 -13 -86.667 -39 -116s-64 -44 -114 -44
s-88 14.667 -114 44s-39 68 -39 116v470h-85z" />
    <glyph glyph-name="uni0056" unicode="V" horiz-adv-x="660" 
d="M330 158l-230 542h-95l325 -735l325 735h-95z" />
    <glyph glyph-name="uni0057" unicode="W" horiz-adv-x="990" 
d="M700 175l-205 560l-205 -560l-185 525h-95l275 -735l210 544l210 -544l275 735h-95z" />
    <glyph glyph-name="uni0058" unicode="X" horiz-adv-x="555" 
d="M430 700l-149 -259l-146 259h-100l203 -333l-228 -367h100l170 293l165 -293h100l-222 367l207 333h-100z" />
    <glyph glyph-name="uni0059" unicode="Y" horiz-adv-x="561" 
d="M461 700l-181 -324l-180 324h-95l233 -399v-301h85v302l233 398h-95z" />
    <glyph glyph-name="Z" unicode="Z" horiz-adv-x="545" 
d="M35 620h348l-368 -620h490v80h-348l368 620h-490v-80z" />
    <glyph glyph-name="uni005B" unicode="[" horiz-adv-x="300" 
d="M179 705h101v75h-180v-1000h180v75h-101v850z" />
    <glyph glyph-name="uni005C" unicode="\" horiz-adv-x="515" 
d="M15 700l400 -700h85l-400 700h-85z" />
    <glyph glyph-name="uni005D" unicode="]" horiz-adv-x="300" 
d="M121 -145h-101v-75h180v1000h-180v-75h101v-850z" />
    <glyph glyph-name="uni005E" unicode="^" horiz-adv-x="510" 
d="M255 621l110 -161h80l-170 250h-40l-170 -250h80z" />
    <glyph glyph-name="uni005F" unicode="_" horiz-adv-x="500" 
d="M0 -133h500v55h-500v-55z" />
    <glyph glyph-name="uni0060" unicode="`" horiz-adv-x="375" 
d="M75 660l180 -150l45 30l-150 160z" />
    <glyph glyph-name="a" unicode="a" horiz-adv-x="485" 
d="M111 352c11.333 8 28.832 18 52.499 30s51.834 18 84.501 18c25.333 0 47.833 -5.83301 67.5 -17.5s29.5 -29.167 29.5 -52.5v-77c-12.667 8.66699 -28.834 16.334 -48.501 23.001s-43.167 10 -70.5 10c-60.667 0 -108.5 -13.5 -143.5 -40.5s-52.5 -64.833 -52.5 -113.5
c0 -31.333 7.16699 -57.5 21.5 -78.5s33.5 -36.833 57.5 -47.5s50.333 -16 79 -16c34.667 0 66 6.5 94 19.5s49 31.833 63 56.5v-66h80v330c0 44.667 -16.333 79.167 -49 103.5s-75.334 36.5 -128.001 36.5c-41.333 0 -76.666 -6.33301 -105.999 -19
s-52.666 -25.334 -69.999 -38.001zM110.999 135c0 28 9.66699 49.999 29 65.999s49.333 24 90 24c22 0 42.333 -2.16699 61 -6.5s36.667 -11.166 54 -20.499v-18c0 -42.667 -12.833 -73.167 -38.5 -91.5s-58.5 -27.5 -98.5 -27.5c-26.667 0 -49.5 6.16699 -68.5 18.5
s-28.5 30.833 -28.5 55.5z" />
    <glyph glyph-name="uni0062" unicode="b" 
d="M454 230c0 -35.333 -7.16699 -65.333 -21.5 -90s-33.333 -43.334 -57 -56.001s-49.834 -19 -78.501 -19c-23.333 0 -46.333 6.33301 -69 19s-41.334 31.334 -56.001 56.001s-22 54.667 -22 90s7.33301 65.333 22 90s33.334 43.334 56.001 56.001s45.667 19 69 19
c28.667 0 54.834 -6.33301 78.501 -19s42.667 -31.334 57 -56.001s21.5 -54.667 21.5 -90zM535 230c0 50 -10.333 92.833 -31 128.5s-48.167 63.167 -82.5 82.5s-72.5 29 -114.5 29c-34 0 -64.333 -7.66699 -91 -23s-48.667 -37.333 -66 -66v399h-80v-780h80v79
c17.333 -28.667 39.333 -50.667 66 -66s57 -23 91 -23c42 0 80.167 9.66699 114.5 29s61.833 47 82.5 83s31 78.667 31 128z" />
    <glyph glyph-name="c" unicode="c" horiz-adv-x="478" 
d="M111 230c0 32 6.83301 60.502 20.5 85.502s32.334 44.5 56.001 58.5s50.5 21 80.5 21c37.333 0 70.666 -8.33301 99.999 -25s49.333 -36.334 60 -59.001v100c-16 18.667 -38.833 33.167 -68.5 43.5s-60.167 15.5 -91.5 15.5c-44.667 0 -85 -10.333 -121 -31
s-64.5 -49 -85.5 -85s-31.5 -77.333 -31.5 -124c0 -46 10.5 -87.167 31.5 -123.5s49.5 -64.833 85.5 -85.5s76.333 -31 121 -31c31.333 0 61.833 5.16699 91.5 15.5s52.5 24.833 68.5 43.5v100c-10.667 -22.667 -30.667 -42.334 -60 -59.001s-62.666 -25 -99.999 -25
c-30 0 -56.833 7.16699 -80.5 21.5s-42.334 33.833 -56.001 58.5s-20.5 53 -20.5 85z" />
    <glyph glyph-name="uni0064" unicode="d" 
d="M116 230c0 35.333 7.16699 65.333 21.5 90s33.5 43.334 57.5 56.001s50 19 78 19c23.333 0 46.333 -6.33301 69 -19s41.334 -31.334 56.001 -56.001s22 -54.667 22 -90s-7.33301 -65.333 -22 -90s-33.334 -43.334 -56.001 -56.001s-45.667 -19 -69 -19
c-28 0 -54 6.33301 -78 19s-43.167 31.334 -57.5 56.001s-21.5 54.667 -21.5 90zM35 230c0 -49.333 10.333 -92 31 -128s48.334 -63.667 83.001 -83s72.667 -29 114 -29c34 0 64.5 7.66699 91.5 23s48.833 37.333 65.5 66v-79h80v780h-80v-399
c-16.667 28.667 -38.5 50.667 -65.5 66s-57.5 23 -91.5 23c-41.333 0 -79.333 -9.66699 -114 -29s-62.334 -46.833 -83.001 -82.5s-31 -78.5 -31 -128.5z" />
    <glyph glyph-name="e" unicode="e" horiz-adv-x="515" 
d="M117 210l361.999 -0.000976562c0.666992 4 1 8 1 12v12c0 48.667 -9 90.5 -27 125.5s-43.333 62.167 -76 81.5s-70.667 29 -114 29c-39.333 0 -74.833 -8 -106.5 -24s-57.5 -38.333 -77.5 -67s-33.333 -62 -40 -100c-1.33301 -8 -2.33301 -16 -3 -24s-1 -16.333 -1 -25
c0 -46 9.5 -87.167 28.5 -123.5s45 -64.833 78 -85.5s70.167 -31 111.5 -31c40 0 73.333 4.83301 100 14.5s49.334 23.334 68.001 41.001s35.667 38.167 51 61.5l-65 41c-15.333 -24.667 -34.833 -44.667 -58.5 -60s-52.167 -23 -85.5 -23c-42 0 -76 12.5 -102 37.5
s-40.667 60.833 -44 107.5zM118.999 277.999c4 37.333 19.832 67 47.499 89s59.834 33 96.501 33c40 0 70.667 -11.333 92 -34s34 -52 38 -88h-274z" />
    <glyph glyph-name="uni0066" unicode="f" horiz-adv-x="286" 
d="M262 684l43.999 66.001c-7.33301 10 -18.5 19.167 -33.5 27.5s-33.167 12.5 -54.5 12.5c-42 0 -74.667 -13 -98 -39s-35 -66.333 -35 -121v-170h-45v-75h45v-385h80v385h105v75h-105v160c0 33.333 4.33301 56.666 13 69.999s20.334 20 35.001 20c8 0 16.5 -1.5 25.5 -4.5
s16.833 -10.167 23.5 -21.5z" />
    <glyph glyph-name="g" unicode="g" 
d="M116 230c0 35.333 7.16699 65.333 21.5 90s33.5 43.334 57.5 56.001s50 19 78 19c23.333 0 46.333 -6.33301 69 -19s41.334 -31.334 56.001 -56.001s22 -54.667 22 -90s-7.33301 -65.333 -22 -90s-33.334 -43.334 -56.001 -56.001s-45.667 -19 -69 -19
c-28 0 -54 6.33301 -78 19s-43.167 31.334 -57.5 56.001s-21.5 54.667 -21.5 90zM35 230c0 -49.333 10.333 -92.0029 31 -128.003s48.334 -63.667 83.001 -83s72.667 -29 114 -29c34 0 64.5 7.66699 91.5 23s48.833 37.333 65.5 66v-69c0 -38.667 -7.5 -70.167 -22.5 -94.5
s-33.833 -42.166 -56.5 -53.499s-45.667 -17 -69 -17c-30 0 -56 5.83301 -78 17.5s-39 27 -51 46s-18 39.5 -18 61.5h-81c0 -39.333 9.66699 -74.166 29 -104.499s46.166 -53.833 80.499 -70.5s73.833 -25 118.5 -25c38.667 0 75.334 9 110.001 27s63 44.833 85 80.5
s33 79.834 33 132.501v450h-80v-79c-16.667 28.667 -38.5 50.667 -65.5 66s-57.5 23 -91.5 23c-41.333 0 -79.333 -9.66699 -114 -29s-62.334 -46.833 -83.001 -82.5s-31 -78.5 -31 -128.5z" />
    <glyph glyph-name="uni0068" unicode="h" horiz-adv-x="525" 
d="M370 280l-0.000976562 -279.999h80v290c0 59.333 -14.5 104.166 -43.5 134.499s-67.167 45.5 -114.5 45.5c-30 0 -56.833 -7.5 -80.5 -22.5s-42.5 -35.167 -56.5 -60.5v393h-80v-780h80v280c0 33.333 10.833 60.833 32.5 82.5s49.834 32.5 84.501 32.5
c65.333 0 98 -38.333 98 -115z" />
    <glyph glyph-name="uni0069" unicode="i" horiz-adv-x="260" 
d="M90 460v-460h80v460h-80zM75 650c0 -14.667 5.5 -27.5 16.5 -38.5s23.833 -16.5 38.5 -16.5c15.333 0 28.333 5.5 39 16.5s16 23.833 16 38.5c0 15.333 -5.33301 28.333 -16 39s-23.667 16 -39 16c-14.667 0 -27.5 -5.33301 -38.5 -16s-16.5 -23.667 -16.5 -39z" />
    <glyph glyph-name="uni006A" unicode="j" horiz-adv-x="250" 
d="M-17 -114l-44.001 -65.999c7.33301 -10 18.5 -19.167 33.5 -27.5s33.167 -12.5 54.5 -12.5c42 0 74.667 13 98 39s35 66.333 35 121v520h-80v-510c0 -32.667 -4.16699 -55.834 -12.5 -69.501s-20.166 -20.5 -35.499 -20.5c-8 0 -16.333 1.5 -25 4.5
s-16.667 10.167 -24 21.5zM64.999 650.001c0 -14.667 5.5 -27.5 16.5 -38.5s23.833 -16.5 38.5 -16.5c15.333 0 28.333 5.5 39 16.5s16 23.833 16 38.5c0 15.333 -5.33301 28.333 -16 39s-23.667 16 -39 16c-14.667 0 -27.5 -5.33301 -38.5 -16s-16.5 -23.667 -16.5 -39z
" />
    <glyph glyph-name="k" unicode="k" horiz-adv-x="440" 
d="M320 460l-170 -162v482h-80v-780h80v233l190 -233h100l-220 270l200 190h-100z" />
    <glyph glyph-name="uni006C" unicode="l" horiz-adv-x="230" 
d="M75 780v-780h80v780h-80z" />
    <glyph glyph-name="uni006D" unicode="m" horiz-adv-x="780" 
d="M705 290c0 59.333 -12.832 104.167 -38.499 134.5s-62.167 45.5 -109.5 45.5c-30.667 0 -58.334 -7.66699 -83.001 -23s-44.334 -36.333 -59.001 -63c-22 57.333 -66.333 86 -133 86c-28.667 0 -53.667 -7 -75 -21s-38.666 -32.667 -51.999 -56v67h-80v-460h80v280
c0 33.333 9.16699 60.833 27.5 82.5s44.833 32.5 79.5 32.5c32.667 0 55.5 -9.66699 68.5 -29s19.5 -48 19.5 -86v-280h80v280c0 33.333 9.16699 60.833 27.5 82.5s44.833 32.5 79.5 32.5c32.667 0 55.5 -9.66699 68.5 -29s19.5 -48 19.5 -86v-280h80v290z" />
    <glyph glyph-name="uni006E" unicode="n" horiz-adv-x="525" 
d="M370 280l-0.000976562 -279.999h80v290c0 59.333 -14.5 104.166 -43.5 134.499s-67.167 45.5 -114.5 45.5c-30 0 -56.833 -7.5 -80.5 -22.5s-42.5 -35.167 -56.5 -60.5v73h-80v-460h80v280c0 33.333 10.833 60.833 32.5 82.5s49.834 32.5 84.501 32.5
c65.333 0 98 -38.333 98 -115z" />
    <glyph glyph-name="o" unicode="o" horiz-adv-x="546" 
d="M116 230c0 32 6.83301 60.5 20.5 85.5s32.334 44.5 56.001 58.5s50.5 21 80.5 21s56.833 -7 80.5 -21s42.334 -33.5 56.001 -58.5s20.5 -53.5 20.5 -85.5s-6.83301 -60.333 -20.5 -85s-32.334 -44.167 -56.001 -58.5s-50.5 -21.5 -80.5 -21.5s-56.833 7.16699 -80.5 21.5
s-42.334 33.833 -56.001 58.5s-20.5 53 -20.5 85zM35 230c0 -46 10.5 -87.167 31.5 -123.5s49.5 -64.833 85.5 -85.5s76.333 -31 121 -31c45.333 0 85.833 10.333 121.5 31s64 49.167 85 85.5s31.5 77.5 31.5 123.5c0 46.667 -10.5 88 -31.5 124s-49.333 64.333 -85 85
s-76.167 31 -121.5 31c-44.667 0 -85 -10.333 -121 -31s-64.5 -49 -85.5 -85s-31.5 -77.333 -31.5 -124z" />
    <glyph glyph-name="uni0070" unicode="p" 
d="M454 230c0 -35.333 -7.16699 -65.333 -21.5 -90s-33.333 -43.334 -57 -56.001s-49.834 -19 -78.501 -19c-23.333 0 -46.333 6.33301 -69 19s-41.334 31.334 -56.001 56.001s-22 54.667 -22 90s7.33301 65.333 22 90s33.334 43.334 56.001 56.001s45.667 19 69 19
c28.667 0 54.834 -6.33301 78.501 -19s42.667 -31.334 57 -56.001s21.5 -54.667 21.5 -90zM535 230c0 50 -10.333 92.833 -31 128.5s-48.167 63.167 -82.5 82.5s-72.5 29 -114.5 29c-34 0 -64.333 -7.66699 -91 -23s-48.667 -37.333 -66 -66v79h-80v-680h80v299
c17.333 -28.667 39.333 -50.667 66 -66s57 -23 91 -23c42 0 80.167 9.66699 114.5 29s61.833 47 82.5 83s31 78.667 31 128z" />
    <glyph glyph-name="uni0071" unicode="q" 
d="M116 230c0 35.333 7.16699 65.333 21.5 90s33.5 43.334 57.5 56.001s50 19 78 19c23.333 0 46.333 -6.33301 69 -19s41.334 -31.334 56.001 -56.001s22 -54.667 22 -90s-7.33301 -65.333 -22 -90s-33.334 -43.334 -56.001 -56.001s-45.667 -19 -69 -19
c-28 0 -54 6.33301 -78 19s-43.167 31.334 -57.5 56.001s-21.5 54.667 -21.5 90zM35 230c0 -49.333 10.333 -92 31 -128s48.334 -63.667 83.001 -83s72.667 -29 114 -29c34 0 64.5 7.66699 91.5 23s48.833 37.333 65.5 66v-299h80v680h-80v-79
c-16.667 28.667 -38.5 50.667 -65.5 66s-57.5 23 -91.5 23c-41.333 0 -79.333 -9.66699 -114 -29s-62.334 -46.833 -83.001 -82.5s-31 -78.5 -31 -128.5z" />
    <glyph glyph-name="uni0072" unicode="r" horiz-adv-x="343" 
d="M294 372l43.999 65.999c-12 12.667 -25.167 21.167 -39.5 25.5s-29.833 6.5 -46.5 6.5c-17.333 0 -34.5 -5.66699 -51.5 -17s-32.167 -26.666 -45.5 -45.999v53h-80v-460h80v280c0 33.333 5.33301 60.833 16 82.5s31 32.5 61 32.5c13.333 0 24.333 -1.83301 33 -5.5
s18.334 -9.5 29.001 -17.5z" />
    <glyph glyph-name="s" unicode="s" horiz-adv-x="403" 
d="M88 162l-62.9961 -38.9951c17.333 -37.333 42.666 -68.833 75.999 -94.5s71.333 -38.5 114 -38.5c44.667 0 82.167 11 112.5 33s45.5 57.667 45.5 107c0 26 -6 47.667 -18 65s-27.667 32 -47 44s-40 22.333 -62 31c-16.667 7.33301 -33.834 14.166 -51.501 20.499
s-32.5 14 -44.5 23s-18 20.833 -18 35.5c0 18 7 30.5 21 37.5s31 10.5 51 10.5c18.667 0 37.5 -5.83301 56.5 -17.5s33.833 -25.167 44.5 -40.5l64 41c-14 25.333 -36 46.666 -66 63.999s-63.333 26 -100 26c-24.667 0 -48.334 -4.33301 -71.001 -13
s-41.334 -22.167 -56.001 -40.5s-22 -41.833 -22 -70.5s6.66699 -51.334 20 -68.001s30.166 -29.834 50.499 -39.501s40.833 -18.834 61.5 -27.501c18 -6.66699 34.833 -14 50.5 -22s28.5 -17.333 38.5 -28s15 -24 15 -40c0 -19.333 -7.16699 -33.5 -21.5 -42.5
s-32.166 -13.5 -53.499 -13.5c-22 0 -44.667 9.16699 -68 27.5s-43 41.5 -59 69.5z" />
    <glyph glyph-name="t" unicode="t" horiz-adv-x="240" 
d="M80 620v-160h-75v-75h75v-385h80v385h75v75h-75v160h-80z" />
    <glyph glyph-name="uni0075" unicode="u" horiz-adv-x="525" 
d="M155 180l-0.000976562 279.999h-80v-290c0 -59.333 14.5 -104.166 43.5 -134.499s67.167 -45.5 114.5 -45.5c30 0 56.833 7.5 80.5 22.5s42.5 35.167 56.5 60.5v-73h80v460h-80v-280c0 -32.667 -10.667 -60 -32 -82s-49.666 -33 -84.999 -33
c-65.333 0 -98 38.333 -98 115z" />
    <glyph glyph-name="uni0076" unicode="v" horiz-adv-x="440" 
d="M0 460l220 -495l220 495h-90l-130 -325l-130 325h-90z" />
    <glyph glyph-name="w" unicode="w" horiz-adv-x="680" 
d="M5 460l200 -495l131 335l139 -335l200 495h-90l-116 -301l-134 336l-125 -334l-115 299h-90z" />
    <glyph glyph-name="uni0078" unicode="x" horiz-adv-x="420" 
d="M320 460l-110 -160l-110 160h-90l157 -223l-167 -237h90l120 174l120 -174h90l-167 237l157 223h-90z" />
    <glyph glyph-name="y" unicode="y" horiz-adv-x="440" 
d="M440 460h-90l-126 -317l-129 317h-95l176 -395l-126 -285h90z" />
    <glyph glyph-name="uni007A" unicode="z" horiz-adv-x="460" 
d="M300 385l-285 -385h410v75h-265l285 385h-400v-75h255z" />
    <glyph glyph-name="uni007B" unicode="{" horiz-adv-x="311" 
d="M178 660c0 13.333 4.33301 25.001 13 35.001s20.334 15 35.001 15h35v70h-60c-14.667 0 -30 -4.83301 -46 -14.5s-29.5 -24.667 -40.5 -45s-16.5 -47.166 -16.5 -80.499v-210c0 -38 -4.16699 -64.5 -12.5 -79.5s-20.166 -25.167 -35.499 -30.5v-60
c15.333 -4.66699 27.166 -14.667 35.499 -30s12.5 -42 12.5 -80v-210c0 -32.667 5.5 -59.334 16.5 -80.001s24.5 -35.834 40.5 -45.501s31.333 -14.5 46 -14.5h60v70h-35c-14.667 0 -26.334 5.16699 -35.001 15.5s-13 21.833 -13 34.5v170c0 24.667 -1 50.5 -3 77.5
s-7.5 51.667 -16.5 74s-24.167 38.5 -45.5 48.5c21.333 10.667 36.5 27 45.5 49s14.5 46.5 16.5 73.5s3 52.833 3 77.5v170z" />
    <glyph glyph-name="bar" unicode="|" horiz-adv-x="274" 
d="M100 785v-1000h74v1000h-74z" />
    <glyph glyph-name="uni007D" unicode="}" horiz-adv-x="311" 
d="M142 -80c0 -12.667 -4.16699 -24.168 -12.5 -34.501s-20.166 -15.5 -35.499 -15.5h-35v-70h60c14.667 0 30 4.83301 46 14.5s29.5 24.834 40.5 45.501s16.5 47.334 16.5 80.001v210c0 38 4.33301 64.667 13 80s20.334 25.333 35.001 30v60
c-14.667 5.33301 -26.334 15.5 -35.001 30.5s-13 41.5 -13 79.5v210c0 33.333 -5.5 60.166 -16.5 80.499s-24.5 35.333 -40.5 45s-31.333 14.5 -46 14.5h-60v-70h35c15.333 0 27.166 -5 35.499 -15s12.5 -21.667 12.5 -35v-170c0 -24.667 1 -50.5 3 -77.5
s7.66699 -51.5 17 -73.5s24.333 -38.333 45 -49c-20.667 -10 -35.667 -26.167 -45 -48.5s-15 -47 -17 -74s-3 -52.833 -3 -77.5v-170z" />
    <glyph glyph-name="uni007E" unicode="~" horiz-adv-x="575" 
d="M142 176c-2.66699 7.33301 -3.99902 14.667 -3.99902 22c0 36.667 18.333 55 55 55c12.667 0 26.5 -2.66699 41.5 -8s29.833 -13.666 44.5 -24.999c43.333 -32 81.666 -48 114.999 -48c18 0 35 3.66699 51 11s30.333 19.333 43 36c8.66699 11.333 14.5 23.5 17.5 36.5
s4.5 24.5 4.5 34.5c0 5.33301 -0.333008 10.333 -1 15s-1.66699 9 -3 13l-79 5c2 -4.66699 3.33301 -9.33398 4 -14.001s1 -9 1 -13c0 -32.667 -14 -49 -42 -49c-8.66699 0 -19.167 2.5 -31.5 7.5s-26.166 13.167 -41.499 24.5c-42 32 -83 48 -123 48
c-20.667 0 -40 -4.33301 -58 -13s-33.667 -21.667 -47 -39c-8.66699 -12 -14.834 -24 -18.501 -36s-5.5 -23.333 -5.5 -34c0 -8.66699 1 -16.667 3 -24z" />
    <glyph glyph-name="uni00A0" unicode="&#xa0;" horiz-adv-x="300" 
 />
    <glyph glyph-name="exclamdown" unicode="&#xa1;" horiz-adv-x="300" 
d="M205 415c0 15.333 -5.33301 28.333 -16 39s-23.667 16 -39 16c-14.667 0 -27.5 -5.33301 -38.5 -16s-16.5 -23.667 -16.5 -39c0 -14.667 5.5 -27.5 16.5 -38.5s23.833 -16.5 38.5 -16.5c15.333 0 28.333 5.5 39 16.5s16 23.833 16 38.5zM200 -245l-20 500h-60l-20 -500
h100z" />
    <glyph glyph-name="uni00A2" unicode="&#xa2;" horiz-adv-x="580" 
d="M280 578v-110.998c-38 -5.33301 -72 -18.833 -102 -40.5s-53.667 -49.334 -71 -83.001s-26 -71.5 -26 -113.5c0 -41.333 8.66699 -78.833 26 -112.5s41 -61.334 71 -83.001s64 -35.5 102 -41.5v-105h64v103c27.333 2.66699 53.166 8.83398 77.499 18.501
s43.5 22.834 57.5 39.501v100c-10.667 -22.667 -30.667 -42.334 -60 -59.001s-62.666 -25 -99.999 -25c-30 0 -56.833 7.16699 -80.5 21.5s-42.334 33.833 -56.001 58.5s-20.5 53 -20.5 85s6.83301 60.5 20.5 85.5s32.334 44.5 56.001 58.5s50.5 21 80.5 21
c37.333 0 70.666 -8.33301 99.999 -25s49.333 -36.334 60 -59.001v100c-14 16 -33.167 29 -57.5 39s-50.166 16.333 -77.499 19v109h-64z" />
    <glyph glyph-name="sterling" unicode="&#xa3;" horiz-adv-x="580" 
d="M450 479l71.001 29.002c-1.33301 20 -6.33301 41.667 -15 65s-21 45.333 -37 66s-36.333 37.667 -61 51s-53.667 20 -87 20c-39.333 0 -74.5 -7.66699 -105.5 -23s-55.333 -37.333 -73 -66s-26.5 -63 -26.5 -103c0 -33.333 5 -61.5 15 -84.5s21.333 -44.167 34 -63.5h-98
v-75h141c2.66699 -6.66699 4.83398 -13.834 6.50098 -21.501s2.5 -15.834 2.5 -24.501c0 -29.333 -6 -56.5 -18 -81.5s-29.333 -50.667 -52 -77s-50.334 -56.5 -83.001 -90.5h453v80h-307c25.333 19.333 46.333 45.166 63 77.499s25 67.833 25 106.5c0 10.667 -1 21 -3 31
h132v75h-163c-8.66699 14.667 -17.834 29 -27.501 43s-17.667 29.667 -24 47s-9.5 37.333 -9.5 60c0 25.333 5.66699 45.833 17 61.5s26 27 44 34s37 10.5 57 10.5c28.667 0 52.334 -7.16699 71.001 -21.5s32.667 -32.666 42 -54.999s14.666 -45.833 15.999 -70.5z" />
    <glyph glyph-name="uni00A4" unicode="&#xa4;" horiz-adv-x="580" 
d="M133 300c0 32 6.83301 60.5 20.5 85.5s32.334 44.5 56.001 58.5s50.5 21 80.5 21s56.833 -7 80.5 -21s42.334 -33.5 56.001 -58.5s20.5 -53.5 20.5 -85.5s-6.83301 -60.5 -20.5 -85.5s-32.334 -44.5 -56.001 -58.5s-50.5 -21 -80.5 -21s-56.833 7 -80.5 21
s-42.334 33.5 -56.001 58.5s-20.5 53.5 -20.5 85.5zM87 47l59 59c20 -14.667 42.167 -26 66.5 -34s50.166 -12 77.499 -12s53.166 4 77.499 12s46.5 19.333 66.5 34l59 -59l49 50l-59 59c14 19.333 25 41.333 33 66s12 50.667 12 78s-4 53.333 -12 78s-19 46.667 -33 66
l59 59l-49 50l-59 -59c-20 14.667 -42.167 26 -66.5 34s-50.166 12 -77.499 12s-53.166 -4 -77.499 -12s-46.5 -19.333 -66.5 -34l-59 59l-50 -50l60 -59c-14 -19.333 -25 -41.333 -33 -66s-12 -50.667 -12 -78s4 -53.333 12 -78s19 -46.667 33 -66l-60 -59z" />
    <glyph glyph-name="uni00A5" unicode="&#xa5;" horiz-adv-x="580" 
d="M471 700l-181 -324l-180 324h-95l197 -335h-167v-75h203v-75h-203v-75h203v-140h86v140h196v75h-196v75h196v75h-161l196 335h-94z" />
    <glyph glyph-name="uni00A6" unicode="&#xa6;" horiz-adv-x="274" 
d="M174 245h-74v-240h74v240zM100 695v-240h74v240h-74z" />
    <glyph glyph-name="uni00A7" unicode="&#xa7;" horiz-adv-x="408" 
d="M96 161l-65.999 -37.9971c4.66699 -24.667 15.834 -47.167 33.501 -67.5s39.5 -36.333 65.5 -48s53 -17.5 81 -17.5c49.333 0 89.666 11 120.999 33s47 57.667 47 107c0 27.333 -8.66699 50.666 -26 69.999s-38.666 35.666 -63.999 48.999
c28 7.33301 50 20.666 66 39.999s24 46.333 24 81c0 22.667 -6 42.5 -18 59.5s-27.667 31.833 -47 44.5s-40 23.334 -62 32.001c-16.667 7.33301 -33.667 15 -51 23s-31.833 17 -43.5 27s-17.5 21 -17.5 33c0 15.333 6.66699 26.666 20 33.999s30 11 50 11
c18.667 0 37.667 -4.33301 57 -13s34 -22.667 44 -42l64 41c-6 17.333 -17.5 32.666 -34.5 45.999s-37 24 -60 32s-46.833 12 -71.5 12s-48.334 -4.83301 -71.001 -14.5s-41.334 -23.5 -56.001 -41.5s-22 -39.667 -22 -65c0 -30.667 9.33301 -55.167 28 -73.5
s40.334 -33.166 65.001 -44.499c-62 -16 -93 -53.333 -93 -112c0 -25.333 6.66699 -47.333 20 -66s30.166 -34.167 50.499 -46.5s40.833 -22.833 61.5 -31.5c18 -6.66699 34.833 -14 50.5 -22s28.5 -17.5 38.5 -28.5s15 -24.833 15 -41.5c0 -20 -7 -34.667 -21 -44
s-33.667 -14 -59 -14c-28.667 0 -54.167 9 -76.5 27s-36.5 41 -42.5 69zM210.001 447.003c23.333 -9.33301 43.333 -20.167 60 -32.5s25 -29.5 25 -51.5c0 -18 -6.33301 -36 -19 -54s-29.667 -29 -51 -33c-22 8.66699 -41.833 19.5 -59.5 32.5s-26.5 33.167 -26.5 60.5
c0 18.667 5.83301 34 17.5 46s29.5 22.667 53.5 32z" />
    <glyph glyph-name="dieresis" unicode="&#xa8;" horiz-adv-x="470" 
d="M80 660c0 -14.667 5.5 -27.5 16.5 -38.5s23.833 -16.5 38.5 -16.5c15.333 0 28.333 5.5 39 16.5s16 23.833 16 38.5c0 15.333 -5.33301 28.333 -16 39s-23.667 16 -39 16c-14.667 0 -27.5 -5.33301 -38.5 -16s-16.5 -23.667 -16.5 -39zM280 660
c0 -14.667 5.5 -27.5 16.5 -38.5s23.833 -16.5 38.5 -16.5c15.333 0 28.333 5.5 39 16.5s16 23.833 16 38.5c0 15.333 -5.33301 28.333 -16 39s-23.667 16 -39 16c-14.667 0 -27.5 -5.33301 -38.5 -16s-16.5 -23.667 -16.5 -39z" />
    <glyph glyph-name="uni00A9" unicode="&#xa9;" horiz-adv-x="800" 
d="M40 350c0 -52 9.16699 -100 27.5 -144s43.666 -82.167 75.999 -114.5s70.5 -57.333 114.5 -75s91.333 -26.5 142 -26.5c51.333 0 98.833 8.83301 142.5 26.5s81.667 42.667 114 75s57.666 70.5 75.999 114.5s27.5 92 27.5 144s-9.16699 100 -27.5 144
s-43.666 82.167 -75.999 114.5s-70.333 57.333 -114 75s-91.167 26.5 -142.5 26.5c-50.667 0 -98 -8.83301 -142 -26.5s-82.167 -42.667 -114.5 -75s-57.666 -70.5 -75.999 -114.5s-27.5 -92 -27.5 -144zM95 350c0 59.333 13.333 112.333 40 159s63.167 83.5 109.5 110.5
s98.166 40.5 155.499 40.5c58 0 110 -13.5 156 -40.5s82.333 -63.833 109 -110.5s40 -99.667 40 -159s-13.333 -112.333 -40 -159s-63 -83.5 -109 -110.5s-98 -40.5 -156 -40.5c-57.333 0 -109.166 13.5 -155.499 40.5s-82.833 63.833 -109.5 110.5s-40 99.667 -40 159z
M239 350c0 32.667 6.83301 61.333 20.5 86s32.334 44 56.001 58s50.167 21 79.5 21s55.5 -5.66699 78.5 -17s41.833 -26.333 56.5 -45v67c-17.333 15.333 -36.5 26.833 -57.5 34.5s-46.833 11.5 -77.5 11.5c-38.667 0 -73.834 -9.33301 -105.501 -28s-57 -44.167 -76 -76.5
s-28.5 -69.5 -28.5 -111.5c0 -41.333 9.5 -78.333 28.5 -111s44.333 -58.334 76 -77.001s66.834 -28 105.501 -28c30.667 0 56.5 3.83301 77.5 11.5s40.167 19.167 57.5 34.5v67c-14.667 -18.667 -33.5 -33.667 -56.5 -45s-49.167 -17 -78.5 -17s-55.833 7 -79.5 21
s-42.334 33.333 -56.001 58s-20.5 53.334 -20.5 86.001z" />
    <glyph glyph-name="uni00AA" unicode="&#xaa;" horiz-adv-x="238" 
d="M61 646c5.33301 4 14.001 9 26.001 15s26.333 9 43 9c12.667 0 23.834 -3 33.501 -9s14.5 -14.667 14.5 -26v-39c-6.66699 4 -15 7.83301 -25 11.5s-21.667 5.5 -35 5.5c-24.667 0 -47.167 -7.5 -67.5 -22.5s-30.5 -34.5 -30.5 -58.5c0 -24.667 8.16699 -43.667 24.5 -57
s34.833 -20 55.5 -20c37.333 0 63.333 12.667 78 38v-33h40v175c0 22 -8.16699 39.167 -24.5 51.5s-37.5 18.5 -63.5 18.5c-20.667 0 -38.334 -3.16699 -53.001 -9.5s-26.334 -12.5 -35.001 -18.5zM61.001 532c0 14 5.33398 26 16.001 36s25 15 43 15
c21.333 0 40.666 -4.66699 57.999 -14v-19c0 -21.333 -7 -36.5 -21 -45.5s-29.667 -13.5 -47 -13.5c-18.667 0 -31.5 4.16699 -38.5 12.5s-10.5 17.833 -10.5 28.5z" />
    <glyph glyph-name="guillemotleft" unicode="&#xab;" horiz-adv-x="510" 
d="M130 259l150 186l-50 45l-190 -235l190 -235l50 45zM290 259l150 186l-50 45l-190 -235l190 -235l50 45z" />
    <glyph glyph-name="logicalnot" unicode="&#xac;" horiz-adv-x="620" 
d="M65 300h415v-125h75v200h-490v-75z" />
    <glyph glyph-name="uni00AD" unicode="&#xad;" horiz-adv-x="210" 
d="M5 200h200v75h-200v-75z" />
    <glyph glyph-name="registered" unicode="&#xae;" horiz-adv-x="800" 
d="M40 350c0 -52 9.16699 -100 27.5 -144s43.666 -82.167 75.999 -114.5s70.5 -57.333 114.5 -75s91.333 -26.5 142 -26.5c51.333 0 98.833 8.83301 142.5 26.5s81.667 42.667 114 75s57.666 70.5 75.999 114.5s27.5 92 27.5 144s-9.16699 100 -27.5 144
s-43.666 82.167 -75.999 114.5s-70.333 57.333 -114 75s-91.167 26.5 -142.5 26.5c-50.667 0 -98 -8.83301 -142 -26.5s-82.167 -42.667 -114.5 -75s-57.666 -70.5 -75.999 -114.5s-27.5 -92 -27.5 -144zM95 350c0 59.333 13.333 112.333 40 159s63.167 83.5 109.5 110.5
s98.166 40.5 155.499 40.5c58 0 110 -13.5 156 -40.5s82.333 -63.833 109 -110.5s40 -99.667 40 -159s-13.333 -112.333 -40 -159s-63 -83.5 -109 -110.5s-98 -40.5 -156 -40.5c-57.333 0 -109.166 13.5 -155.499 40.5s-82.833 63.833 -109.5 110.5s-40 99.667 -40 159z
M325 318l51 -0.000976562l117 -168h63l-125 173c29.333 7.33301 53.333 21.5 72 42.5s28 47.167 28 78.5c0 38.667 -13.667 69.334 -41 92.001s-61.333 34 -102 34h-63h-23h-28v-420h51v168zM325 362.999v162h63c27.333 0 49.5 -7 66.5 -21s25.5 -34 25.5 -60
s-8.5 -46 -25.5 -60s-39.167 -21 -66.5 -21h-63z" />
    <glyph glyph-name="uni00AF" unicode="&#xaf;" horiz-adv-x="510" 
d="M80 600h350v75h-350v-75z" />
    <glyph glyph-name="uni00B0" unicode="&#xb0;" horiz-adv-x="278" 
d="M60 600c0 24 7.5 43.667 22.5 59s33.833 23 56.5 23s41.5 -7.66699 56.5 -23s22.5 -35 22.5 -59s-7.5 -43.667 -22.5 -59s-33.833 -23 -56.5 -23s-41.5 7.66699 -56.5 23s-22.5 35 -22.5 59zM20 600c0 -34.667 11.333 -63.334 34 -86.001s51 -34 85 -34
s62.333 11.333 85 34s34 51.334 34 86.001c0 35.333 -11.333 64.166 -34 86.499s-51 33.5 -85 33.5s-62.333 -11.167 -85 -33.5s-34 -51.166 -34 -86.499z" />
    <glyph glyph-name="plusminus" unicode="&#xb1;" horiz-adv-x="615" 
d="M265 620v-195h-200v-80h200v-195h85v195h200v80h-200v195h-85zM65 0h485v80h-485v-80z" />
    <glyph glyph-name="uni00B2" unicode="&#xb2;" horiz-adv-x="346" 
d="M25 282l296.002 0.00195312v48h-191l133 136c16.667 17.333 30.167 35.666 40.5 54.999s15.5 39.666 15.5 60.999c0 18.667 -4.33301 37.834 -13 57.501s-22.334 36.167 -41.001 49.5s-43.334 20 -74.001 20c-43.333 0 -77.833 -14 -103.5 -42s-38.5 -64.333 -38.5 -109
h51c0 32 8.5 57.167 25.5 75.5s38.833 27.5 65.5 27.5c25.333 0 44.333 -7.83301 57 -23.5s19 -32.834 19 -51.501c0 -16.667 -3.83301 -32.5 -11.5 -47.5s-18.5 -29.833 -32.5 -44.5z" />
    <glyph glyph-name="uni00B3" unicode="&#xb3;" horiz-adv-x="312" 
d="M159 274c37.333 0 68.5 10.6689 93.5 32.002s37.5 49.666 37.5 84.999c0 29.333 -7.66699 52.833 -23 70.5s-35.333 30.167 -60 37.5c22 9.33301 39.333 22.333 52 39s19 35.334 19 56.001c0 29.333 -10.333 55.333 -31 78s-49 34 -85 34
c-34.667 0 -63.167 -10.167 -85.5 -30.5s-33.5 -46.833 -33.5 -79.5h49c0 18.667 6.83301 34 20.5 46s30.167 18 49.5 18c21.333 0 37.333 -6.16699 48 -18.5s16 -28.5 16 -48.5s-7.33301 -37.167 -22 -51.5s-35.667 -21.5 -63 -21.5v-12v-21v-12
c27.333 0 50.333 -6.5 69 -19.5s28 -32.5 28 -58.5c0 -22.667 -7.16699 -40.834 -21.5 -54.501s-33.5 -20.5 -57.5 -20.5s-43.667 6.5 -59 19.5s-23 29.5 -23 49.5h-52c0 -32.667 12.167 -60.334 36.5 -83.001s56.833 -34 97.5 -34z" />
    <glyph glyph-name="acute" unicode="&#xb4;" horiz-adv-x="375" 
d="M300 660l-75 40l-150 -160l45 -30z" />
    <glyph glyph-name="uni00B5" unicode="&#xb5;" horiz-adv-x="525" 
d="M155 460l-80.001 -0.000976562v-290v-490h80v327c11.333 -6 23.5 -10.333 36.5 -13s26.833 -4 41.5 -4c28 0 53.833 6.33301 77.5 19s43.5 30.334 59.5 53.001v-62h80v460h-80v-280c0 -32.667 -10.667 -60 -32 -82s-49.666 -33 -84.999 -33c-65.333 0 -98 38.333 -98 115
v280z" />
    <glyph glyph-name="paragraph" unicode="&#xb6;" horiz-adv-x="578" 
d="M288 270v-489.998h70v855h90v-855h70v920h-30h-40h-90h-70c-41.333 0 -79.333 -8.33301 -114 -25s-62.334 -40.834 -83.001 -72.501s-31 -70.834 -31 -117.501c0 -46 10.333 -85 31 -117s48.334 -56.333 83.001 -73s72.667 -25 114 -25z" />
    <glyph glyph-name="uni00B7" unicode="&#xb7;" horiz-adv-x="300" 
d="M95 240c0 -14.667 5.5 -27.5 16.5 -38.5s23.833 -16.5 38.5 -16.5c15.333 0 28.333 5.5 39 16.5s16 23.833 16 38.5c0 15.333 -5.33301 28.333 -16 39s-23.667 16 -39 16c-14.667 0 -27.5 -5.33301 -38.5 -16s-16.5 -23.667 -16.5 -39z" />
    <glyph glyph-name="uni00B8" unicode="&#xb8;" horiz-adv-x="350" 
d="M196 60l-84.999 -167.999c10.667 7.33301 21.667 12.166 33 14.499s19.333 3.5 24 3.5c33.333 0 50 -12 50 -36c0 -12 -4 -21.667 -12 -29s-20.667 -11 -38 -11c-12.667 0 -22.834 2 -30.501 6s-16.167 10 -25.5 18l-33 -40c14 -14 27.667 -23.833 41 -29.5
s29.333 -8.5 48 -8.5c27.333 0 52 8 74 24s33 39.333 33 70c0 24.667 -8 43.167 -24 55.5s-32.333 18.5 -49 18.5h-4.5h-4.5l64 112h-61z" />
    <glyph glyph-name="uni00B9" unicode="&#xb9;" horiz-adv-x="470" 
d="M152 611l93 28v-365h51v426l-144 -36v-53z" />
    <glyph glyph-name="uni00BA" unicode="&#xba;" horiz-adv-x="278" 
d="M60 580c0 24 7.5 43.667 22.5 59s33.833 23 56.5 23s41.5 -7.66699 56.5 -23s22.5 -35 22.5 -59s-7.5 -43.667 -22.5 -59s-33.833 -23 -56.5 -23s-41.5 7.66699 -56.5 23s-22.5 35 -22.5 59zM20 580c0 -34.667 11.333 -63.334 34 -86.001s51 -34 85 -34
s62.333 11.333 85 34s34 51.334 34 86.001c0 35.333 -11.333 64.166 -34 86.499s-51 33.5 -85 33.5s-62.333 -11.167 -85 -33.5s-34 -51.166 -34 -86.499z" />
    <glyph glyph-name="uni00BB" unicode="&#xbb;" horiz-adv-x="510" 
d="M380 251l-150 -186l50 -45l190 235l-190 235l-50 -45zM220 251l-150 -186l50 -45l190 235l-190 235l-50 -45z" />
    <glyph glyph-name="uni00BC" unicode="&#xbc;" horiz-adv-x="754" 
d="M30 611l93 28v-365h51v426l-144 -36v-53zM618 700l-520 -700h65l520 700h-65zM652 84h66v45h-66v291h-21l-233 -336h54h149v-84h51v84zM601 129h-119l119 178v-178z" />
    <glyph glyph-name="uni00BD" unicode="&#xbd;" horiz-adv-x="819" 
d="M493 2l296.002 0.00195312v48h-191l133 136c16.667 17.333 30.167 35.666 40.5 54.999s15.5 39.666 15.5 60.999c0 18.667 -4.33301 37.834 -13 57.501s-22.334 36.167 -41.001 49.5s-43.334 20 -74.001 20c-43.333 0 -77.833 -14 -103.5 -42s-38.5 -64.333 -38.5 -109
h51c0 32 8.5 57.167 25.5 75.5s38.833 27.5 65.5 27.5c25.333 0 44.333 -7.83301 57 -23.5s19 -32.834 19 -51.501c0 -16.667 -3.83301 -32.5 -11.5 -47.5s-18.5 -29.833 -32.5 -44.5zM30.002 611.002l93 28v-365h51v426l-144 -36v-53zM618.002 700.002l-520 -700h65
l520 700h-65z" />
    <glyph glyph-name="threequarters" unicode="&#xbe;" horiz-adv-x="820" 
d="M164 274c37.333 0 68.5 10.6689 93.5 32.002s37.5 49.666 37.5 84.999c0 29.333 -7.66699 52.833 -23 70.5s-35.333 30.167 -60 37.5c22 9.33301 39.333 22.333 52 39s19 35.334 19 56.001c0 29.333 -10.333 55.333 -31 78s-49 34 -85 34
c-34.667 0 -63.167 -10.167 -85.5 -30.5s-33.5 -46.833 -33.5 -79.5h49c0 18.667 6.83301 34 20.5 46s30.167 18 49.5 18c21.333 0 37.333 -6.16699 48 -18.5s16 -28.5 16 -48.5s-7.33301 -37.167 -22 -51.5s-35.667 -21.5 -63 -21.5v-12v-21v-12
c27.333 0 50.333 -6.5 69 -19.5s28 -32.5 28 -58.5c0 -22.667 -7.16699 -40.834 -21.5 -54.501s-33.5 -20.5 -57.5 -20.5s-43.667 6.5 -59 19.5s-23 29.5 -23 49.5h-52c0 -32.667 12.167 -60.334 36.5 -83.001s56.833 -34 97.5 -34zM685 700.002l-520 -700h65l520 700h-65z
M719 84.002h66v45h-66v291h-21l-233 -336h54h149v-84h51v84zM668 129.002h-119l119 178v-178z" />
    <glyph glyph-name="questiondown" unicode="&#xbf;" horiz-adv-x="557" 
d="M362 660c0 15.333 -5.33301 28.333 -16 39s-23.667 16 -39 16c-14.667 0 -27.5 -5.33301 -38.5 -16s-16.5 -23.667 -16.5 -39c0 -14.667 5.5 -27.5 16.5 -38.5s23.833 -16.5 38.5 -16.5c15.333 0 28.333 5.5 39 16.5s16 23.833 16 38.5zM141 200
c0 25.333 7.66699 49.832 23 73.499s37.333 43.167 66 58.5s63 23 103 23h26l-20 175h-60l-7 -120c-36.667 -2 -71.167 -12.5 -103.5 -31.5s-58.5 -43.833 -78.5 -74.5s-30 -65.334 -30 -104.001c0 -39.333 9.5 -75 28.5 -107s45 -57.167 78 -75.5s70.167 -27.5 111.5 -27.5
c40 0 73.333 4.83301 100 14.5s49.334 23.334 68.001 41.001s35.667 38.167 51 61.5l-65 41c-15.333 -24.667 -34.833 -44.667 -58.5 -60s-52.167 -23 -85.5 -23c-44.667 0 -80.334 11.833 -107.001 35.5s-40 56.834 -40 99.501z" />
    <glyph glyph-name="Agrave" unicode="&#xc0;" horiz-adv-x="660" 
d="M200 945l180 -150l45 30l-150 160zM189 210h282l89 -210h95l-325 735l-325 -735h95zM223 290l107 252l107 -252h-214z" />
    <glyph glyph-name="Aacute" unicode="&#xc1;" horiz-adv-x="660" 
d="M460 945l-75 40l-150 -160l45 -30zM189 210h282l89 -210h95l-325 735l-325 -735h95zM223 290l107 252l107 -252h-214z" />
    <glyph glyph-name="uni00C2" unicode="&#xc2;" horiz-adv-x="660" 
d="M330 850l110 -95l50 40l-160 140l-160 -140l50 -40zM189 210h282l89 -210h95l-325 735l-325 -735h95zM223 290l107 252l107 -252h-214z" />
    <glyph glyph-name="uni00C3" unicode="&#xc3;" horiz-adv-x="660" 
d="M165 812l53.0029 -37c0 5.33301 1.33301 12 4 20s7.66699 15.167 15 21.5s17.666 9.5 30.999 9.5c15.333 0 28.5 -3.83301 39.5 -11.5s22.833 -15.5 35.5 -23.5s28 -12 46 -12c25.333 0 47.333 7.5 66 22.5s32 31.833 40 50.5l-46 43c-20 -32 -38.667 -48 -56 -48
c-13.333 0 -24.333 2.33301 -33 7s-16.834 10.167 -24.501 16.5s-16.667 11.833 -27 16.5s-23.5 7 -39.5 7c-22.667 0 -44.334 -7.5 -65.001 -22.5s-33.667 -34.833 -39 -59.5zM189.003 210h282l89 -210h95l-325 735l-325 -735h95zM223.003 290l107 252l107 -252h-214z" />
    <glyph glyph-name="uni00C4" unicode="&#xc4;" horiz-adv-x="660" 
d="M175 850c0 -14.667 5.5 -27.5 16.5 -38.5s23.833 -16.5 38.5 -16.5c15.333 0 28.333 5.5 39 16.5s16 23.833 16 38.5c0 15.333 -5.33301 28.333 -16 39s-23.667 16 -39 16c-14.667 0 -27.5 -5.33301 -38.5 -16s-16.5 -23.667 -16.5 -39zM375 850
c0 -14.667 5.5 -27.5 16.5 -38.5s23.833 -16.5 38.5 -16.5c15.333 0 28.333 5.5 39 16.5s16 23.833 16 38.5c0 15.333 -5.33301 28.333 -16 39s-23.667 16 -39 16c-14.667 0 -27.5 -5.33301 -38.5 -16s-16.5 -23.667 -16.5 -39zM189 210h282l89 -210h95l-325 735l-325 -735
h95zM223 290l107 252l107 -252h-214z" />
    <glyph glyph-name="Aring" unicode="&#xc5;" horiz-adv-x="660" 
d="M279 798c0 16.667 5.33301 29.667 16 39s22.334 14 35.001 14s24.334 -4.66699 35.001 -14s16 -22.333 16 -39s-5.33301 -29.667 -16 -39s-22.334 -14 -35.001 -14s-24.334 4.66699 -35.001 14s-16 22.333 -16 39zM228 798c0 -26.667 8.66699 -49 26 -67
s37.333 -28.667 60 -32l-309 -699h95l89 210h282l89 -210h95l-309 699c23.333 3.33301 43.5 14 60.5 32s25.5 40.333 25.5 67c0 30 -10.5 54.167 -31.5 72.5s-44.5 27.5 -70.5 27.5s-49.5 -9.16699 -70.5 -27.5s-31.5 -42.5 -31.5 -72.5zM223 290l107 252l107 -252h-214z
" />
    <glyph glyph-name="uni00C6" unicode="&#xc6;" horiz-adv-x="960" 
d="M575 340h295v80h-295v200h315v80h-315h-85h-55l-430 -700h95l129 210h261v-210h47h38h315v80h-315v260zM490 637v-347h-212z" />
    <glyph glyph-name="Ccedilla" unicode="&#xc7;" horiz-adv-x="685" 
d="M130 350c0 54.667 12.167 102.501 36.5 143.501s56.166 73.167 95.499 96.5s82 35 128 35c49.333 0 93 -9.5 131 -28.5s69.333 -44.167 94 -75.5v112c-29.333 26 -61.333 45.333 -96 58s-77.667 19 -129 19c-48.667 0 -94.167 -8.83301 -136.5 -26.5
s-79.5 -42.667 -111.5 -75s-57 -70.5 -75 -114.5s-27 -92 -27 -144c0 -64 13.5 -121.667 40.5 -173s63.667 -93 110 -125s98.166 -51.667 155.499 -59l-52 -102c10.667 7.33301 21.834 12.166 33.501 14.499s19.834 3.5 24.501 3.5c33.333 0 50 -12 50 -36
c0 -12 -4 -21.667 -12 -29s-20.667 -11 -38 -11c-12.667 0 -22.834 2 -30.501 6s-16.167 10 -25.5 18l-34 -40c14 -14 27.833 -23.833 41.5 -29.5s29.834 -8.5 48.501 -8.5c27.333 0 51.833 8 73.5 24s32.5 39.333 32.5 70c0 24.667 -7.83301 43.167 -23.5 55.5
s-31.834 18.5 -48.501 18.5h-4.5h-4.5l24 43c48 1.33301 88.5 8.33301 121.5 21s63.833 31.334 92.5 56.001v112c-24.667 -30.667 -56 -55.667 -94 -75s-81.667 -29 -131 -29c-46 0 -88.667 11.667 -128 35s-71.166 55.666 -95.499 96.999s-36.5 89 -36.5 143z" />
    <glyph glyph-name="uni00C8" unicode="&#xc8;" horiz-adv-x="550" 
d="M150 920l180 -150l45 30l-150 160zM165 340h295v80h-295v200h315v80h-315h-38h-47v-700h47h38h315v80h-315v260z" />
    <glyph glyph-name="uni00C9" unicode="&#xc9;" horiz-adv-x="550" 
d="M410 920l-75 40l-150 -160l45 -30zM165 340h295v80h-295v200h315v80h-315h-38h-47v-700h47h38h315v80h-315v260z" />
    <glyph glyph-name="uni00CA" unicode="&#xca;" horiz-adv-x="550" 
d="M290 865l110 -95l50 40l-160 140l-160 -140l50 -40zM165 340h295v80h-295v200h315v80h-315h-38h-47v-700h47h38h315v80h-315v260z" />
    <glyph glyph-name="uni00CB" unicode="&#xcb;" horiz-adv-x="550" 
d="M135 845c0 -14.667 5.5 -27.5 16.5 -38.5s23.833 -16.5 38.5 -16.5c15.333 0 28.333 5.5 39 16.5s16 23.833 16 38.5c0 15.333 -5.33301 28.333 -16 39s-23.667 16 -39 16c-14.667 0 -27.5 -5.33301 -38.5 -16s-16.5 -23.667 -16.5 -39zM335 845
c0 -14.667 5.5 -27.5 16.5 -38.5s23.833 -16.5 38.5 -16.5c15.333 0 28.333 5.5 39 16.5s16 23.833 16 38.5c0 15.333 -5.33301 28.333 -16 39s-23.667 16 -39 16c-14.667 0 -27.5 -5.33301 -38.5 -16s-16.5 -23.667 -16.5 -39zM165 340h295v80h-295v200h315v80h-315h-38
h-47v-700h47h38h315v80h-315v260z" />
    <glyph glyph-name="uni00CC" unicode="&#xcc;" horiz-adv-x="245" 
d="M-8 920l180 -150l46 30l-150 160zM80 700v-700h85v700h-85z" />
    <glyph glyph-name="uni00CD" unicode="&#xcd;" horiz-adv-x="245" 
d="M252 920l-74 40l-150 -160l44 -30zM80 700v-700h85v700h-85z" />
    <glyph glyph-name="Icircumflex" unicode="&#xce;" horiz-adv-x="245" 
d="M122 865l110 -95l50 40l-160 140l-160 -140l50 -40zM80 700v-700h85v700h-85z" />
    <glyph glyph-name="Idieresis" unicode="&#xcf;" horiz-adv-x="245" 
d="M-32 825c0 -14.667 5.33301 -27.5 16 -38.5s23.334 -16.5 38.001 -16.5c15.333 0 28.5 5.5 39.5 16.5s16.5 23.833 16.5 38.5c0 15.333 -5.5 28.333 -16.5 39s-24.167 16 -39.5 16c-14.667 0 -27.334 -5.33301 -38.001 -16s-16 -23.667 -16 -39zM168 825
c0 -14.667 5.33301 -27.5 16 -38.5s23.334 -16.5 38.001 -16.5c15.333 0 28.5 5.5 39.5 16.5s16.5 23.833 16.5 38.5c0 15.333 -5.5 28.333 -16.5 39s-24.167 16 -39.5 16c-14.667 0 -27.334 -5.33301 -38.001 -16s-16 -23.667 -16 -39zM80 700v-700h85v700h-85z" />
    <glyph glyph-name="Eth" unicode="&#xd0;" horiz-adv-x="680" 
d="M5 310l75 0.00195312v-310h47h38h125c68 0 128.333 14.667 181 44s94 70.166 124 122.499s45 113.5 45 183.5s-15 131.167 -45 183.5s-71.333 93.166 -124 122.499s-113 44 -181 44h-125h-38h-47v-315h-75v-75zM165 85.002v225.001h140v75h-140v230h125
c52.667 0 98.834 -10.833 138.501 -32.5s70.667 -52.167 93 -91.5s33.5 -86.333 33.5 -141c0 -54 -11.167 -100.833 -33.5 -140.5s-53.333 -70.334 -93 -92.001s-85.834 -32.5 -138.501 -32.5h-125z" />
    <glyph glyph-name="uni00D1" unicode="&#xd1;" horiz-adv-x="775" 
d="M215 792l53.0029 -37c0 5.33301 1.33301 12 4 20s7.66699 15.167 15 21.5s17.666 9.5 30.999 9.5c15.333 0 28.5 -3.83301 39.5 -11.5s22.833 -15.5 35.5 -23.5s28 -12 46 -12c25.333 0 47.333 7.5 66 22.5s32 31.833 40 50.5l-46 43c-20 -32 -38.667 -48 -56 -48
c-13.333 0 -24.333 2.33301 -33 7s-16.834 10.167 -24.501 16.5s-16.667 11.833 -27 16.5s-23.5 7 -39.5 7c-22.667 0 -44.334 -7.5 -65.001 -22.5s-33.667 -34.833 -39 -59.5zM610.003 700v-521l-530 556v-735h85v521l530 -556v735h-85z" />
    <glyph glyph-name="uni00D2" unicode="&#xd2;" horiz-adv-x="790" 
d="M275 920l180 -150l45 30l-150 160zM40 350c0 -50.667 8.83301 -98 26.5 -142s42.5 -82.167 74.5 -114.5s69.667 -57.666 113 -75.999s90.333 -27.5 141 -27.5c51.333 0 98.5 9.16699 141.5 27.5s80.5 43.666 112.5 75.999s56.833 70.5 74.5 114.5s26.5 91.333 26.5 142
c0 51.333 -8.83301 98.833 -26.5 142.5s-42.5 81.667 -74.5 114s-69.5 57.666 -112.5 75.999s-90.167 27.5 -141.5 27.5c-50.667 0 -97.667 -9.16699 -141 -27.5s-81 -43.666 -113 -75.999s-56.833 -70.333 -74.5 -114s-26.5 -91.167 -26.5 -142.5zM130 350
c0 52.667 11.5 99.667 34.5 141s54.5 74 94.5 98s85.333 36 136 36c51.333 0 96.833 -12 136.5 -36s71 -56.667 94 -98s34.5 -88.333 34.5 -141s-11.5 -99.667 -34.5 -141s-54.333 -74 -94 -98s-85.167 -36 -136.5 -36c-50.667 0 -96 12 -136 36s-71.5 56.667 -94.5 98
s-34.5 88.333 -34.5 141z" />
    <glyph glyph-name="uni00D3" unicode="&#xd3;" horiz-adv-x="790" 
d="M515 920l-75 40l-150 -160l45 -30zM40 350c0 -50.667 8.83301 -98 26.5 -142s42.5 -82.167 74.5 -114.5s69.667 -57.666 113 -75.999s90.333 -27.5 141 -27.5c51.333 0 98.5 9.16699 141.5 27.5s80.5 43.666 112.5 75.999s56.833 70.5 74.5 114.5s26.5 91.333 26.5 142
c0 51.333 -8.83301 98.833 -26.5 142.5s-42.5 81.667 -74.5 114s-69.5 57.666 -112.5 75.999s-90.167 27.5 -141.5 27.5c-50.667 0 -97.667 -9.16699 -141 -27.5s-81 -43.666 -113 -75.999s-56.833 -70.333 -74.5 -114s-26.5 -91.167 -26.5 -142.5zM130 350
c0 52.667 11.5 99.667 34.5 141s54.5 74 94.5 98s85.333 36 136 36c51.333 0 96.833 -12 136.5 -36s71 -56.667 94 -98s34.5 -88.333 34.5 -141s-11.5 -99.667 -34.5 -141s-54.333 -74 -94 -98s-85.167 -36 -136.5 -36c-50.667 0 -96 12 -136 36s-71.5 56.667 -94.5 98
s-34.5 88.333 -34.5 141z" />
    <glyph glyph-name="uni00D4" unicode="&#xd4;" horiz-adv-x="790" 
d="M395 865l110 -95l50 40l-160 140l-160 -140l50 -40zM40 350c0 -50.667 8.83301 -98 26.5 -142s42.5 -82.167 74.5 -114.5s69.667 -57.666 113 -75.999s90.333 -27.5 141 -27.5c51.333 0 98.5 9.16699 141.5 27.5s80.5 43.666 112.5 75.999s56.833 70.5 74.5 114.5
s26.5 91.333 26.5 142c0 51.333 -8.83301 98.833 -26.5 142.5s-42.5 81.667 -74.5 114s-69.5 57.666 -112.5 75.999s-90.167 27.5 -141.5 27.5c-50.667 0 -97.667 -9.16699 -141 -27.5s-81 -43.666 -113 -75.999s-56.833 -70.333 -74.5 -114s-26.5 -91.167 -26.5 -142.5z
M130 350c0 52.667 11.5 99.667 34.5 141s54.5 74 94.5 98s85.333 36 136 36c51.333 0 96.833 -12 136.5 -36s71 -56.667 94 -98s34.5 -88.333 34.5 -141s-11.5 -99.667 -34.5 -141s-54.333 -74 -94 -98s-85.167 -36 -136.5 -36c-50.667 0 -96 12 -136 36
s-71.5 56.667 -94.5 98s-34.5 88.333 -34.5 141z" />
    <glyph glyph-name="Otilde" unicode="&#xd5;" horiz-adv-x="790" 
d="M230 807l53.0029 -37c0 5.33301 1.33301 12 4 20s7.66699 15.167 15 21.5s17.666 9.5 30.999 9.5c15.333 0 28.5 -3.83301 39.5 -11.5s22.833 -15.5 35.5 -23.5s28 -12 46 -12c25.333 0 47.333 7.5 66 22.5s32 31.833 40 50.5l-46 43c-20 -32 -38.667 -48 -56 -48
c-13.333 0 -24.333 2.33301 -33 7s-16.834 10.167 -24.501 16.5s-16.667 11.833 -27 16.5s-23.5 7 -39.5 7c-22.667 0 -44.334 -7.5 -65.001 -22.5s-33.667 -34.833 -39 -59.5zM40.0029 350c0 -50.667 8.83301 -98 26.5 -142s42.5 -82.167 74.5 -114.5
s69.667 -57.666 113 -75.999s90.333 -27.5 141 -27.5c51.333 0 98.5 9.16699 141.5 27.5s80.5 43.666 112.5 75.999s56.833 70.5 74.5 114.5s26.5 91.333 26.5 142c0 51.333 -8.83301 98.833 -26.5 142.5s-42.5 81.667 -74.5 114s-69.5 57.666 -112.5 75.999
s-90.167 27.5 -141.5 27.5c-50.667 0 -97.667 -9.16699 -141 -27.5s-81 -43.666 -113 -75.999s-56.833 -70.333 -74.5 -114s-26.5 -91.167 -26.5 -142.5zM130.003 350c0 52.667 11.5 99.667 34.5 141s54.5 74 94.5 98s85.333 36 136 36c51.333 0 96.833 -12 136.5 -36
s71 -56.667 94 -98s34.5 -88.333 34.5 -141s-11.5 -99.667 -34.5 -141s-54.333 -74 -94 -98s-85.167 -36 -136.5 -36c-50.667 0 -96 12 -136 36s-71.5 56.667 -94.5 98s-34.5 88.333 -34.5 141z" />
    <glyph glyph-name="uni00D6" unicode="&#xd6;" horiz-adv-x="790" 
d="M240 825c0 -14.667 5.5 -27.5 16.5 -38.5s23.833 -16.5 38.5 -16.5c15.333 0 28.333 5.5 39 16.5s16 23.833 16 38.5c0 15.333 -5.33301 28.333 -16 39s-23.667 16 -39 16c-14.667 0 -27.5 -5.33301 -38.5 -16s-16.5 -23.667 -16.5 -39zM440 825
c0 -14.667 5.5 -27.5 16.5 -38.5s23.833 -16.5 38.5 -16.5c15.333 0 28.333 5.5 39 16.5s16 23.833 16 38.5c0 15.333 -5.33301 28.333 -16 39s-23.667 16 -39 16c-14.667 0 -27.5 -5.33301 -38.5 -16s-16.5 -23.667 -16.5 -39zM40 350c0 -50.667 8.83301 -98 26.5 -142
s42.5 -82.167 74.5 -114.5s69.667 -57.666 113 -75.999s90.333 -27.5 141 -27.5c51.333 0 98.5 9.16699 141.5 27.5s80.5 43.666 112.5 75.999s56.833 70.5 74.5 114.5s26.5 91.333 26.5 142c0 51.333 -8.83301 98.833 -26.5 142.5s-42.5 81.667 -74.5 114
s-69.5 57.666 -112.5 75.999s-90.167 27.5 -141.5 27.5c-50.667 0 -97.667 -9.16699 -141 -27.5s-81 -43.666 -113 -75.999s-56.833 -70.333 -74.5 -114s-26.5 -91.167 -26.5 -142.5zM130 350c0 52.667 11.5 99.667 34.5 141s54.5 74 94.5 98s85.333 36 136 36
c51.333 0 96.833 -12 136.5 -36s71 -56.667 94 -98s34.5 -88.333 34.5 -141s-11.5 -99.667 -34.5 -141s-54.333 -74 -94 -98s-85.167 -36 -136.5 -36c-50.667 0 -96 12 -136 36s-71.5 56.667 -94.5 98s-34.5 88.333 -34.5 141z" />
    <glyph glyph-name="uni00D7" unicode="&#xd7;" horiz-adv-x="596" 
d="M121 22l177 182l177 -182l56 56l-182 177l182 177l-56 56l-177 -182l-177 182l-56 -56l182 -177l-182 -177z" />
    <glyph glyph-name="Oslash" unicode="&#xd8;" horiz-adv-x="790" 
d="M688 750l-86.998 -102.999c-28.667 20 -60.334 35.5 -95.001 46.5s-71.667 16.5 -111 16.5c-50.667 0 -97.667 -9.16699 -141 -27.5s-81 -43.666 -113 -75.999s-56.833 -70.333 -74.5 -114s-26.5 -91.167 -26.5 -142.5c0 -48.667 8.33301 -94.334 25 -137.001
s39.667 -80 69 -112l-94 -111l58 -40l89 104c28.667 -20.667 60.667 -36.5 96 -47.5s72.666 -16.5 111.999 -16.5c51.333 0 98.5 9.16699 141.5 27.5s80.5 43.666 112.5 75.999s56.833 70.5 74.5 114.5s26.5 91.333 26.5 142c0 49.333 -8.5 95.5 -25.5 138.5
s-40.5 80.5 -70.5 112.5l93 109zM597.002 534.001c20 -24 35.499 -51.667 46.499 -83s16.5 -65 16.5 -101c0 -52.667 -11.5 -99.667 -34.5 -141s-54.333 -74 -94 -98s-85.167 -36 -136.5 -36c-28.667 0 -55.667 4 -81 12s-48.666 19.333 -69.999 34zM544.001 581.001
l-352 -413c-19.333 24 -34.5 51.5 -45.5 82.5s-16.5 64.167 -16.5 99.5c0 52.667 11.5 99.667 34.5 141s54.5 74 94.5 98s85.333 36 136 36c28 0 54.667 -3.83301 80 -11.5s48.333 -18.5 69 -32.5z" />
    <glyph glyph-name="uni00D9" unicode="&#xd9;" horiz-adv-x="626" 
d="M183 920l180 -150l45 30l-150 160zM75 700l-0.000976562 -470c0 -46 9.83301 -87.167 29.5 -123.5s47.334 -64.833 83.001 -85.5s77.5 -31 125.5 -31c48.667 0 90.667 10.333 126 31s62.833 49.167 82.5 85.5s29.5 77.5 29.5 123.5v470h-85v-470
c0 -48 -13 -86.667 -39 -116s-64 -44 -114 -44s-88 14.667 -114 44s-39 68 -39 116v470h-85z" />
    <glyph glyph-name="Uacute" unicode="&#xda;" horiz-adv-x="626" 
d="M443 920l-75 40l-150 -160l45 -30zM75 700l-0.000976562 -470c0 -46 9.83301 -87.167 29.5 -123.5s47.334 -64.833 83.001 -85.5s77.5 -31 125.5 -31c48.667 0 90.667 10.333 126 31s62.833 49.167 82.5 85.5s29.5 77.5 29.5 123.5v470h-85v-470
c0 -48 -13 -86.667 -39 -116s-64 -44 -114 -44s-88 14.667 -114 44s-39 68 -39 116v470h-85z" />
    <glyph glyph-name="uni00DB" unicode="&#xdb;" horiz-adv-x="626" 
d="M313 865l110 -95l50 40l-160 140l-160 -140l50 -40zM75 700l-0.000976562 -470c0 -46 9.83301 -87.167 29.5 -123.5s47.334 -64.833 83.001 -85.5s77.5 -31 125.5 -31c48.667 0 90.667 10.333 126 31s62.833 49.167 82.5 85.5s29.5 77.5 29.5 123.5v470h-85v-470
c0 -48 -13 -86.667 -39 -116s-64 -44 -114 -44s-88 14.667 -114 44s-39 68 -39 116v470h-85z" />
    <glyph glyph-name="uni00DC" unicode="&#xdc;" horiz-adv-x="626" 
d="M158 825c0 -14.667 5.5 -27.5 16.5 -38.5s23.833 -16.5 38.5 -16.5c15.333 0 28.333 5.5 39 16.5s16 23.833 16 38.5c0 15.333 -5.33301 28.333 -16 39s-23.667 16 -39 16c-14.667 0 -27.5 -5.33301 -38.5 -16s-16.5 -23.667 -16.5 -39zM358 825
c0 -14.667 5.5 -27.5 16.5 -38.5s23.833 -16.5 38.5 -16.5c15.333 0 28.333 5.5 39 16.5s16 23.833 16 38.5c0 15.333 -5.33301 28.333 -16 39s-23.667 16 -39 16c-14.667 0 -27.5 -5.33301 -38.5 -16s-16.5 -23.667 -16.5 -39zM75 700l-0.000976562 -470
c0 -46 9.83301 -87.167 29.5 -123.5s47.334 -64.833 83.001 -85.5s77.5 -31 125.5 -31c48.667 0 90.667 10.333 126 31s62.833 49.167 82.5 85.5s29.5 77.5 29.5 123.5v470h-85v-470c0 -48 -13 -86.667 -39 -116s-64 -44 -114 -44s-88 14.667 -114 44s-39 68 -39 116v470
h-85z" />
    <glyph glyph-name="uni00DD" unicode="&#xdd;" horiz-adv-x="561" 
d="M461 700l-181 -324l-180 324h-95l233 -399v-301h85v302l233 398h-95zM410 920l-74 40l-150 -160l44 -30z" />
    <glyph glyph-name="uni00DE" unicode="&#xde;" horiz-adv-x="550" 
d="M80 700v-700h85v140h105c45.333 0 85.833 8.5 121.5 25.5s64 41.333 85 73s31.5 68.834 31.5 111.501c0 43.333 -10.5 80.666 -31.5 111.999s-49.333 55.5 -85 72.5s-76.167 25.5 -121.5 25.5h-105v140h-85zM165 220v260h105c45.333 0 82.166 -10.833 110.499 -32.5
s42.5 -54.167 42.5 -97.5c0 -42.667 -14.167 -75 -42.5 -97s-65.166 -33 -110.499 -33h-105z" />
    <glyph glyph-name="uni00DF" unicode="&#xdf;" 
d="M272 65l0.00195312 -74.9971c45.333 0 87.166 10 125.499 30s69.166 47.667 92.499 83s35 76 35 122c0 51.333 -14.5 95.666 -43.5 132.999s-67.167 64.666 -114.5 81.999c78.667 24.667 118 80 118 166c0 54.667 -17.833 99 -53.5 133s-87.167 51 -154.5 51
c-34.667 0 -67 -7.83301 -97 -23.5s-54.167 -37.167 -72.5 -64.5s-27.5 -59.333 -27.5 -96v-606h80v606c0 25.333 5.66699 46 17 62s25.833 27.833 43.5 35.5s36.5 11.5 56.5 11.5c45.333 0 77.833 -11.5 97.5 -34.5s29.5 -51.167 29.5 -84.5
c0 -18.667 -5 -36.834 -15 -54.501s-26.167 -32.334 -48.5 -44.001s-51.833 -17.5 -88.5 -17.5v-20v-35v-20c36.667 0 69.5 -8.16699 98.5 -24.5s51.833 -37.5 68.5 -63.5s25 -53.333 25 -82c0 -35.333 -8.83301 -65.666 -26.5 -90.999s-39.667 -44.833 -66 -58.5
s-52.833 -20.5 -79.5 -20.5z" />
    <glyph glyph-name="uni00E0" unicode="&#xe0;" horiz-adv-x="485" 
d="M88 680l180 -150l45 30l-150 160zM111 352c11.333 8 28.833 18 52.5 30s51.834 18 84.501 18c25.333 0 47.833 -5.83301 67.5 -17.5s29.5 -29.167 29.5 -52.5v-77c-12.667 8.66699 -28.834 16.334 -48.501 23.001s-43.167 10 -70.5 10c-36.667 0 -69.834 -6 -99.501 -18
s-53.167 -29.833 -70.5 -53.5s-26 -53.5 -26 -89.5c0 -42 14.5 -75 43.5 -99s67.167 -36 114.5 -36c34.667 0 66 6.5 94 19.5s49 31.833 63 56.5v-66h80v330c0 44.667 -16.333 79.167 -49 103.5s-75.334 36.5 -128.001 36.5c-41.333 0 -76.666 -6.33301 -105.999 -19
s-52.666 -25.334 -69.999 -38.001zM111 135c0 28 9.66699 49.999 29 65.999s49.333 24 90 24c22 0 42.333 -2.16699 61 -6.5s36.667 -11.166 54 -20.499v-18c0 -42.667 -12.833 -73.167 -38.5 -91.5s-58.5 -27.5 -98.5 -27.5c-64.667 0 -97 24.667 -97 74z" />
    <glyph glyph-name="uni00E1" unicode="&#xe1;" horiz-adv-x="485" 
d="M408 680l-75 40l-150 -160l45 -30zM111 352c11.333 8 28.833 18 52.5 30s51.834 18 84.501 18c25.333 0 47.833 -5.83301 67.5 -17.5s29.5 -29.167 29.5 -52.5v-77c-12.667 8.66699 -28.834 16.334 -48.501 23.001s-43.167 10 -70.5 10c-36.667 0 -69.834 -6 -99.501 -18
s-53.167 -29.833 -70.5 -53.5s-26 -53.5 -26 -89.5c0 -42 14.5 -75 43.5 -99s67.167 -36 114.5 -36c34.667 0 66 6.5 94 19.5s49 31.833 63 56.5v-66h80v330c0 44.667 -16.333 79.167 -49 103.5s-75.334 36.5 -128.001 36.5c-41.333 0 -76.666 -6.33301 -105.999 -19
s-52.666 -25.334 -69.999 -38.001zM111 135c0 28 9.66699 49.999 29 65.999s49.333 24 90 24c22 0 42.333 -2.16699 61 -6.5s36.667 -11.166 54 -20.499v-18c0 -42.667 -12.833 -73.167 -38.5 -91.5s-58.5 -27.5 -98.5 -27.5c-64.667 0 -97 24.667 -97 74z" />
    <glyph glyph-name="acircumflex" unicode="&#xe2;" horiz-adv-x="485" 
d="M248 625l110 -95l50 40l-160 140l-160 -140l50 -40zM111 352c11.333 8 28.833 18 52.5 30s51.834 18 84.501 18c25.333 0 47.833 -5.83301 67.5 -17.5s29.5 -29.167 29.5 -52.5v-77c-12.667 8.66699 -28.834 16.334 -48.501 23.001s-43.167 10 -70.5 10
c-36.667 0 -69.834 -6 -99.501 -18s-53.167 -29.833 -70.5 -53.5s-26 -53.5 -26 -89.5c0 -42 14.5 -75 43.5 -99s67.167 -36 114.5 -36c34.667 0 66 6.5 94 19.5s49 31.833 63 56.5v-66h80v330c0 44.667 -16.333 79.167 -49 103.5s-75.334 36.5 -128.001 36.5
c-41.333 0 -76.666 -6.33301 -105.999 -19s-52.666 -25.334 -69.999 -38.001zM111 135c0 28 9.66699 49.999 29 65.999s49.333 24 90 24c22 0 42.333 -2.16699 61 -6.5s36.667 -11.166 54 -20.499v-18c0 -42.667 -12.833 -73.167 -38.5 -91.5s-58.5 -27.5 -98.5 -27.5
c-64.667 0 -97 24.667 -97 74z" />
    <glyph glyph-name="uni00E3" unicode="&#xe3;" horiz-adv-x="485" 
d="M83 567l53.0029 -37c0 5.33301 1.33301 12 4 20s7.66699 15.167 15 21.5s17.666 9.5 30.999 9.5c15.333 0 28.5 -3.83301 39.5 -11.5s22.833 -15.5 35.5 -23.5s28 -12 46 -12c25.333 0 47.333 7.5 66 22.5s32 31.833 40 50.5l-46 43c-20 -32 -38.667 -48 -56 -48
c-13.333 0 -24.333 2.33301 -33 7s-16.834 10.167 -24.501 16.5s-16.667 11.833 -27 16.5s-23.5 7 -39.5 7c-22.667 0 -44.334 -7.5 -65.001 -22.5s-33.667 -34.833 -39 -59.5zM111.003 352c11.333 8 28.833 18 52.5 30s51.834 18 84.501 18
c25.333 0 47.833 -5.83301 67.5 -17.5s29.5 -29.167 29.5 -52.5v-77c-12.667 8.66699 -28.834 16.334 -48.501 23.001s-43.167 10 -70.5 10c-36.667 0 -69.834 -6 -99.501 -18s-53.167 -29.833 -70.5 -53.5s-26 -53.5 -26 -89.5c0 -42 14.5 -75 43.5 -99
s67.167 -36 114.5 -36c34.667 0 66 6.5 94 19.5s49 31.833 63 56.5v-66h80v330c0 44.667 -16.333 79.167 -49 103.5s-75.334 36.5 -128.001 36.5c-41.333 0 -76.666 -6.33301 -105.999 -19s-52.666 -25.334 -69.999 -38.001zM111.003 135c0 28 9.66699 49.999 29 65.999
s49.333 24 90 24c22 0 42.333 -2.16699 61 -6.5s36.667 -11.166 54 -20.499v-18c0 -42.667 -12.833 -73.167 -38.5 -91.5s-58.5 -27.5 -98.5 -27.5c-64.667 0 -97 24.667 -97 74z" />
    <glyph glyph-name="adieresis" unicode="&#xe4;" horiz-adv-x="485" 
d="M93 585c0 -14.667 5.5 -27.5 16.5 -38.5s23.833 -16.5 38.5 -16.5c15.333 0 28.333 5.5 39 16.5s16 23.833 16 38.5c0 15.333 -5.33301 28.333 -16 39s-23.667 16 -39 16c-14.667 0 -27.5 -5.33301 -38.5 -16s-16.5 -23.667 -16.5 -39zM293 585
c0 -14.667 5.5 -27.5 16.5 -38.5s23.833 -16.5 38.5 -16.5c15.333 0 28.333 5.5 39 16.5s16 23.833 16 38.5c0 15.333 -5.33301 28.333 -16 39s-23.667 16 -39 16c-14.667 0 -27.5 -5.33301 -38.5 -16s-16.5 -23.667 -16.5 -39zM111 352c11.333 8 28.833 18 52.5 30
s51.834 18 84.501 18c25.333 0 47.833 -5.83301 67.5 -17.5s29.5 -29.167 29.5 -52.5v-77c-12.667 8.66699 -28.834 16.334 -48.501 23.001s-43.167 10 -70.5 10c-36.667 0 -69.834 -6 -99.501 -18s-53.167 -29.833 -70.5 -53.5s-26 -53.5 -26 -89.5
c0 -42 14.5 -75 43.5 -99s67.167 -36 114.5 -36c34.667 0 66 6.5 94 19.5s49 31.833 63 56.5v-66h80v330c0 44.667 -16.333 79.167 -49 103.5s-75.334 36.5 -128.001 36.5c-41.333 0 -76.666 -6.33301 -105.999 -19s-52.666 -25.334 -69.999 -38.001zM111 135
c0 28 9.66699 49.999 29 65.999s49.333 24 90 24c22 0 42.333 -2.16699 61 -6.5s36.667 -11.166 54 -20.499v-18c0 -42.667 -12.833 -73.167 -38.5 -91.5s-58.5 -27.5 -98.5 -27.5c-64.667 0 -97 24.667 -97 74z" />
    <glyph glyph-name="aring" unicode="&#xe5;" horiz-adv-x="485" 
d="M197 630c0 16.667 5.33301 29.667 16 39s22.334 14 35.001 14s24.334 -4.66699 35.001 -14s16 -22.333 16 -39s-5.33301 -29.667 -16 -39s-22.334 -14 -35.001 -14s-24.334 4.66699 -35.001 14s-16 22.333 -16 39zM146 630c0 -30 10.5 -54.167 31.5 -72.5
s44.5 -27.5 70.5 -27.5s49.5 9.16699 70.5 27.5s31.5 42.5 31.5 72.5s-10.5 54.167 -31.5 72.5s-44.5 27.5 -70.5 27.5s-49.5 -9.16699 -70.5 -27.5s-31.5 -42.5 -31.5 -72.5zM111 352c11.333 8 28.833 18 52.5 30s51.834 18 84.501 18c25.333 0 47.833 -5.83301 67.5 -17.5
s29.5 -29.167 29.5 -52.5v-77c-12.667 8.66699 -28.834 16.334 -48.501 23.001s-43.167 10 -70.5 10c-36.667 0 -69.834 -6 -99.501 -18s-53.167 -29.833 -70.5 -53.5s-26 -53.5 -26 -89.5c0 -42 14.5 -75 43.5 -99s67.167 -36 114.5 -36c34.667 0 66 6.5 94 19.5
s49 31.833 63 56.5v-66h80v330c0 44.667 -16.333 79.167 -49 103.5s-75.334 36.5 -128.001 36.5c-41.333 0 -76.666 -6.33301 -105.999 -19s-52.666 -25.334 -69.999 -38.001zM111 135c0 28 9.66699 49.999 29 65.999s49.333 24 90 24c22 0 42.333 -2.16699 61 -6.5
s36.667 -11.166 54 -20.499v-18c0 -42.667 -12.833 -73.167 -38.5 -91.5s-58.5 -27.5 -98.5 -27.5c-64.667 0 -97 24.667 -97 74z" />
    <glyph glyph-name="uni00E6" unicode="&#xe6;" horiz-adv-x="825" 
d="M111 352c11.333 8 28.8311 17.999 52.498 29.999s51.834 18 84.501 18c25.333 0 47.833 -7.5 67.5 -22.5s29.5 -34.167 29.5 -57.5v-67c-12.667 8.66699 -28.834 16.334 -48.501 23.001s-43.167 10 -70.5 10c-36.667 0 -69.834 -6 -99.501 -18
s-53.167 -29.833 -70.5 -53.5s-26 -53.5 -26 -89.5c0 -42 15.333 -75 46 -99s74.667 -36 132 -36c41.333 0 79 9.16699 113 27.5s55.667 44.5 65 78.5c17.333 -32.667 41.333 -58.5 72 -77.5s65.667 -28.5 105 -28.5c40 0 73.333 4.83301 100 14.5
s49.334 23.334 68.001 41.001s35.667 38.167 51 61.5l-65 41c-15.333 -24.667 -34.833 -44.667 -58.5 -60s-52.167 -23 -85.5 -23c-42 0 -76 12.5 -102 37.5s-40.667 60.833 -44 107.5h362c0.666992 4 1 8 1 12v12c0 48.667 -9.66699 90.5 -29 125.5
s-44.666 62.167 -75.999 81.5s-65.333 29 -102 29c-41.333 0 -77.5 -8.83301 -108.5 -26.5s-55.5 -42.167 -73.5 -73.5c-6.66699 32 -22.834 56.667 -48.501 74s-60.5 26 -104.5 26c-41.333 0 -76.666 -6.33301 -105.999 -19s-52.666 -25.334 -69.999 -38.001z
M110.998 134.999c0 28 9.66699 49.999 29 65.999s49.333 24 90 24c22 0 42.333 -2.16699 61 -6.5s36.667 -11.166 54 -20.499v-18c0 -42.667 -12.833 -73.167 -38.5 -91.5s-58.5 -27.5 -98.5 -27.5c-64.667 0 -97 24.667 -97 74zM702.998 277.998h-274.001
c4 37.333 19.833 67 47.5 89s59.834 33 96.501 33c40 0 70.667 -11.333 92 -34s34 -52 38 -88z" />
    <glyph glyph-name="ccedilla" unicode="&#xe7;" horiz-adv-x="478" 
d="M111 230c0 32 6.83008 60.501 20.4971 85.501s32.334 44.5 56.001 58.5s50.5 21 80.5 21c37.333 0 70.666 -8.33301 99.999 -25s49.333 -36.334 60 -59.001v100c-16 18.667 -38.833 33.167 -68.5 43.5s-60.167 15.5 -91.5 15.5c-44.667 0 -85 -10.333 -121 -31
s-64.5 -49 -85.5 -85s-31.5 -77.333 -31.5 -124c0 -41.333 8.33301 -78.666 25 -111.999s39.834 -60.666 69.501 -81.999s63.167 -35.333 100.5 -42l-53 -103c10.667 7.33301 21.834 12.166 33.501 14.499s19.834 3.5 24.501 3.5c33.333 0 50 -12 50 -36
c0 -12 -4 -21.667 -12 -29s-20.667 -11 -38 -11c-12.667 0 -22.834 2 -30.501 6s-16.167 10 -25.5 18l-34 -40c14 -14 27.833 -23.833 41.5 -29.5s29.834 -8.5 48.501 -8.5c27.333 0 51.833 8 73.5 24s32.5 39.333 32.5 70c0 24.667 -7.83301 43.167 -23.5 55.5
s-31.834 18.5 -48.501 18.5h-4.5h-4.5l24 43c29.333 1.33301 57.833 7 85.5 17s48.834 24 63.501 42v100c-10.667 -22.667 -30.667 -42.334 -60 -59.001s-62.666 -25 -99.999 -25c-30 0 -56.833 7.16699 -80.5 21.5s-42.334 33.833 -56.001 58.5s-20.5 53 -20.5 85z" />
    <glyph glyph-name="uni00E8" unicode="&#xe8;" horiz-adv-x="515" 
d="M123 690l180 -150l45 30l-150 160zM117 210l361.999 -0.000976562c0.666992 4 1 8 1 12v12c0 48.667 -9 90.5 -27 125.5s-43.333 62.167 -76 81.5s-70.667 29 -114 29c-39.333 0 -74.833 -8 -106.5 -24s-57.5 -38.333 -77.5 -67s-33.333 -62 -40 -100
c-1.33301 -8 -2.33301 -16 -3 -24s-1 -16.333 -1 -25c0 -46 9.5 -87.167 28.5 -123.5s45 -64.833 78 -85.5s70.167 -31 111.5 -31c40 0 73.333 4.83301 100 14.5s49.334 23.334 68.001 41.001s35.667 38.167 51 61.5l-65 41c-15.333 -24.667 -34.833 -44.667 -58.5 -60
s-52.167 -23 -85.5 -23c-42 0 -76 12.5 -102 37.5s-40.667 60.833 -44 107.5zM118.999 277.999c4 37.333 19.832 67 47.499 89s59.834 33 96.501 33c40 0 70.667 -11.333 92 -34s34 -52 38 -88h-274z" />
    <glyph glyph-name="eacute" unicode="&#xe9;" horiz-adv-x="515" 
d="M423 690l-75 40l-150 -160l45 -30zM117 210l361.999 -0.000976562c0.666992 4 1 8 1 12v12c0 48.667 -9 90.5 -27 125.5s-43.333 62.167 -76 81.5s-70.667 29 -114 29c-39.333 0 -74.833 -8 -106.5 -24s-57.5 -38.333 -77.5 -67s-33.333 -62 -40 -100
c-1.33301 -8 -2.33301 -16 -3 -24s-1 -16.333 -1 -25c0 -46 9.5 -87.167 28.5 -123.5s45 -64.833 78 -85.5s70.167 -31 111.5 -31c40 0 73.333 4.83301 100 14.5s49.334 23.334 68.001 41.001s35.667 38.167 51 61.5l-65 41c-15.333 -24.667 -34.833 -44.667 -58.5 -60
s-52.167 -23 -85.5 -23c-42 0 -76 12.5 -102 37.5s-40.667 60.833 -44 107.5zM118.999 277.999c4 37.333 19.832 67 47.499 89s59.834 33 96.501 33c40 0 70.667 -11.333 92 -34s34 -52 38 -88h-274z" />
    <glyph glyph-name="uni00EA" unicode="&#xea;" horiz-adv-x="515" 
d="M263 625l110 -95l50 40l-160 140l-160 -140l50 -40zM117 210l361.999 -0.000976562c0.666992 4 1 8 1 12v12c0 48.667 -9 90.5 -27 125.5s-43.333 62.167 -76 81.5s-70.667 29 -114 29c-39.333 0 -74.833 -8 -106.5 -24s-57.5 -38.333 -77.5 -67s-33.333 -62 -40 -100
c-1.33301 -8 -2.33301 -16 -3 -24s-1 -16.333 -1 -25c0 -46 9.5 -87.167 28.5 -123.5s45 -64.833 78 -85.5s70.167 -31 111.5 -31c40 0 73.333 4.83301 100 14.5s49.334 23.334 68.001 41.001s35.667 38.167 51 61.5l-65 41c-15.333 -24.667 -34.833 -44.667 -58.5 -60
s-52.167 -23 -85.5 -23c-42 0 -76 12.5 -102 37.5s-40.667 60.833 -44 107.5zM118.999 277.999c4 37.333 19.832 67 47.499 89s59.834 33 96.501 33c40 0 70.667 -11.333 92 -34s34 -52 38 -88h-274z" />
    <glyph glyph-name="edieresis" unicode="&#xeb;" horiz-adv-x="515" 
d="M108 585c0 -14.667 5.5 -27.5 16.5 -38.5s23.833 -16.5 38.5 -16.5c15.333 0 28.333 5.5 39 16.5s16 23.833 16 38.5c0 15.333 -5.33301 28.333 -16 39s-23.667 16 -39 16c-14.667 0 -27.5 -5.33301 -38.5 -16s-16.5 -23.667 -16.5 -39zM308 585
c0 -14.667 5.5 -27.5 16.5 -38.5s23.833 -16.5 38.5 -16.5c15.333 0 28.333 5.5 39 16.5s16 23.833 16 38.5c0 15.333 -5.33301 28.333 -16 39s-23.667 16 -39 16c-14.667 0 -27.5 -5.33301 -38.5 -16s-16.5 -23.667 -16.5 -39zM117 210l361.999 -0.000976562
c0.666992 4 1 8 1 12v12c0 48.667 -9 90.5 -27 125.5s-43.333 62.167 -76 81.5s-70.667 29 -114 29c-39.333 0 -74.833 -8 -106.5 -24s-57.5 -38.333 -77.5 -67s-33.333 -62 -40 -100c-1.33301 -8 -2.33301 -16 -3 -24s-1 -16.333 -1 -25c0 -46 9.5 -87.167 28.5 -123.5
s45 -64.833 78 -85.5s70.167 -31 111.5 -31c40 0 73.333 4.83301 100 14.5s49.334 23.334 68.001 41.001s35.667 38.167 51 61.5l-65 41c-15.333 -24.667 -34.833 -44.667 -58.5 -60s-52.167 -23 -85.5 -23c-42 0 -76 12.5 -102 37.5s-40.667 60.833 -44 107.5z
M118.999 277.999c4 37.333 19.832 67 47.499 89s59.834 33 96.501 33c40 0 70.667 -11.333 92 -34s34 -52 38 -88h-274z" />
    <glyph glyph-name="igrave" unicode="&#xec;" horiz-adv-x="260" 
d="M-30 700l180 -150l45 30l-150 160zM90 460v-460h80v460h-80z" />
    <glyph glyph-name="uni00ED" unicode="&#xed;" horiz-adv-x="260" 
d="M290 700l-75 40l-150 -160l45 -30zM90 460v-460h80v460h-80z" />
    <glyph glyph-name="uni00EE" unicode="&#xee;" horiz-adv-x="260" 
d="M130 635l110 -95l50 40l-160 140l-160 -140l50 -40zM90 460v-460h80v460h-80z" />
    <glyph glyph-name="uni00EF" unicode="&#xef;" horiz-adv-x="260" 
d="M-25 615c0 -14.667 5.5 -27.5 16.5 -38.5s23.833 -16.5 38.5 -16.5c15.333 0 28.333 5.5 39 16.5s16 23.833 16 38.5c0 15.333 -5.33301 28.333 -16 39s-23.667 16 -39 16c-14.667 0 -27.5 -5.33301 -38.5 -16s-16.5 -23.667 -16.5 -39zM175 615
c0 -14.667 5.5 -27.5 16.5 -38.5s23.833 -16.5 38.5 -16.5c15.333 0 28.333 5.5 39 16.5s16 23.833 16 38.5c0 15.333 -5.33301 28.333 -16 39s-23.667 16 -39 16c-14.667 0 -27.5 -5.33301 -38.5 -16s-16.5 -23.667 -16.5 -39zM90 460v-460h80v460h-80z" />
    <glyph glyph-name="uni00F0" unicode="&#xf0;" horiz-adv-x="576" 
d="M155 520l119.999 -0.00195312l61 -79c-10.667 6.66699 -22.667 11 -36 13s-27.666 3 -42.999 3c-38 0 -72.667 -10 -104 -30s-56.333 -47 -75 -81s-28 -72.667 -28 -116c0 -48 10.5 -90 31.5 -126s49.5 -64 85.5 -84s76.333 -30 121 -30c45.333 0 85.833 10 121.5 30
s64 48 85 84s31.5 78 31.5 126c0 28.667 -4 55.334 -12 80.001s-18.667 46.334 -32 65.001l-105 145h78v65h-125l-84 115h-107l87 -115h-71v-65zM444.999 229.998c0 -32 -6.83301 -60.167 -20.5 -84.5s-32.334 -43.5 -56.001 -57.5s-50.5 -21 -80.5 -21s-56.833 7 -80.5 21
s-42.334 33.167 -56.001 57.5s-20.5 52.5 -20.5 84.5s6.83301 60.5 20.5 85.5s32.334 44.5 56.001 58.5s50.5 21 80.5 21s56.833 -7 80.5 -21s42.334 -33.5 56.001 -58.5s20.5 -53.5 20.5 -85.5z" />
    <glyph glyph-name="uni00F1" unicode="&#xf1;" horiz-adv-x="525" 
d="M98 567l53.0029 -37c0 5.33301 1.33301 12 4 20s7.66699 15.167 15 21.5s17.666 9.5 30.999 9.5c15.333 0 28.5 -3.83301 39.5 -11.5s22.833 -15.5 35.5 -23.5s28 -12 46 -12c25.333 0 47.333 7.5 66 22.5s32 31.833 40 50.5l-46 43c-20 -32 -38.667 -48 -56 -48
c-13.333 0 -24.333 2.33301 -33 7s-16.834 10.167 -24.501 16.5s-16.667 11.833 -27 16.5s-23.5 7 -39.5 7c-22.667 0 -44.334 -7.5 -65.001 -22.5s-33.667 -34.833 -39 -59.5zM370.003 280l-0.000976562 -279.998h80v290c0 59.333 -14.5 104.166 -43.5 134.499
s-67.167 45.5 -114.5 45.5c-28 0 -53.833 -6.33301 -77.5 -19s-43.5 -30.334 -59.5 -53.001v62h-80v-460h80v280c0 33.333 10.833 60.833 32.5 82.5s49.834 32.5 84.501 32.5c65.333 0 98 -38.333 98 -115z" />
    <glyph glyph-name="ograve" unicode="&#xf2;" horiz-adv-x="546" 
d="M113 700l180 -150l45 30l-150 160zM116 230c0 32 6.83301 60.5 20.5 85.5s32.334 44.5 56.001 58.5s50.5 21 80.5 21s56.833 -7 80.5 -21s42.334 -33.5 56.001 -58.5s20.5 -53.5 20.5 -85.5s-6.83301 -60.333 -20.5 -85s-32.334 -44.167 -56.001 -58.5
s-50.5 -21.5 -80.5 -21.5s-56.833 7.16699 -80.5 21.5s-42.334 33.833 -56.001 58.5s-20.5 53 -20.5 85zM35 230c0 -46 10.5 -87.167 31.5 -123.5s49.5 -64.833 85.5 -85.5s76.333 -31 121 -31c45.333 0 85.833 10.333 121.5 31s64 49.167 85 85.5s31.5 77.5 31.5 123.5
c0 46.667 -10.5 88 -31.5 124s-49.333 64.333 -85 85s-76.167 31 -121.5 31c-44.667 0 -85 -10.333 -121 -31s-64.5 -49 -85.5 -85s-31.5 -77.333 -31.5 -124z" />
    <glyph glyph-name="uni00F3" unicode="&#xf3;" horiz-adv-x="546" 
d="M433 700l-75 40l-150 -160l45 -30zM116 230c0 32 6.83301 60.5 20.5 85.5s32.334 44.5 56.001 58.5s50.5 21 80.5 21s56.833 -7 80.5 -21s42.334 -33.5 56.001 -58.5s20.5 -53.5 20.5 -85.5s-6.83301 -60.333 -20.5 -85s-32.334 -44.167 -56.001 -58.5
s-50.5 -21.5 -80.5 -21.5s-56.833 7.16699 -80.5 21.5s-42.334 33.833 -56.001 58.5s-20.5 53 -20.5 85zM35 230c0 -46 10.5 -87.167 31.5 -123.5s49.5 -64.833 85.5 -85.5s76.333 -31 121 -31c45.333 0 85.833 10.333 121.5 31s64 49.167 85 85.5s31.5 77.5 31.5 123.5
c0 46.667 -10.5 88 -31.5 124s-49.333 64.333 -85 85s-76.167 31 -121.5 31c-44.667 0 -85 -10.333 -121 -31s-64.5 -49 -85.5 -85s-31.5 -77.333 -31.5 -124z" />
    <glyph glyph-name="uni00F4" unicode="&#xf4;" horiz-adv-x="546" 
d="M273 645l110 -95l50 40l-160 140l-160 -140l50 -40zM116 230c0 32 6.83301 60.5 20.5 85.5s32.334 44.5 56.001 58.5s50.5 21 80.5 21s56.833 -7 80.5 -21s42.334 -33.5 56.001 -58.5s20.5 -53.5 20.5 -85.5s-6.83301 -60.333 -20.5 -85s-32.334 -44.167 -56.001 -58.5
s-50.5 -21.5 -80.5 -21.5s-56.833 7.16699 -80.5 21.5s-42.334 33.833 -56.001 58.5s-20.5 53 -20.5 85zM35 230c0 -46 10.5 -87.167 31.5 -123.5s49.5 -64.833 85.5 -85.5s76.333 -31 121 -31c45.333 0 85.833 10.333 121.5 31s64 49.167 85 85.5s31.5 77.5 31.5 123.5
c0 46.667 -10.5 88 -31.5 124s-49.333 64.333 -85 85s-76.167 31 -121.5 31c-44.667 0 -85 -10.333 -121 -31s-64.5 -49 -85.5 -85s-31.5 -77.333 -31.5 -124z" />
    <glyph glyph-name="uni00F5" unicode="&#xf5;" horiz-adv-x="546" 
d="M108 567l53.0029 -37c0 5.33301 1.33301 12 4 20s7.66699 15.167 15 21.5s17.666 9.5 30.999 9.5c15.333 0 28.5 -3.83301 39.5 -11.5s22.833 -15.5 35.5 -23.5s28 -12 46 -12c25.333 0 47.333 7.5 66 22.5s32 31.833 40 50.5l-46 43c-20 -32 -38.667 -48 -56 -48
c-13.333 0 -24.333 2.33301 -33 7s-16.834 10.167 -24.501 16.5s-16.667 11.833 -27 16.5s-23.5 7 -39.5 7c-22.667 0 -44.334 -7.5 -65.001 -22.5s-33.667 -34.833 -39 -59.5zM116.003 230c0 32 6.83301 60.5 20.5 85.5s32.334 44.5 56.001 58.5s50.5 21 80.5 21
s56.833 -7 80.5 -21s42.334 -33.5 56.001 -58.5s20.5 -53.5 20.5 -85.5s-6.83301 -60.333 -20.5 -85s-32.334 -44.167 -56.001 -58.5s-50.5 -21.5 -80.5 -21.5s-56.833 7.16699 -80.5 21.5s-42.334 33.833 -56.001 58.5s-20.5 53 -20.5 85zM35.0029 230
c0 -46 10.5 -87.167 31.5 -123.5s49.5 -64.833 85.5 -85.5s76.333 -31 121 -31c45.333 0 85.833 10.333 121.5 31s64 49.167 85 85.5s31.5 77.5 31.5 123.5c0 46.667 -10.5 88 -31.5 124s-49.333 64.333 -85 85s-76.167 31 -121.5 31c-44.667 0 -85 -10.333 -121 -31
s-64.5 -49 -85.5 -85s-31.5 -77.333 -31.5 -124z" />
    <glyph glyph-name="uni00F6" unicode="&#xf6;" horiz-adv-x="546" 
d="M118 615c0 -14.667 5.5 -27.5 16.5 -38.5s23.833 -16.5 38.5 -16.5c15.333 0 28.333 5.5 39 16.5s16 23.833 16 38.5c0 15.333 -5.33301 28.333 -16 39s-23.667 16 -39 16c-14.667 0 -27.5 -5.33301 -38.5 -16s-16.5 -23.667 -16.5 -39zM318 615
c0 -14.667 5.5 -27.5 16.5 -38.5s23.833 -16.5 38.5 -16.5c15.333 0 28.333 5.5 39 16.5s16 23.833 16 38.5c0 15.333 -5.33301 28.333 -16 39s-23.667 16 -39 16c-14.667 0 -27.5 -5.33301 -38.5 -16s-16.5 -23.667 -16.5 -39zM116 230c0 32 6.83301 60.5 20.5 85.5
s32.334 44.5 56.001 58.5s50.5 21 80.5 21s56.833 -7 80.5 -21s42.334 -33.5 56.001 -58.5s20.5 -53.5 20.5 -85.5s-6.83301 -60.333 -20.5 -85s-32.334 -44.167 -56.001 -58.5s-50.5 -21.5 -80.5 -21.5s-56.833 7.16699 -80.5 21.5s-42.334 33.833 -56.001 58.5
s-20.5 53 -20.5 85zM35 230c0 -46 10.5 -87.167 31.5 -123.5s49.5 -64.833 85.5 -85.5s76.333 -31 121 -31c45.333 0 85.833 10.333 121.5 31s64 49.167 85 85.5s31.5 77.5 31.5 123.5c0 46.667 -10.5 88 -31.5 124s-49.333 64.333 -85 85s-76.167 31 -121.5 31
c-44.667 0 -85 -10.333 -121 -31s-64.5 -49 -85.5 -85s-31.5 -77.333 -31.5 -124z" />
    <glyph glyph-name="divide" unicode="&#xf7;" horiz-adv-x="623" 
d="M60 225h500v80h-500v-80zM255 70c0 -14.667 5.5 -27.5 16.5 -38.5s23.833 -16.5 38.5 -16.5c15.333 0 28.333 5.5 39 16.5s16 23.833 16 38.5c0 15.333 -5.33301 28.333 -16 39s-23.667 16 -39 16c-14.667 0 -27.5 -5.33301 -38.5 -16s-16.5 -23.667 -16.5 -39zM255 450
c0 -14.667 5.5 -27.5 16.5 -38.5s23.833 -16.5 38.5 -16.5c15.333 0 28.333 5.5 39 16.5s16 23.833 16 38.5c0 15.333 -5.33301 28.333 -16 39s-23.667 16 -39 16c-14.667 0 -27.5 -5.33301 -38.5 -16s-16.5 -23.667 -16.5 -39z" />
    <glyph glyph-name="oslash" unicode="&#xf8;" horiz-adv-x="546" 
d="M440 500l-45.999 -61c-36 20.667 -76.333 31 -121 31s-85 -10.333 -121 -31s-64.5 -49 -85.5 -85s-31.5 -77.333 -31.5 -124c0 -36 6.5 -69 19.5 -99s30.833 -55.667 53.5 -77l-58 -78l45 -20l51 68c37.333 -22.667 79.666 -34 126.999 -34
c45.333 0 85.833 10.333 121.5 31s64 49.167 85 85.5s31.5 77.5 31.5 123.5c0 37.333 -7 71.5 -21 102.5s-33 57.167 -57 78.5l52 69zM386.001 347c13.333 -14.667 24.001 -32 32.001 -52s12 -41.667 12 -65c0 -32 -6.83301 -60.333 -20.5 -85
s-32.334 -44.167 -56.001 -58.5s-50.5 -21.5 -80.5 -21.5s-57 7.33301 -81 22zM348.002 377l-193.001 -260c-26 30 -39 67.667 -39 113c0 32 6.83301 60.5 20.5 85.5s32.334 44.5 56.001 58.5s50.5 21 80.5 21c28 0 53 -6 75 -18z" />
    <glyph glyph-name="uni00F9" unicode="&#xf9;" horiz-adv-x="525" 
d="M142 700l180 -150l46 30l-150 160zM155 180l-0.000976562 279.998h-80v-290c0 -59.333 14.5 -104.166 43.5 -134.499s67.167 -45.5 114.5 -45.5c28 0 53.833 6.33301 77.5 19s43.5 30.334 59.5 53.001v-62h80v460h-80v-280c0 -32.667 -10.667 -60 -32 -82
s-49.666 -33 -84.999 -33c-65.333 0 -98 38.333 -98 115z" />
    <glyph glyph-name="uni00FA" unicode="&#xfa;" horiz-adv-x="525" 
d="M382 700l-74 40l-150 -160l44 -30zM155 180l-0.000976562 279.998h-80v-290c0 -59.333 14.5 -104.166 43.5 -134.499s67.167 -45.5 114.5 -45.5c28 0 53.833 6.33301 77.5 19s43.5 30.334 59.5 53.001v-62h80v460h-80v-280c0 -32.667 -10.667 -60 -32 -82
s-49.666 -33 -84.999 -33c-65.333 0 -98 38.333 -98 115z" />
    <glyph glyph-name="ucircumflex" unicode="&#xfb;" horiz-adv-x="525" 
d="M262 645l110 -95l50 40l-160 140l-160 -140l50 -40zM155 180l-0.000976562 279.998h-80v-290c0 -59.333 14.5 -104.166 43.5 -134.499s67.167 -45.5 114.5 -45.5c28 0 53.833 6.33301 77.5 19s43.5 30.334 59.5 53.001v-62h80v460h-80v-280
c0 -32.667 -10.667 -60 -32 -82s-49.666 -33 -84.999 -33c-65.333 0 -98 38.333 -98 115z" />
    <glyph glyph-name="uni00FC" unicode="&#xfc;" horiz-adv-x="525" 
d="M108 605c0 -14.667 5.33301 -27.5 16 -38.5s23.334 -16.5 38.001 -16.5c15.333 0 28.5 5.5 39.5 16.5s16.5 23.833 16.5 38.5c0 15.333 -5.5 28.333 -16.5 39s-24.167 16 -39.5 16c-14.667 0 -27.334 -5.33301 -38.001 -16s-16 -23.667 -16 -39zM308 605
c0 -14.667 5.33301 -27.5 16 -38.5s23.334 -16.5 38.001 -16.5c15.333 0 28.5 5.5 39.5 16.5s16.5 23.833 16.5 38.5c0 15.333 -5.5 28.333 -16.5 39s-24.167 16 -39.5 16c-14.667 0 -27.334 -5.33301 -38.001 -16s-16 -23.667 -16 -39zM155 180l-0.000976562 279.998h-80
v-290c0 -59.333 14.5 -104.166 43.5 -134.499s67.167 -45.5 114.5 -45.5c28 0 53.833 6.33301 77.5 19s43.5 30.334 59.5 53.001v-62h80v460h-80v-280c0 -32.667 -10.667 -60 -32 -82s-49.666 -33 -84.999 -33c-65.333 0 -98 38.333 -98 115z" />
    <glyph glyph-name="uni00FD" unicode="&#xfd;" horiz-adv-x="440" 
d="M350 700l-75 40l-150 -160l45 -30zM440 460h-90l-126 -317l-129 317h-95l176 -395l-126 -285h90z" />
    <glyph glyph-name="uni00FE" unicode="&#xfe;" 
d="M454 230c0 -35.333 -7.16699 -65.333 -21.5 -90s-33.333 -43.334 -57 -56.001s-49.834 -19 -78.501 -19c-23.333 0 -46.333 6.33301 -69 19s-41.334 31.334 -56.001 56.001s-22 54.667 -22 90s7.33301 65.333 22 90s33.334 43.334 56.001 56.001s45.667 19 69 19
c28.667 0 54.834 -6.33301 78.501 -19s42.667 -31.334 57 -56.001s21.5 -54.667 21.5 -90zM535 230c0 50 -10.333 92.833 -31 128.5s-48.167 63.167 -82.5 82.5s-72.5 29 -114.5 29c-34 0 -64.333 -7.66699 -91 -23s-48.667 -37.333 -66 -66v399h-80v-1000h80v299
c17.333 -28.667 39.333 -50.667 66 -66s57 -23 91 -23c42 0 80.167 9.66699 114.5 29s61.833 47 82.5 83s31 78.667 31 128z" />
    <glyph glyph-name="uni00FF" unicode="&#xff;" horiz-adv-x="440" 
d="M65 585c0 -14.667 5.5 -27.5 16.5 -38.5s23.833 -16.5 38.5 -16.5c15.333 0 28.333 5.5 39 16.5s16 23.833 16 38.5c0 15.333 -5.33301 28.333 -16 39s-23.667 16 -39 16c-14.667 0 -27.5 -5.33301 -38.5 -16s-16.5 -23.667 -16.5 -39zM265 585
c0 -14.667 5.5 -27.5 16.5 -38.5s23.833 -16.5 38.5 -16.5c15.333 0 28.333 5.5 39 16.5s16 23.833 16 38.5c0 15.333 -5.33301 28.333 -16 39s-23.667 16 -39 16c-14.667 0 -27.5 -5.33301 -38.5 -16s-16.5 -23.667 -16.5 -39zM440 460h-90l-126 -317l-129 317h-95
l176 -395l-126 -285h90z" />
    <glyph glyph-name="uni0100" unicode="&#x100;" horiz-adv-x="660" 
d="M155 795h350v75h-350v-75zM189 210h282l89 -210h95l-325 735l-325 -735h95zM223 290l107 252l107 -252h-214z" />
    <glyph glyph-name="amacron" unicode="&#x101;" horiz-adv-x="485" 
d="M73 550h350v75h-350v-75zM111 352c11.333 8 28.833 18 52.5 30s51.834 18 84.501 18c25.333 0 47.833 -5.83301 67.5 -17.5s29.5 -29.167 29.5 -52.5v-77c-12.667 8.66699 -28.834 16.334 -48.501 23.001s-43.167 10 -70.5 10c-36.667 0 -69.834 -6 -99.501 -18
s-53.167 -29.833 -70.5 -53.5s-26 -53.5 -26 -89.5c0 -42 14.5 -75 43.5 -99s67.167 -36 114.5 -36c34.667 0 66 6.5 94 19.5s49 31.833 63 56.5v-66h80v330c0 44.667 -16.333 79.167 -49 103.5s-75.334 36.5 -128.001 36.5c-41.333 0 -76.666 -6.33301 -105.999 -19
s-52.666 -25.334 -69.999 -38.001zM111 135c0 28 9.66699 49.999 29 65.999s49.333 24 90 24c22 0 42.333 -2.16699 61 -6.5s36.667 -11.166 54 -20.499v-18c0 -42.667 -12.833 -73.167 -38.5 -91.5s-58.5 -27.5 -98.5 -27.5c-64.667 0 -97 24.667 -97 74z" />
    <glyph glyph-name="uni0102" unicode="&#x102;" horiz-adv-x="660" 
d="M172 935c0 -22.667 5.83398 -44.834 17.501 -66.501s29.334 -39.334 53.001 -53.001s52.834 -20.5 87.501 -20.5c35.333 0 64.666 6.83301 87.999 20.5s40.833 31.334 52.5 53.001s17.5 43.834 17.5 66.501h-71c0 -8.66699 -2.33301 -18.834 -7 -30.501
s-13.334 -22 -26.001 -31s-30.667 -13.5 -54 -13.5s-41.333 4.5 -54 13.5s-21.334 19.333 -26.001 31s-7 21.834 -7 30.501h-71zM189.001 210h282l89 -210h95l-325 735l-325 -735h95zM223.001 290l107 252l107 -252h-214z" />
    <glyph glyph-name="uni0103" unicode="&#x103;" horiz-adv-x="485" 
d="M90 670c0 -22.667 5.83398 -44.834 17.501 -66.501s29.334 -39.334 53.001 -53.001s52.834 -20.5 87.501 -20.5c35.333 0 64.666 6.83301 87.999 20.5s40.833 31.334 52.5 53.001s17.5 43.834 17.5 66.501h-71c0 -8.66699 -2.33301 -18.834 -7 -30.501
s-13.334 -22 -26.001 -31s-30.667 -13.5 -54 -13.5s-41.333 4.5 -54 13.5s-21.334 19.333 -26.001 31s-7 21.834 -7 30.501h-71zM111.001 352c11.333 8 28.833 18 52.5 30s51.834 18 84.501 18c25.333 0 47.833 -5.83301 67.5 -17.5s29.5 -29.167 29.5 -52.5v-77
c-12.667 8.66699 -28.834 16.334 -48.501 23.001s-43.167 10 -70.5 10c-36.667 0 -69.834 -6 -99.501 -18s-53.167 -29.833 -70.5 -53.5s-26 -53.5 -26 -89.5c0 -42 14.5 -75 43.5 -99s67.167 -36 114.5 -36c34.667 0 66 6.5 94 19.5s49 31.833 63 56.5v-66h80v330
c0 44.667 -16.333 79.167 -49 103.5s-75.334 36.5 -128.001 36.5c-41.333 0 -76.666 -6.33301 -105.999 -19s-52.666 -25.334 -69.999 -38.001zM111.001 135c0 28 9.66699 49.999 29 65.999s49.333 24 90 24c22 0 42.333 -2.16699 61 -6.5s36.667 -11.166 54 -20.499v-18
c0 -42.667 -12.833 -73.167 -38.5 -91.5s-58.5 -27.5 -98.5 -27.5c-64.667 0 -97 24.667 -97 74z" />
    <glyph glyph-name="uni0104" unicode="&#x104;" horiz-adv-x="660" 
d="M660 -130c-6.66699 -6.66699 -13.332 -11.6689 -19.999 -15.002s-16.667 -5 -30 -5c-14.667 0 -26.334 3.83301 -35.001 11.5s-13 20.5 -13 38.5c0 18.667 9 37.334 27 56.001s40 33.334 66 44.001l-325 735l-325 -735h95l89 210h282l89 -210h11
c-24.667 -16.667 -45.667 -35 -63 -55s-26 -41.667 -26 -65c0 -29.333 10 -53.333 30 -72s51 -28 93 -28c21.333 0 39.5 4.16699 54.5 12.5s26.167 17.5 33.5 27.5zM223.002 289.998l107 252l107 -252h-214z" />
    <glyph glyph-name="aogonek" unicode="&#x105;" horiz-adv-x="485" 
d="M430 -130c-6.66699 -6.66699 -13.333 -11.668 -20 -15.001s-16.667 -5 -30 -5c-14.667 0 -26.334 3.83301 -35.001 11.5s-13 20.5 -13 38.5c0 18.667 9 37.334 27 56.001s40 33.334 66 44.001v330c0 44.667 -16.333 79.167 -49 103.5s-75.334 36.5 -128.001 36.5
c-41.333 0 -76.666 -6.33301 -105.999 -19s-52.666 -25.334 -69.999 -38.001l39 -61c11.333 8 28.833 18 52.5 30s51.834 18 84.501 18c25.333 0 47.833 -5.83301 67.5 -17.5s29.5 -29.167 29.5 -52.5v-77c-12.667 8.66699 -28.834 16.334 -48.501 23.001
s-43.167 10 -70.5 10c-60.667 0 -108.5 -13.5 -143.5 -40.5s-52.5 -64.833 -52.5 -113.5c0 -31.333 7.16699 -57.5 21.5 -78.5s33.5 -36.833 57.5 -47.5s50.333 -16 79 -16c34.667 0 66 6.5 94 19.5s49 31.833 63 56.5v-63c-26 -16.667 -48 -35.334 -66 -56.001
s-27 -43 -27 -67c0 -29.333 10 -53.333 30 -72s51 -28 93 -28c21.333 0 39.5 4.16699 54.5 12.5s26.167 17.5 33.5 27.5zM111.001 134.999c0 28 9.66699 49.999 29 65.999s49.333 24 90 24c22 0 42.333 -2.16699 61 -6.5s36.667 -11.166 54 -20.499v-18
c0 -42.667 -12.833 -73.167 -38.5 -91.5s-58.5 -27.5 -98.5 -27.5c-26.667 0 -49.5 6.16699 -68.5 18.5s-28.5 30.833 -28.5 55.5z" />
    <glyph glyph-name="uni0106" unicode="&#x106;" horiz-adv-x="685" 
d="M520 920l-75 40l-150 -160l45 -30zM130 350c0 54.667 12.167 102.501 36.5 143.501s56.166 73.167 95.499 96.5s82 35 128 35c49.333 0 93 -9.5 131 -28.5s69.333 -44.167 94 -75.5v112c-29.333 26 -61.333 45.333 -96 58s-77.667 19 -129 19
c-48.667 0 -94.167 -8.83301 -136.5 -26.5s-79.5 -42.667 -111.5 -75s-57 -70.5 -75 -114.5s-27 -92 -27 -144s9 -100 27 -144s43 -82.167 75 -114.5s69.167 -57.333 111.5 -75s87.833 -26.5 136.5 -26.5c51.333 0 94.333 6.33301 129 19s66.667 32 96 58v112
c-24.667 -30.667 -56 -55.667 -94 -75s-81.667 -29 -131 -29c-46 0 -88.667 11.667 -128 35s-71.166 55.666 -95.499 96.999s-36.5 89 -36.5 143z" />
    <glyph glyph-name="uni0107" unicode="&#x107;" horiz-adv-x="478" 
d="M398 680l-75 40l-150 -160l45 -30zM111 230c0 32 6.83301 60.502 20.5 85.502s32.334 44.5 56.001 58.5s50.5 21 80.5 21c37.333 0 70.666 -8.33301 99.999 -25s49.333 -36.334 60 -59.001v100c-16 18.667 -38.833 33.167 -68.5 43.5s-60.167 15.5 -91.5 15.5
c-44.667 0 -85 -10.333 -121 -31s-64.5 -49 -85.5 -85s-31.5 -77.333 -31.5 -124c0 -46 10.5 -87.167 31.5 -123.5s49.5 -64.833 85.5 -85.5s76.333 -31 121 -31c31.333 0 61.833 5.16699 91.5 15.5s52.5 24.833 68.5 43.5v100c-10.667 -22.667 -30.667 -42.334 -60 -59.001
s-62.666 -25 -99.999 -25c-30 0 -56.833 7.16699 -80.5 21.5s-42.334 33.833 -56.001 58.5s-20.5 53 -20.5 85z" />
    <glyph glyph-name="uni0108" unicode="&#x108;" horiz-adv-x="685" 
d="M390 865l110 -95l50 40l-160 140l-160 -140l50 -40zM130 350c0 54.667 12.167 102.501 36.5 143.501s56.166 73.167 95.499 96.5s82 35 128 35c49.333 0 93 -9.5 131 -28.5s69.333 -44.167 94 -75.5v112c-29.333 26 -61.333 45.333 -96 58s-77.667 19 -129 19
c-48.667 0 -94.167 -8.83301 -136.5 -26.5s-79.5 -42.667 -111.5 -75s-57 -70.5 -75 -114.5s-27 -92 -27 -144s9 -100 27 -144s43 -82.167 75 -114.5s69.167 -57.333 111.5 -75s87.833 -26.5 136.5 -26.5c51.333 0 94.333 6.33301 129 19s66.667 32 96 58v112
c-24.667 -30.667 -56 -55.667 -94 -75s-81.667 -29 -131 -29c-46 0 -88.667 11.667 -128 35s-71.166 55.666 -95.499 96.999s-36.5 89 -36.5 143z" />
    <glyph glyph-name="uni0109" unicode="&#x109;" horiz-adv-x="478" 
d="M268 625l110 -95l50 40l-160 140l-160 -140l50 -40zM111 230c0 32 6.83301 60.502 20.5 85.502s32.334 44.5 56.001 58.5s50.5 21 80.5 21c37.333 0 70.666 -8.33301 99.999 -25s49.333 -36.334 60 -59.001v100c-16 18.667 -38.833 33.167 -68.5 43.5
s-60.167 15.5 -91.5 15.5c-44.667 0 -85 -10.333 -121 -31s-64.5 -49 -85.5 -85s-31.5 -77.333 -31.5 -124c0 -46 10.5 -87.167 31.5 -123.5s49.5 -64.833 85.5 -85.5s76.333 -31 121 -31c31.333 0 61.833 5.16699 91.5 15.5s52.5 24.833 68.5 43.5v100
c-10.667 -22.667 -30.667 -42.334 -60 -59.001s-62.666 -25 -99.999 -25c-30 0 -56.833 7.16699 -80.5 21.5s-42.334 33.833 -56.001 58.5s-20.5 53 -20.5 85z" />
    <glyph glyph-name="Cdotaccent" unicode="&#x10a;" horiz-adv-x="685" 
d="M335 825c0 -14.667 5.5 -27.5 16.5 -38.5s23.833 -16.5 38.5 -16.5c15.333 0 28.333 5.5 39 16.5s16 23.833 16 38.5c0 15.333 -5.33301 28.333 -16 39s-23.667 16 -39 16c-14.667 0 -27.5 -5.33301 -38.5 -16s-16.5 -23.667 -16.5 -39zM130 350
c0 54.667 12.167 102.501 36.5 143.501s56.166 73.167 95.499 96.5s82 35 128 35c49.333 0 93 -9.5 131 -28.5s69.333 -44.167 94 -75.5v112c-29.333 26 -61.333 45.333 -96 58s-77.667 19 -129 19c-48.667 0 -94.167 -8.83301 -136.5 -26.5s-79.5 -42.667 -111.5 -75
s-57 -70.5 -75 -114.5s-27 -92 -27 -144s9 -100 27 -144s43 -82.167 75 -114.5s69.167 -57.333 111.5 -75s87.833 -26.5 136.5 -26.5c51.333 0 94.333 6.33301 129 19s66.667 32 96 58v112c-24.667 -30.667 -56 -55.667 -94 -75s-81.667 -29 -131 -29
c-46 0 -88.667 11.667 -128 35s-71.166 55.666 -95.499 96.999s-36.5 89 -36.5 143z" />
    <glyph glyph-name="cdotaccent" unicode="&#x10b;" horiz-adv-x="478" 
d="M213 585c0 -14.667 5.5 -27.5 16.5 -38.5s23.833 -16.5 38.5 -16.5c15.333 0 28.333 5.5 39 16.5s16 23.833 16 38.5c0 15.333 -5.33301 28.333 -16 39s-23.667 16 -39 16c-14.667 0 -27.5 -5.33301 -38.5 -16s-16.5 -23.667 -16.5 -39zM111 230
c0 32 6.83301 60.502 20.5 85.502s32.334 44.5 56.001 58.5s50.5 21 80.5 21c37.333 0 70.666 -8.33301 99.999 -25s49.333 -36.334 60 -59.001v100c-16 18.667 -38.833 33.167 -68.5 43.5s-60.167 15.5 -91.5 15.5c-44.667 0 -85 -10.333 -121 -31s-64.5 -49 -85.5 -85
s-31.5 -77.333 -31.5 -124c0 -46 10.5 -87.167 31.5 -123.5s49.5 -64.833 85.5 -85.5s76.333 -31 121 -31c31.333 0 61.833 5.16699 91.5 15.5s52.5 24.833 68.5 43.5v100c-10.667 -22.667 -30.667 -42.334 -60 -59.001s-62.666 -25 -99.999 -25
c-30 0 -56.833 7.16699 -80.5 21.5s-42.334 33.833 -56.001 58.5s-20.5 53 -20.5 85z" />
    <glyph glyph-name="uni010C" unicode="&#x10c;" horiz-adv-x="685" 
d="M390 855l-110 95l-50 -40l160 -140l160 140l-50 40zM130 350c0 54.667 12.167 102.501 36.5 143.501s56.166 73.167 95.499 96.5s82 35 128 35c49.333 0 93 -9.5 131 -28.5s69.333 -44.167 94 -75.5v112c-29.333 26 -61.333 45.333 -96 58s-77.667 19 -129 19
c-48.667 0 -94.167 -8.83301 -136.5 -26.5s-79.5 -42.667 -111.5 -75s-57 -70.5 -75 -114.5s-27 -92 -27 -144s9 -100 27 -144s43 -82.167 75 -114.5s69.167 -57.333 111.5 -75s87.833 -26.5 136.5 -26.5c51.333 0 94.333 6.33301 129 19s66.667 32 96 58v112
c-24.667 -30.667 -56 -55.667 -94 -75s-81.667 -29 -131 -29c-46 0 -88.667 11.667 -128 35s-71.166 55.666 -95.499 96.999s-36.5 89 -36.5 143z" />
    <glyph glyph-name="uni010D" unicode="&#x10d;" horiz-adv-x="478" 
d="M268 615l-110 95l-50 -40l160 -140l160 140l-50 40zM111 230c0 32 6.83301 60.502 20.5 85.502s32.334 44.5 56.001 58.5s50.5 21 80.5 21c37.333 0 70.666 -8.33301 99.999 -25s49.333 -36.334 60 -59.001v100c-16 18.667 -38.833 33.167 -68.5 43.5
s-60.167 15.5 -91.5 15.5c-44.667 0 -85 -10.333 -121 -31s-64.5 -49 -85.5 -85s-31.5 -77.333 -31.5 -124c0 -46 10.5 -87.167 31.5 -123.5s49.5 -64.833 85.5 -85.5s76.333 -31 121 -31c31.333 0 61.833 5.16699 91.5 15.5s52.5 24.833 68.5 43.5v100
c-10.667 -22.667 -30.667 -42.334 -60 -59.001s-62.666 -25 -99.999 -25c-30 0 -56.833 7.16699 -80.5 21.5s-42.334 33.833 -56.001 58.5s-20.5 53 -20.5 85z" />
    <glyph glyph-name="uni010E" unicode="&#x10e;" horiz-adv-x="680" 
d="M330 855l-110 95l-50 -40l160 -140l160 140l-50 40zM127 0l38 0.00195312h125c68 0 128.333 14.667 181 44s94 70.166 124 122.499s45 113.5 45 183.5s-15 131.167 -45 183.5s-71.333 93.166 -124 122.499s-113 44 -181 44h-125h-38h-47v-700h47zM165 85.002v530.001h125
c52.667 0 98.834 -10.833 138.501 -32.5s70.667 -52.167 93 -91.5s33.5 -86.333 33.5 -141c0 -54 -11.167 -100.833 -33.5 -140.5s-53.333 -70.334 -93 -92.001s-85.834 -32.5 -138.501 -32.5h-125z" />
    <glyph glyph-name="uni010F" unicode="&#x10f;" 
d="M618 780l-88 -259l58 -21l110 250zM116 230c0 35.333 7.16699 65.333 21.5 90s33.5 43.334 57.5 56.001s50 19 78 19c23.333 0 46.333 -6.33301 69 -19s41.334 -31.334 56.001 -56.001s22 -54.667 22 -90s-7.33301 -65.333 -22 -90s-33.334 -43.334 -56.001 -56.001
s-45.667 -19 -69 -19c-28 0 -54 6.33301 -78 19s-43.167 31.334 -57.5 56.001s-21.5 54.667 -21.5 90zM35 230c0 -49.333 10.333 -92 31 -128s48.334 -63.667 83.001 -83s72.667 -29 114 -29c34 0 64.5 7.66699 91.5 23s48.833 37.333 65.5 66v-79h80v780h-80v-399
c-16.667 28.667 -38.5 50.667 -65.5 66s-57.5 23 -91.5 23c-41.333 0 -79.333 -9.66699 -114 -29s-62.334 -46.833 -83.001 -82.5s-31 -78.5 -31 -128.5z" />
    <glyph glyph-name="uni0110" unicode="&#x110;" horiz-adv-x="680" 
d="M5 310l75 0.00195312v-310h47h38h125c68 0 128.333 14.667 181 44s94 70.166 124 122.499s45 113.5 45 183.5s-15 131.167 -45 183.5s-71.333 93.166 -124 122.499s-113 44 -181 44h-125h-38h-47v-315h-75v-75zM165 85.002v225.001h140v75h-140v230h125
c52.667 0 98.834 -10.833 138.501 -32.5s70.667 -52.167 93 -91.5s33.5 -86.333 33.5 -141c0 -54 -11.167 -100.833 -33.5 -140.5s-53.333 -70.334 -93 -92.001s-85.834 -32.5 -138.501 -32.5h-125z" />
    <glyph glyph-name="dcroat" unicode="&#x111;" 
d="M116 230c0 35.333 7.16699 65.333 21.5 90s33.5 43.334 57.5 56.001s50 19 78 19c23.333 0 46.333 -6.33301 69 -19s41.334 -31.334 56.001 -56.001s22 -54.667 22 -90s-7.33301 -65.333 -22 -90s-33.334 -43.334 -56.001 -56.001s-45.667 -19 -69 -19
c-28 0 -54 6.33301 -78 19s-43.167 31.334 -57.5 56.001s-21.5 54.667 -21.5 90zM35 230c0 -49.333 10.333 -92 31 -128s48.334 -63.667 83.001 -83s72.667 -29 114 -29c34 0 64.5 7.66699 91.5 23s48.833 37.333 65.5 66v-79h80v590h95v75h-95v115h-80v-115h-125v-75h125
v-209c-16.667 28.667 -38.5 50.667 -65.5 66s-57.5 23 -91.5 23c-41.333 0 -79.333 -9.66699 -114 -29s-62.334 -46.833 -83.001 -82.5s-31 -78.5 -31 -128.5z" />
    <glyph glyph-name="uni0112" unicode="&#x112;" horiz-adv-x="550" 
d="M105 770h350v75h-350v-75zM165 340h295v80h-295v200h315v80h-315h-38h-47v-700h47h38h315v80h-315v260z" />
    <glyph glyph-name="emacron" unicode="&#x113;" horiz-adv-x="515" 
d="M88 530h350v75h-350v-75zM117 210l361.999 -0.000976562c0.666992 4 1 8 1 12v12c0 48.667 -9 90.5 -27 125.5s-43.333 62.167 -76 81.5s-70.667 29 -114 29c-39.333 0 -74.833 -8 -106.5 -24s-57.5 -38.333 -77.5 -67s-33.333 -62 -40 -100
c-1.33301 -8 -2.33301 -16 -3 -24s-1 -16.333 -1 -25c0 -46 9.5 -87.167 28.5 -123.5s45 -64.833 78 -85.5s70.167 -31 111.5 -31c40 0 73.333 4.83301 100 14.5s49.334 23.334 68.001 41.001s35.667 38.167 51 61.5l-65 41c-15.333 -24.667 -34.833 -44.667 -58.5 -60
s-52.167 -23 -85.5 -23c-42 0 -76 12.5 -102 37.5s-40.667 60.833 -44 107.5zM118.999 277.999c4 37.333 19.832 67 47.499 89s59.834 33 96.501 33c40 0 70.667 -11.333 92 -34s34 -52 38 -88h-274z" />
    <glyph glyph-name="uni0114" unicode="&#x114;" horiz-adv-x="550" 
d="M122 910c0 -22.667 5.83398 -44.834 17.501 -66.501s29.334 -39.334 53.001 -53.001s52.834 -20.5 87.501 -20.5c35.333 0 64.666 6.83301 87.999 20.5s40.833 31.334 52.5 53.001s17.5 43.834 17.5 66.501h-71c0 -8.66699 -2.33301 -18.834 -7 -30.501
s-13.334 -22 -26.001 -31s-30.667 -13.5 -54 -13.5s-41.333 4.5 -54 13.5s-21.334 19.333 -26.001 31s-7 21.834 -7 30.501h-71zM165.001 340h295v80h-295v200h315v80h-315h-38h-47v-700h47h38h315v80h-315v260z" />
    <glyph glyph-name="uni0115" unicode="&#x115;" horiz-adv-x="515" 
d="M105 670c0 -22.667 5.83398 -44.834 17.501 -66.501s29.334 -39.334 53.001 -53.001s52.834 -20.5 87.501 -20.5c35.333 0 64.666 6.83301 87.999 20.5s40.833 31.334 52.5 53.001s17.5 43.834 17.5 66.501h-71c0 -8.66699 -2.33301 -18.834 -7 -30.501
s-13.334 -22 -26.001 -31s-30.667 -13.5 -54 -13.5s-41.333 4.5 -54 13.5s-21.334 19.333 -26.001 31s-7 21.834 -7 30.501h-71zM117.001 210l361.999 -0.000976562c0.666992 4 1 8 1 12v12c0 48.667 -9 90.5 -27 125.5s-43.333 62.167 -76 81.5s-70.667 29 -114 29
c-39.333 0 -74.833 -8 -106.5 -24s-57.5 -38.333 -77.5 -67s-33.333 -62 -40 -100c-1.33301 -8 -2.33301 -16 -3 -24s-1 -16.333 -1 -25c0 -46 9.5 -87.167 28.5 -123.5s45 -64.833 78 -85.5s70.167 -31 111.5 -31c40 0 73.333 4.83301 100 14.5
s49.334 23.334 68.001 41.001s35.667 38.167 51 61.5l-65 41c-15.333 -24.667 -34.833 -44.667 -58.5 -60s-52.167 -23 -85.5 -23c-42 0 -76 12.5 -102 37.5s-40.667 60.833 -44 107.5zM119 277.999c4 37.333 19.832 67 47.499 89s59.834 33 96.501 33
c40 0 70.667 -11.333 92 -34s34 -52 38 -88h-274z" />
    <glyph glyph-name="uni0116" unicode="&#x116;" horiz-adv-x="550" 
d="M225 825c0 -14.667 5.5 -27.5 16.5 -38.5s23.833 -16.5 38.5 -16.5c15.333 0 28.333 5.5 39 16.5s16 23.833 16 38.5c0 15.333 -5.33301 28.333 -16 39s-23.667 16 -39 16c-14.667 0 -27.5 -5.33301 -38.5 -16s-16.5 -23.667 -16.5 -39zM165 340h295v80h-295v200h315v80
h-315h-38h-47v-700h47h38h315v80h-315v260z" />
    <glyph glyph-name="uni0117" unicode="&#x117;" horiz-adv-x="515" 
d="M208 585c0 -14.667 5.5 -27.5 16.5 -38.5s23.833 -16.5 38.5 -16.5c15.333 0 28.333 5.5 39 16.5s16 23.833 16 38.5c0 15.333 -5.33301 28.333 -16 39s-23.667 16 -39 16c-14.667 0 -27.5 -5.33301 -38.5 -16s-16.5 -23.667 -16.5 -39zM117 210l361.999 -0.000976562
c0.666992 4 1 8 1 12v12c0 48.667 -9 90.5 -27 125.5s-43.333 62.167 -76 81.5s-70.667 29 -114 29c-39.333 0 -74.833 -8 -106.5 -24s-57.5 -38.333 -77.5 -67s-33.333 -62 -40 -100c-1.33301 -8 -2.33301 -16 -3 -24s-1 -16.333 -1 -25c0 -46 9.5 -87.167 28.5 -123.5
s45 -64.833 78 -85.5s70.167 -31 111.5 -31c40 0 73.333 4.83301 100 14.5s49.334 23.334 68.001 41.001s35.667 38.167 51 61.5l-65 41c-15.333 -24.667 -34.833 -44.667 -58.5 -60s-52.167 -23 -85.5 -23c-42 0 -76 12.5 -102 37.5s-40.667 60.833 -44 107.5z
M118.999 277.999c4 37.333 19.832 67 47.499 89s59.834 33 96.501 33c40 0 70.667 -11.333 92 -34s34 -52 38 -88h-274z" />
    <glyph glyph-name="uni0118" unicode="&#x118;" horiz-adv-x="550" 
d="M365 -130c-6.66699 -6.66699 -13.332 -11.6689 -19.999 -15.002s-16.667 -5 -30 -5c-14.667 0 -26.334 3.83301 -35.001 11.5s-13 20.5 -13 38.5c0 18.667 9 37.334 27 56.001s40 33.334 66 44.001h120v80h-315v260h295v80h-295v200h315v80h-315h-38h-47v-700h47h38h111
c-24.667 -16.667 -45.667 -35 -63 -55s-26 -41.667 -26 -65c0 -29.333 10 -53.333 30 -72s51 -28 93 -28c21.333 0 39.5 4.16699 54.5 12.5s26.167 17.5 33.5 27.5z" />
    <glyph glyph-name="uni0119" unicode="&#x119;" horiz-adv-x="515" 
d="M299 -131c-6.66699 -6.66699 -13.3291 -11.668 -19.9961 -15.001s-16.667 -5 -30 -5c-14.667 0 -26.334 3.83301 -35.001 11.5s-13 20.5 -13 38.5c0 16.667 7.16699 33.334 21.5 50.001s32.166 30.667 53.499 42c51.333 3.33301 91.5 15.333 120.5 36
s54.167 47.334 75.5 80.001l-65 41c-15.333 -24.667 -34.833 -44.667 -58.5 -60s-52.167 -23 -85.5 -23c-42 0 -76 12.5 -102 37.5s-40.667 60.833 -44 107.5h362c0.666992 4 1 8 1 12v12c0 48.667 -9 90.5 -27 125.5s-43.333 62.167 -76 81.5s-70.667 29 -114 29
c-39.333 0 -74.833 -8 -106.5 -24s-57.5 -38.333 -77.5 -67s-33.333 -62 -40 -100c-1.33301 -8 -2.33301 -16 -3 -24s-1 -16.333 -1 -25c0 -40 7.16699 -76.333 21.5 -109s34.166 -59.834 59.499 -81.501s54.666 -36.5 87.999 -44.5c-24 -16 -43.833 -33.667 -59.5 -53
s-23.5 -40.333 -23.5 -63c0 -29.333 10 -53.333 30 -72s51 -28 93 -28c21.333 0 39.5 4.16699 54.5 12.5s26.167 17.5 33.5 27.5zM119.005 277.999c4 37.333 19.832 67 47.499 89s59.834 33 96.501 33c40 0 70.667 -11.333 92 -34s34 -52 38 -88h-274z" />
    <glyph glyph-name="uni011A" unicode="&#x11a;" horiz-adv-x="550" 
d="M280 855l-110 95l-50 -40l160 -140l160 140l-50 40zM165 340h295v80h-295v200h315v80h-315h-38h-47v-700h47h38h315v80h-315v260z" />
    <glyph glyph-name="uni011B" unicode="&#x11b;" horiz-adv-x="515" 
d="M263 615l-110 95l-50 -40l160 -140l160 140l-50 40zM117 210l361.999 -0.000976562c0.666992 4 1 8 1 12v12c0 48.667 -9 90.5 -27 125.5s-43.333 62.167 -76 81.5s-70.667 29 -114 29c-39.333 0 -74.833 -8 -106.5 -24s-57.5 -38.333 -77.5 -67s-33.333 -62 -40 -100
c-1.33301 -8 -2.33301 -16 -3 -24s-1 -16.333 -1 -25c0 -46 9.5 -87.167 28.5 -123.5s45 -64.833 78 -85.5s70.167 -31 111.5 -31c40 0 73.333 4.83301 100 14.5s49.334 23.334 68.001 41.001s35.667 38.167 51 61.5l-65 41c-15.333 -24.667 -34.833 -44.667 -58.5 -60
s-52.167 -23 -85.5 -23c-42 0 -76 12.5 -102 37.5s-40.667 60.833 -44 107.5zM118.999 277.999c4 37.333 19.832 67 47.499 89s59.834 33 96.501 33c40 0 70.667 -11.333 92 -34s34 -52 38 -88h-274z" />
    <glyph glyph-name="Gcircumflex" unicode="&#x11c;" horiz-adv-x="775" 
d="M395 865l110 -95l50 40l-160 140l-160 -140l50 -40zM405 275l233 -0.000976562c-7.33301 -36 -21.333 -69.167 -42 -99.5s-47.667 -54.666 -81 -72.999s-73.333 -27.5 -120 -27.5c-49.333 0 -94 11.667 -134 35s-71.833 55.666 -95.5 96.999s-35.5 89 -35.5 143
c0 54.667 11.833 102.5 35.5 143.5s55.5 73.167 95.5 96.5s84.667 35 134 35c53.333 0 99.666 -10.5 138.999 -31.5s70 -50.167 92 -87.5l60 55c-30 48.667 -69.833 85.667 -119.5 111s-106.834 38 -171.501 38c-50.667 0 -97.667 -8.83301 -141 -26.5s-81 -42.667 -113 -75
s-56.833 -70.5 -74.5 -114.5s-26.5 -92 -26.5 -144s8.83301 -100 26.5 -144s42.5 -82.167 74.5 -114.5s69.667 -57.333 113 -75s90.333 -26.5 141 -26.5c53.333 0 100.833 9.83301 142.5 29.5s76.834 46.5 105.501 80.5s50.334 72.833 65.001 116.5s22 89.834 22 138.501
h-325v-80z" />
    <glyph glyph-name="gcircumflex" unicode="&#x11d;" 
d="M263 625l110 -95l50 40l-160 140l-160 -140l50 -40zM116 230c0 35.333 7.16699 65.333 21.5 90s33.5 43.334 57.5 56.001s50 19 78 19c23.333 0 46.333 -6.33301 69 -19s41.334 -31.334 56.001 -56.001s22 -54.667 22 -90s-7.33301 -65.333 -22 -90
s-33.334 -43.334 -56.001 -56.001s-45.667 -19 -69 -19c-28 0 -54 6.33301 -78 19s-43.167 31.334 -57.5 56.001s-21.5 54.667 -21.5 90zM35 230c0 -49.333 10.333 -92.0029 31 -128.003s48.334 -63.667 83.001 -83s72.667 -29 114 -29c34 0 64.5 7.66699 91.5 23
s48.833 37.333 65.5 66v-69c0 -38.667 -7.5 -70.167 -22.5 -94.5s-33.833 -42.166 -56.5 -53.499s-45.667 -17 -69 -17c-30 0 -56 5.83301 -78 17.5s-39 27 -51 46s-18 39.5 -18 61.5h-81c0 -39.333 9.66699 -74.166 29 -104.499s46.166 -53.833 80.499 -70.5
s73.833 -25 118.5 -25c38.667 0 75.334 9 110.001 27s63 44.833 85 80.5s33 79.834 33 132.501v450h-80v-79c-16.667 28.667 -38.5 50.667 -65.5 66s-57.5 23 -91.5 23c-41.333 0 -79.333 -9.66699 -114 -29s-62.334 -46.833 -83.001 -82.5s-31 -78.5 -31 -128.5z" />
    <glyph glyph-name="uni011E" unicode="&#x11e;" horiz-adv-x="775" 
d="M237 910c0 -22.667 5.83398 -44.834 17.501 -66.501s29.334 -39.334 53.001 -53.001s52.834 -20.5 87.501 -20.5c35.333 0 64.666 6.83301 87.999 20.5s40.833 31.334 52.5 53.001s17.5 43.834 17.5 66.501h-71c0 -8.66699 -2.33301 -18.834 -7 -30.501
s-13.334 -22 -26.001 -31s-30.667 -13.5 -54 -13.5s-41.333 4.5 -54 13.5s-21.334 19.333 -26.001 31s-7 21.834 -7 30.501h-71zM405.001 275l233 -0.000976562c-7.33301 -36 -21.333 -69.167 -42 -99.5s-47.667 -54.666 -81 -72.999s-73.333 -27.5 -120 -27.5
c-49.333 0 -94 11.667 -134 35s-71.833 55.666 -95.5 96.999s-35.5 89 -35.5 143c0 54.667 11.833 102.5 35.5 143.5s55.5 73.167 95.5 96.5s84.667 35 134 35c53.333 0 99.666 -10.5 138.999 -31.5s70 -50.167 92 -87.5l60 55c-30 48.667 -69.833 85.667 -119.5 111
s-106.834 38 -171.501 38c-50.667 0 -97.667 -8.83301 -141 -26.5s-81 -42.667 -113 -75s-56.833 -70.5 -74.5 -114.5s-26.5 -92 -26.5 -144s8.83301 -100 26.5 -144s42.5 -82.167 74.5 -114.5s69.667 -57.333 113 -75s90.333 -26.5 141 -26.5
c53.333 0 100.833 9.83301 142.5 29.5s76.834 46.5 105.501 80.5s50.334 72.833 65.001 116.5s22 89.834 22 138.501h-325v-80z" />
    <glyph glyph-name="uni011F" unicode="&#x11f;" 
d="M105 670c0 -22.667 5.83398 -44.834 17.501 -66.501s29.334 -39.334 53.001 -53.001s52.834 -20.5 87.501 -20.5c35.333 0 64.666 6.83301 87.999 20.5s40.833 31.334 52.5 53.001s17.5 43.834 17.5 66.501h-71c0 -8.66699 -2.33301 -18.834 -7 -30.501
s-13.334 -22 -26.001 -31s-30.667 -13.5 -54 -13.5s-41.333 4.5 -54 13.5s-21.334 19.333 -26.001 31s-7 21.834 -7 30.501h-71zM116.001 230c0 35.333 7.16699 65.333 21.5 90s33.5 43.334 57.5 56.001s50 19 78 19c23.333 0 46.333 -6.33301 69 -19
s41.334 -31.334 56.001 -56.001s22 -54.667 22 -90s-7.33301 -65.333 -22 -90s-33.334 -43.334 -56.001 -56.001s-45.667 -19 -69 -19c-28 0 -54 6.33301 -78 19s-43.167 31.334 -57.5 56.001s-21.5 54.667 -21.5 90zM35.001 230c0 -49.333 10.333 -92.0029 31 -128.003
s48.334 -63.667 83.001 -83s72.667 -29 114 -29c34 0 64.5 7.66699 91.5 23s48.833 37.333 65.5 66v-69c0 -38.667 -7.5 -70.167 -22.5 -94.5s-33.833 -42.166 -56.5 -53.499s-45.667 -17 -69 -17c-30 0 -56 5.83301 -78 17.5s-39 27 -51 46s-18 39.5 -18 61.5h-81
c0 -39.333 9.66699 -74.166 29 -104.499s46.166 -53.833 80.499 -70.5s73.833 -25 118.5 -25c38.667 0 75.334 9 110.001 27s63 44.833 85 80.5s33 79.834 33 132.501v450h-80v-79c-16.667 28.667 -38.5 50.667 -65.5 66s-57.5 23 -91.5 23
c-41.333 0 -79.333 -9.66699 -114 -29s-62.334 -46.833 -83.001 -82.5s-31 -78.5 -31 -128.5z" />
    <glyph glyph-name="uni0120" unicode="&#x120;" horiz-adv-x="775" 
d="M340 825c0 -14.667 5.5 -27.5 16.5 -38.5s23.833 -16.5 38.5 -16.5c15.333 0 28.333 5.5 39 16.5s16 23.833 16 38.5c0 15.333 -5.33301 28.333 -16 39s-23.667 16 -39 16c-14.667 0 -27.5 -5.33301 -38.5 -16s-16.5 -23.667 -16.5 -39zM405 275l233 -0.000976562
c-7.33301 -36 -21.333 -69.167 -42 -99.5s-47.667 -54.666 -81 -72.999s-73.333 -27.5 -120 -27.5c-49.333 0 -94 11.667 -134 35s-71.833 55.666 -95.5 96.999s-35.5 89 -35.5 143c0 54.667 11.833 102.5 35.5 143.5s55.5 73.167 95.5 96.5s84.667 35 134 35
c53.333 0 99.666 -10.5 138.999 -31.5s70 -50.167 92 -87.5l60 55c-30 48.667 -69.833 85.667 -119.5 111s-106.834 38 -171.501 38c-50.667 0 -97.667 -8.83301 -141 -26.5s-81 -42.667 -113 -75s-56.833 -70.5 -74.5 -114.5s-26.5 -92 -26.5 -144s8.83301 -100 26.5 -144
s42.5 -82.167 74.5 -114.5s69.667 -57.333 113 -75s90.333 -26.5 141 -26.5c53.333 0 100.833 9.83301 142.5 29.5s76.834 46.5 105.501 80.5s50.334 72.833 65.001 116.5s22 89.834 22 138.501h-325v-80z" />
    <glyph glyph-name="uni0121" unicode="&#x121;" 
d="M228 625c0 -14.667 5.5 -27.5 16.5 -38.5s23.833 -16.5 38.5 -16.5c15.333 0 28.333 5.5 39 16.5s16 23.833 16 38.5c0 15.333 -5.33301 28.333 -16 39s-23.667 16 -39 16c-14.667 0 -27.5 -5.33301 -38.5 -16s-16.5 -23.667 -16.5 -39zM116 230
c0 35.333 7.16699 65.333 21.5 90s33.5 43.334 57.5 56.001s50 19 78 19c23.333 0 46.333 -6.33301 69 -19s41.334 -31.334 56.001 -56.001s22 -54.667 22 -90s-7.33301 -65.333 -22 -90s-33.334 -43.334 -56.001 -56.001s-45.667 -19 -69 -19c-28 0 -54 6.33301 -78 19
s-43.167 31.334 -57.5 56.001s-21.5 54.667 -21.5 90zM35 230c0 -49.333 10.333 -92.0029 31 -128.003s48.334 -63.667 83.001 -83s72.667 -29 114 -29c34 0 64.5 7.66699 91.5 23s48.833 37.333 65.5 66v-69c0 -38.667 -7.5 -70.167 -22.5 -94.5
s-33.833 -42.166 -56.5 -53.499s-45.667 -17 -69 -17c-30 0 -56 5.83301 -78 17.5s-39 27 -51 46s-18 39.5 -18 61.5h-81c0 -39.333 9.66699 -74.166 29 -104.499s46.166 -53.833 80.499 -70.5s73.833 -25 118.5 -25c38.667 0 75.334 9 110.001 27s63 44.833 85 80.5
s33 79.834 33 132.501v450h-80v-79c-16.667 28.667 -38.5 50.667 -65.5 66s-57.5 23 -91.5 23c-41.333 0 -79.333 -9.66699 -114 -29s-62.334 -46.833 -83.001 -82.5s-31 -78.5 -31 -128.5z" />
    <glyph glyph-name="uni0122" unicode="&#x122;" horiz-adv-x="775" 
d="M399 -70l-88 -259l58 -21l110 250zM405 275l233 -0.000976562c-7.33301 -36 -21.333 -69.167 -42 -99.5s-47.667 -54.666 -81 -72.999s-73.333 -27.5 -120 -27.5c-49.333 0 -94 11.667 -134 35s-71.833 55.666 -95.5 96.999s-35.5 89 -35.5 143
c0 54.667 11.833 102.5 35.5 143.5s55.5 73.167 95.5 96.5s84.667 35 134 35c53.333 0 99.666 -10.5 138.999 -31.5s70 -50.167 92 -87.5l60 55c-30 48.667 -69.833 85.667 -119.5 111s-106.834 38 -171.501 38c-50.667 0 -97.667 -8.83301 -141 -26.5s-81 -42.667 -113 -75
s-56.833 -70.5 -74.5 -114.5s-26.5 -92 -26.5 -144s8.83301 -100 26.5 -144s42.5 -82.167 74.5 -114.5s69.667 -57.333 113 -75s90.333 -26.5 141 -26.5c53.333 0 100.833 9.83301 142.5 29.5s76.834 46.5 105.501 80.5s50.334 72.833 65.001 116.5s22 89.834 22 138.501
h-325v-80z" />
    <glyph glyph-name="uni0124" unicode="&#x124;" horiz-adv-x="715" 
d="M358 865l110 -95l50 40l-160 140l-160 -140l50 -40zM80 700v-700h85v340h385v-340h85v700h-85v-280h-385v280h-85z" />
    <glyph glyph-name="uni0125" unicode="&#x125;" horiz-adv-x="525" 
d="M122 935l110 -95l50 40l-160 140l-160 -140l50 -40zM370 280l-0.000976562 -279.998h80v290c0 59.333 -14.5 104.166 -43.5 134.499s-67.167 45.5 -114.5 45.5c-28 0 -53.833 -6.33301 -77.5 -19s-43.5 -30.334 -59.5 -53.001v382h-80v-780h80v280
c0 33.333 10.833 60.833 32.5 82.5s49.834 32.5 84.501 32.5c65.333 0 98 -38.333 98 -115z" />
    <glyph glyph-name="uni0128" unicode="&#x128;" horiz-adv-x="245" 
d="M-42 807l53.0029 -37c0 5.33301 1.33301 12 4 20s7.66699 15.167 15 21.5s17.666 9.5 30.999 9.5c15.333 0 28.5 -3.83301 39.5 -11.5s22.833 -15.5 35.5 -23.5s28 -12 46 -12c25.333 0 47.333 7.5 66 22.5s32 31.833 40 50.5l-46 43c-20 -32 -38.667 -48 -56 -48
c-13.333 0 -24.333 2.33301 -33 7s-16.834 10.167 -24.501 16.5s-16.667 11.833 -27 16.5s-23.5 7 -39.5 7c-22.667 0 -44.334 -7.5 -65.001 -22.5s-33.667 -34.833 -39 -59.5zM80.0029 700v-700h85v700h-85z" />
    <glyph glyph-name="itilde" unicode="&#x129;" horiz-adv-x="260" 
d="M-35 567l53.0029 -37c0 5.33301 1.33301 12 4 20s7.66699 15.167 15 21.5s17.666 9.5 30.999 9.5c15.333 0 28.5 -3.83301 39.5 -11.5s22.833 -15.5 35.5 -23.5s28 -12 46 -12c25.333 0 47.333 7.5 66 22.5s32 31.833 40 50.5l-46 43c-20 -32 -38.667 -48 -56 -48
c-13.333 0 -24.333 2.33301 -33 7s-16.834 10.167 -24.501 16.5s-16.667 11.833 -27 16.5s-23.5 7 -39.5 7c-22.667 0 -44.334 -7.5 -65.001 -22.5s-33.667 -34.833 -39 -59.5zM90.0029 460v-460h80v460h-80z" />
    <glyph glyph-name="uni012A" unicode="&#x12a;" horiz-adv-x="245" 
d="M-52 770h350v75h-350v-75zM80 700v-700h85v700h-85z" />
    <glyph glyph-name="uni012B" unicode="&#x12b;" horiz-adv-x="260" 
d="M-45 530h350v75h-350v-75zM90 460v-460h80v460h-80z" />
    <glyph glyph-name="uni012C" unicode="&#x12c;" horiz-adv-x="245" 
d="M-35 910c0 -22.667 5.83398 -44.834 17.501 -66.501s29.334 -39.334 53.001 -53.001s52.834 -20.5 87.501 -20.5c35.333 0 64.666 6.83301 87.999 20.5s40.833 31.334 52.5 53.001s17.5 43.834 17.5 66.501h-71c0 -8.66699 -2.33301 -18.834 -7 -30.501
s-13.334 -22 -26.001 -31s-30.667 -13.5 -54 -13.5s-41.333 4.5 -54 13.5s-21.334 19.333 -26.001 31s-7 21.834 -7 30.501h-71zM80.001 700v-700h85v700h-85z" />
    <glyph glyph-name="uni012D" unicode="&#x12d;" horiz-adv-x="260" 
d="M-28 670c0 -22.667 5.83398 -44.834 17.501 -66.501s29.334 -39.334 53.001 -53.001s52.834 -20.5 87.501 -20.5c35.333 0 64.666 6.83301 87.999 20.5s40.833 31.334 52.5 53.001s17.5 43.834 17.5 66.501h-71c0 -8.66699 -2.33301 -18.834 -7 -30.501
s-13.334 -22 -26.001 -31s-30.667 -13.5 -54 -13.5s-41.333 4.5 -54 13.5s-21.334 19.333 -26.001 31s-7 21.834 -7 30.501h-71zM90.001 460v-460h80v460h-80z" />
    <glyph glyph-name="uni012E" unicode="&#x12e;" horiz-adv-x="245" 
d="M170 -130c-6.66699 -6.66699 -13.332 -11.6689 -19.999 -15.002s-16.667 -5 -30 -5c-14.667 0 -26.334 3.83301 -35.001 11.5s-13 20.5 -13 38.5c0 18.667 9 37.334 27 56.001s40 33.334 66 44.001v700h-85v-700h1c-24.667 -16.667 -45.667 -35 -63 -55
s-26 -41.667 -26 -65c0 -29.333 10 -53.333 30 -72s51 -28 93 -28c21.333 0 39.5 4.16699 54.5 12.5s26.167 17.5 33.5 27.5z" />
    <glyph glyph-name="uni012F" unicode="&#x12f;" horiz-adv-x="260" 
d="M175 -130c-6.66699 -6.66699 -13.332 -11.668 -19.999 -15.001s-16.667 -5 -30 -5c-14.667 0 -26.334 3.83301 -35.001 11.5s-13 20.5 -13 38.5c0 18.667 9 37.334 27 56.001s40 33.334 66 44.001v460h-80v-457c-26 -16.667 -48 -35.334 -66 -56.001s-27 -43 -27 -67
c0 -29.333 10 -53.333 30 -72s51 -28 93 -28c21.333 0 39.5 4.16699 54.5 12.5s26.167 17.5 33.5 27.5zM75.002 649.999c0 -14.667 5.5 -27.5 16.5 -38.5s23.833 -16.5 38.5 -16.5c15.333 0 28.333 5.5 39 16.5s16 23.833 16 38.5c0 15.333 -5.33301 28.333 -16 39
s-23.667 16 -39 16c-14.667 0 -27.5 -5.33301 -38.5 -16s-16.5 -23.667 -16.5 -39z" />
    <glyph glyph-name="Idotaccent" unicode="&#x130;" horiz-adv-x="245" 
d="M67 825c0 -14.667 5.5 -27.5 16.5 -38.5s23.833 -16.5 38.5 -16.5c15.333 0 28.333 5.5 39 16.5s16 23.833 16 38.5c0 15.333 -5.33301 28.333 -16 39s-23.667 16 -39 16c-14.667 0 -27.5 -5.33301 -38.5 -16s-16.5 -23.667 -16.5 -39zM80 700v-700h85v700h-85z" />
    <glyph glyph-name="dotlessi" unicode="&#x131;" horiz-adv-x="260" 
d="M90 460v-460h80v460h-80z" />
    <glyph glyph-name="uni0132" unicode="&#x132;" horiz-adv-x="490" 
d="M80 700v-700h85v700h-85zM183 -104l-43.998 -65.999c7.33301 -10 22.166 -20.833 44.499 -32.5s46.833 -17.5 73.5 -17.5c47.333 0 84.666 13 111.999 39s41 66.333 41 121v760h-80v-750c0 -32.667 -7.5 -55.834 -22.5 -69.501s-30.167 -20.5 -45.5 -20.5
c-38 0 -64.333 12 -79 36z" />
    <glyph glyph-name="uni0133" unicode="&#x133;" horiz-adv-x="510" 
d="M90 460v-460h80v460h-80zM75 650c0 -14.667 5.5 -27.5 16.5 -38.5s23.833 -16.5 38.5 -16.5c15.333 0 28.333 5.5 39 16.5s16 23.833 16 38.5c0 15.333 -5.33301 28.333 -16 39s-23.667 16 -39 16c-14.667 0 -27.5 -5.33301 -38.5 -16s-16.5 -23.667 -16.5 -39zM243 -114
l-44.001 -65.999c7.33301 -10 18.5 -19.167 33.5 -27.5s33.167 -12.5 54.5 -12.5c42 0 74.667 13 98 39s35 66.333 35 121v520h-80v-510c0 -32.667 -4.16699 -55.834 -12.5 -69.501s-20.166 -20.5 -35.499 -20.5c-8 0 -16.333 1.5 -25 4.5s-16.667 10.167 -24 21.5z
M324.999 650.001c0 -14.667 5.5 -27.5 16.5 -38.5s23.833 -16.5 38.5 -16.5c15.333 0 28.333 5.5 39 16.5s16 23.833 16 38.5c0 15.333 -5.33301 28.333 -16 39s-23.667 16 -39 16c-14.667 0 -27.5 -5.33301 -38.5 -16s-16.5 -23.667 -16.5 -39z" />
    <glyph glyph-name="uni0134" unicode="&#x134;" horiz-adv-x="240" 
d="M120 865l110 -95l50 40l-160 140l-160 -140l50 -40zM-67 -104l-43.998 -65.999c7.33301 -10 22.166 -20.833 44.499 -32.5s46.833 -17.5 73.5 -17.5c47.333 0 84.666 13 111.999 39s41 66.333 41 121v760h-80v-750c0 -32.667 -7.5 -55.834 -22.5 -69.501
s-30.167 -20.5 -45.5 -20.5c-38 0 -64.333 12 -79 36z" />
    <glyph glyph-name="uni0135" unicode="&#x135;" horiz-adv-x="250" 
d="M120 625l110 -95l50 40l-160 140l-160 -140l50 -40zM-17 -114l-44.001 -65.999c7.33301 -10 18.5 -19.167 33.5 -27.5s33.167 -12.5 54.5 -12.5c42 0 74.667 13 98 39s35 66.333 35 121v520h-80v-510c0 -32.667 -4.16699 -55.834 -12.5 -69.501
s-20.166 -20.5 -35.499 -20.5c-8 0 -16.333 1.5 -25 4.5s-16.667 10.167 -24 21.5z" />
    <glyph glyph-name="uni0136" unicode="&#x136;" horiz-adv-x="565" 
d="M324 -60l-88 -259l58 -21l110 250zM440 700l-275 -301v301h-85v-700h85v340l290 -340h105l-318 372l303 328h-105z" />
    <glyph glyph-name="uni0137" unicode="&#x137;" horiz-adv-x="440" 
d="M259 -60l-88 -259l58 -21l110 250zM320 460l-170 -162v482h-80v-780h80v233l190 -233h100l-220 270l200 190h-100z" />
    <glyph glyph-name="uni0138" unicode="&#x138;" horiz-adv-x="440" 
d="M320 460l-170 -162v162h-80v-460h80v233l190 -233h100l-220 270l200 190h-100z" />
    <glyph glyph-name="uni0139" unicode="&#x139;" horiz-adv-x="450" 
d="M80 700v-700h360v80h-275v620h-85zM390 920l-75 40l-150 -160l45 -30z" />
    <glyph glyph-name="lacute" unicode="&#x13a;" horiz-adv-x="230" 
d="M75 780v-780h80v780h-80zM245 990l-75 40l-150 -160l45 -30z" />
    <glyph glyph-name="uni013B" unicode="&#x13b;" horiz-adv-x="450" 
d="M80 700v-700h360v80h-275v620h-85zM264 -60l-88 -259l58 -21l110 250z" />
    <glyph glyph-name="uni013C" unicode="&#x13c;" horiz-adv-x="230" 
d="M75 780v-780h80v780h-80zM119 -60l-88 -259l58 -21l110 250z" />
    <glyph glyph-name="uni013D" unicode="&#x13d;" horiz-adv-x="450" 
d="M80 700v-700h360v80h-275v620h-85zM328 710l-88 -259l58 -21l110 250z" />
    <glyph glyph-name="lcaron" unicode="&#x13e;" horiz-adv-x="230" 
d="M75 780v-780h80v780h-80zM293 780l-88 -259l58 -21l110 250z" />
    <glyph glyph-name="uni013F" unicode="&#x13f;" horiz-adv-x="450" 
d="M80 700v-700h360v80h-275v620h-85zM255 415c0 -14.667 5.5 -27.5 16.5 -38.5s23.833 -16.5 38.5 -16.5c15.333 0 28.333 5.5 39 16.5s16 23.833 16 38.5c0 15.333 -5.33301 28.333 -16 39s-23.667 16 -39 16c-14.667 0 -27.5 -5.33301 -38.5 -16s-16.5 -23.667 -16.5 -39
z" />
    <glyph glyph-name="ldot" unicode="&#x140;" horiz-adv-x="370" 
d="M75 780v-780h80v780h-80zM215 415c0 -14.667 5.5 -27.5 16.5 -38.5s23.833 -16.5 38.5 -16.5c15.333 0 28.333 5.5 39 16.5s16 23.833 16 38.5c0 15.333 -5.33301 28.333 -16 39s-23.667 16 -39 16c-14.667 0 -27.5 -5.33301 -38.5 -16s-16.5 -23.667 -16.5 -39z" />
    <glyph glyph-name="uni0141" unicode="&#x141;" horiz-adv-x="450" 
d="M80 700v-245l-95 -60l20 -55l75 47v-387h360v80h-275v361l110 69l-20 55l-90 -57v192h-85z" />
    <glyph glyph-name="uni0142" unicode="&#x142;" horiz-adv-x="230" 
d="M75 780v-331l-90 -54l20 -55l70 42v-382h80v430l100 60l-20 55l-80 -48v283h-80z" />
    <glyph glyph-name="uni0143" unicode="&#x143;" horiz-adv-x="775" 
d="M610 700v-521l-530 556v-735h85v521l530 -556v735h-85zM560 905l-75 40l-150 -160l45 -30z" />
    <glyph glyph-name="uni0144" unicode="&#x144;" horiz-adv-x="525" 
d="M370 280l-0.000976562 -279.999h80v290c0 59.333 -14.5 104.166 -43.5 134.499s-67.167 45.5 -114.5 45.5c-30 0 -56.833 -7.5 -80.5 -22.5s-42.5 -35.167 -56.5 -60.5v73h-80v-460h80v280c0 33.333 10.833 60.833 32.5 82.5s49.834 32.5 84.501 32.5
c65.333 0 98 -38.333 98 -115zM401.999 680.001l-74 40l-150 -160l44 -30z" />
    <glyph glyph-name="uni0145" unicode="&#x145;" horiz-adv-x="775" 
d="M399 -35l-88 -259l58 -21l110 250zM610 700v-521l-530 556v-735h85v521l530 -556v735h-85z" />
    <glyph glyph-name="uni0146" unicode="&#x146;" horiz-adv-x="525" 
d="M370 280l-0.000976562 -279.998h80v290c0 59.333 -14.5 104.166 -43.5 134.499s-67.167 45.5 -114.5 45.5c-28 0 -53.833 -6.33301 -77.5 -19s-43.5 -30.334 -59.5 -53.001v62h-80v-460h80v280c0 33.333 10.833 60.833 32.5 82.5s49.834 32.5 84.501 32.5
c65.333 0 98 -38.333 98 -115zM265.999 -59.998l-88 -259l58 -21l110 250z" />
    <glyph glyph-name="uni0147" unicode="&#x147;" horiz-adv-x="775" 
d="M400 880l-110 95l-50 -40l160 -140l160 140l-50 40zM610 700v-521l-530 556v-735h85v521l530 -556v735h-85z" />
    <glyph glyph-name="uni0148" unicode="&#x148;" horiz-adv-x="525" 
d="M370 280l-0.000976562 -279.998h80v290c0 59.333 -14.5 104.166 -43.5 134.499s-67.167 45.5 -114.5 45.5c-28 0 -53.833 -6.33301 -77.5 -19s-43.5 -30.334 -59.5 -53.001v62h-80v-460h80v280c0 33.333 10.833 60.833 32.5 82.5s49.834 32.5 84.501 32.5
c65.333 0 98 -38.333 98 -115zM261.999 615.002l-110 95l-50 -40l160 -140l160 140l-50 40z" />
    <glyph glyph-name="uni0149" unicode="&#x149;" horiz-adv-x="635" 
d="M480 280l-0.000976562 -279.998h80v290c0 59.333 -14.5 104.166 -43.5 134.499s-67.167 45.5 -114.5 45.5c-28 0 -53.833 -6.33301 -77.5 -19s-43.5 -30.334 -59.5 -53.001v62h-80v-460h80v280c0 33.333 10.833 60.833 32.5 82.5s49.834 32.5 84.501 32.5
c65.333 0 98 -38.333 98 -115zM129.999 700.002l-60 -230h55l100 230h-95z" />
    <glyph glyph-name="uni014C" unicode="&#x14c;" horiz-adv-x="790" 
d="M130 350c0 52.667 11.5 99.667 34.5 141s54.5 74 94.5 98s85.333 36 136 36c51.333 0 96.833 -12 136.5 -36s71 -56.667 94 -98s34.5 -88.333 34.5 -141s-11.5 -99.667 -34.5 -141s-54.333 -74 -94 -98s-85.167 -36 -136.5 -36c-50.667 0 -96 12 -136 36
s-71.5 56.667 -94.5 98s-34.5 88.333 -34.5 141zM40 350c0 -50.667 8.83301 -98 26.5 -142s42.5 -82.167 74.5 -114.5s69.667 -57.666 113 -75.999s90.333 -27.5 141 -27.5c51.333 0 98.5 9.16699 141.5 27.5s80.5 43.666 112.5 75.999s56.833 70.5 74.5 114.5
s26.5 91.333 26.5 142c0 51.333 -8.83301 98.833 -26.5 142.5s-42.5 81.667 -74.5 114s-69.5 57.666 -112.5 75.999s-90.167 27.5 -141.5 27.5c-50.667 0 -97.667 -9.16699 -141 -27.5s-81 -43.666 -113 -75.999s-56.833 -70.333 -74.5 -114s-26.5 -91.167 -26.5 -142.5z
M220 770h350v75h-350v-75z" />
    <glyph glyph-name="uni014D" unicode="&#x14d;" horiz-adv-x="546" 
d="M35 230c0 -46 10.5 -87.167 31.5 -123.5s49.5 -64.833 85.5 -85.5s76.333 -31 121 -31c45.333 0 85.833 10.333 121.5 31s64 49.167 85 85.5s31.5 77.5 31.5 123.5c0 46.667 -10.5 88 -31.5 124s-49.333 64.333 -85 85s-76.167 31 -121.5 31
c-44.667 0 -85 -10.333 -121 -31s-64.5 -49 -85.5 -85s-31.5 -77.333 -31.5 -124zM116 230c0 32 6.83301 60.5 20.5 85.5s32.334 44.5 56.001 58.5s50.5 21 80.5 21s56.833 -7 80.5 -21s42.334 -33.5 56.001 -58.5s20.5 -53.5 20.5 -85.5s-6.83301 -60.333 -20.5 -85
s-32.334 -44.167 -56.001 -58.5s-50.5 -21.5 -80.5 -21.5s-56.833 7.16699 -80.5 21.5s-42.334 33.833 -56.001 58.5s-20.5 53 -20.5 85zM98 530h350v75h-350v-75z" />
    <glyph glyph-name="Obreve" unicode="&#x14e;" horiz-adv-x="790" 
d="M130 350c0 52.667 11.5 99.667 34.5 141s54.5 74 94.5 98s85.333 36 136 36c51.333 0 96.833 -12 136.5 -36s71 -56.667 94 -98s34.5 -88.333 34.5 -141s-11.5 -99.667 -34.5 -141s-54.333 -74 -94 -98s-85.167 -36 -136.5 -36c-50.667 0 -96 12 -136 36
s-71.5 56.667 -94.5 98s-34.5 88.333 -34.5 141zM40 350c0 -50.667 8.83301 -98 26.5 -142s42.5 -82.167 74.5 -114.5s69.667 -57.666 113 -75.999s90.333 -27.5 141 -27.5c51.333 0 98.5 9.16699 141.5 27.5s80.5 43.666 112.5 75.999s56.833 70.5 74.5 114.5
s26.5 91.333 26.5 142c0 51.333 -8.83301 98.833 -26.5 142.5s-42.5 81.667 -74.5 114s-69.5 57.666 -112.5 75.999s-90.167 27.5 -141.5 27.5c-50.667 0 -97.667 -9.16699 -141 -27.5s-81 -43.666 -113 -75.999s-56.833 -70.333 -74.5 -114s-26.5 -91.167 -26.5 -142.5z
M237 910c0 -22.667 5.83398 -44.834 17.501 -66.501s29.334 -39.334 53.001 -53.001s52.834 -20.5 87.501 -20.5c35.333 0 64.666 6.83301 87.999 20.5s40.833 31.334 52.5 53.001s17.5 43.834 17.5 66.501h-71c0 -8.66699 -2.33301 -18.834 -7 -30.501
s-13.334 -22 -26.001 -31s-30.667 -13.5 -54 -13.5s-41.333 4.5 -54 13.5s-21.334 19.333 -26.001 31s-7 21.834 -7 30.501h-71z" />
    <glyph glyph-name="uni014F" unicode="&#x14f;" horiz-adv-x="546" 
d="M35 230c0 -46 10.5 -87.167 31.5 -123.5s49.5 -64.833 85.5 -85.5s76.333 -31 121 -31c45.333 0 85.833 10.333 121.5 31s64 49.167 85 85.5s31.5 77.5 31.5 123.5c0 46.667 -10.5 88 -31.5 124s-49.333 64.333 -85 85s-76.167 31 -121.5 31
c-44.667 0 -85 -10.333 -121 -31s-64.5 -49 -85.5 -85s-31.5 -77.333 -31.5 -124zM116 230c0 32 6.83301 60.5 20.5 85.5s32.334 44.5 56.001 58.5s50.5 21 80.5 21s56.833 -7 80.5 -21s42.334 -33.5 56.001 -58.5s20.5 -53.5 20.5 -85.5s-6.83301 -60.333 -20.5 -85
s-32.334 -44.167 -56.001 -58.5s-50.5 -21.5 -80.5 -21.5s-56.833 7.16699 -80.5 21.5s-42.334 33.833 -56.001 58.5s-20.5 53 -20.5 85zM115 670c0 -22.667 5.83398 -44.834 17.501 -66.501s29.334 -39.334 53.001 -53.001s52.834 -20.5 87.501 -20.5
c35.333 0 64.666 6.83301 87.999 20.5s40.833 31.334 52.5 53.001s17.5 43.834 17.5 66.501h-71c0 -8.66699 -2.33301 -18.834 -7 -30.501s-13.334 -22 -26.001 -31s-30.667 -13.5 -54 -13.5s-41.333 4.5 -54 13.5s-21.334 19.333 -26.001 31s-7 21.834 -7 30.501h-71z" />
    <glyph glyph-name="OE" unicode="&#x152;" horiz-adv-x="985" 
d="M515 620l-0.000976562 -539.999h-125c-52 0 -98 11.167 -138 33.5s-71.167 53.833 -93.5 94.5s-33.5 88 -33.5 142c0 54.667 11.167 102.167 33.5 142.5s53.333 71.666 93 93.999s85.834 33.5 138.501 33.5h125zM915.999 80.001l-316 -0.00195312v260h295v80h-295v200
h315v80h-525c-68 0 -128.333 -14.667 -181 -44s-94 -70.166 -124 -122.499s-45 -113.5 -45 -183.5s15 -131.167 45 -183.5s71.5 -93.166 124.5 -122.499s113.167 -44 180.5 -44h526v80z" />
    <glyph glyph-name="oe" unicode="&#x153;" horiz-adv-x="900" 
d="M504 278c4 37.333 19.832 67 47.499 89s59.834 33 96.501 33c40 0 70.667 -11.333 92 -34s34 -52 38 -88h-274zM34.999 230c0 -49.333 10.3301 -92.0029 30.9971 -128.003s48.334 -63.667 83.001 -83s72.667 -29 114 -29c46 0 85 11.667 117 35s55.333 56.333 70 99
c17.333 -40.667 43.5 -73.167 78.5 -97.5s74.833 -36.5 119.5 -36.5c49.333 0 90.833 10.833 124.5 32.5s61.834 49.834 84.501 84.501l-65 41c-15.333 -24.667 -34.833 -44.667 -58.5 -60s-52.167 -23 -85.5 -23c-42 0 -76 12.5 -102 37.5s-40.667 60.833 -44 107.5h362
c0.666992 4 1 8 1 12v12c0 48.667 -9.66699 90.5 -29 125.5s-44.666 62.167 -75.999 81.5s-65.333 29 -102 29c-48.667 0 -91.167 -12.167 -127.5 -36.5s-63.166 -57.166 -80.499 -98.499c-14.667 42.667 -38 75.834 -70 99.501s-71 35.5 -117 35.5
c-41.333 0 -79.333 -9.66699 -114 -29s-62.334 -46.833 -83.001 -82.5s-31 -78.5 -31 -128.5zM115.996 229.997c0 35.333 7.16699 65.333 21.5 90s33.5 43.334 57.5 56.001s50 19 78 19c23.333 0 45.5 -6.33301 66.5 -19s38 -31.334 51 -56.001s19.5 -54.667 19.5 -90
s-6.5 -65.333 -19.5 -90s-30 -43.334 -51 -56.001s-43.167 -19 -66.5 -19c-28 0 -54 6.33301 -78 19s-43.167 31.334 -57.5 56.001s-21.5 54.667 -21.5 90z" />
    <glyph glyph-name="uni0154" unicode="&#x154;" horiz-adv-x="560" 
d="M165 355v270h105c45.333 0 82.166 -11.667 110.499 -35s42.5 -56.666 42.5 -99.999c0 -42.667 -14.167 -75.834 -42.5 -99.501s-65.166 -35.5 -110.499 -35.5h-105zM165 280l85 0.000976562l195 -280h105l-209 288c49.333 12 89.5 35.5 120.5 70.5
s46.5 78.833 46.5 131.5c0 43.333 -10.5 80.666 -31.5 111.999s-49.333 55.5 -85 72.5s-76.167 25.5 -121.5 25.5h-105h-38h-47v-700h85v280zM405 920.001l-75 40l-150 -160l45 -30z" />
    <glyph glyph-name="racute" unicode="&#x155;" horiz-adv-x="343" 
d="M294 372l43.999 65.999c-12 12.667 -25.167 21.167 -39.5 25.5s-29.833 6.5 -46.5 6.5c-17.333 0 -34.5 -5.66699 -51.5 -17s-32.167 -26.666 -45.5 -45.999v53h-80v-460h80v280c0 33.333 5.33301 60.833 16 82.5s31 32.5 61 32.5c13.333 0 24.333 -1.83301 33 -5.5
s18.334 -9.5 29.001 -17.5zM335.999 679.999l-74 40l-150 -160l44 -30z" />
    <glyph glyph-name="uni0156" unicode="&#x156;" horiz-adv-x="560" 
d="M165 355v270h105c45.333 0 82.166 -11.667 110.499 -35s42.5 -56.666 42.5 -99.999c0 -42.667 -14.167 -75.834 -42.5 -99.501s-65.166 -35.5 -110.499 -35.5h-105zM165 280l85 0.000976562l195 -280h105l-209 288c49.333 12 89.5 35.5 120.5 70.5
s46.5 78.833 46.5 131.5c0 43.333 -10.5 80.666 -31.5 111.999s-49.333 55.5 -85 72.5s-76.167 25.5 -121.5 25.5h-105h-38h-47v-700h85v280zM319 -59.999l-88 -259l58 -21l110 250z" />
    <glyph glyph-name="uni0157" unicode="&#x157;" horiz-adv-x="343" 
d="M294 372l43.999 65.999c-12 12.667 -25.167 21.167 -39.5 25.5s-29.833 6.5 -46.5 6.5c-17.333 0 -34.5 -5.66699 -51.5 -17s-32.167 -26.666 -45.5 -45.999v53h-80v-460h80v280c0 33.333 5.33301 60.833 16 82.5s31 32.5 61 32.5c13.333 0 24.333 -1.83301 33 -5.5
s18.334 -9.5 29.001 -17.5zM118.999 -60.001l-88 -259l58 -21l110 250z" />
    <glyph glyph-name="uni0158" unicode="&#x158;" horiz-adv-x="560" 
d="M165 355v270h105c45.333 0 82.166 -11.667 110.499 -35s42.5 -56.666 42.5 -99.999c0 -42.667 -14.167 -75.834 -42.5 -99.501s-65.166 -35.5 -110.499 -35.5h-105zM165 280l85 0.000976562l195 -280h105l-209 288c49.333 12 89.5 35.5 120.5 70.5
s46.5 78.833 46.5 131.5c0 43.333 -10.5 80.666 -31.5 111.999s-49.333 55.5 -85 72.5s-76.167 25.5 -121.5 25.5h-105h-38h-47v-700h85v280zM255 855.001l-110 95l-50 -40l160 -140l160 140l-50 40z" />
    <glyph glyph-name="rcaron" unicode="&#x159;" horiz-adv-x="343" 
d="M294 372l43.999 65.999c-12 12.667 -25.167 21.167 -39.5 25.5s-29.833 6.5 -46.5 6.5c-17.333 0 -34.5 -5.66699 -51.5 -17s-32.167 -26.666 -45.5 -45.999v53h-80v-460h80v280c0 33.333 5.33301 60.833 16 82.5s31 32.5 61 32.5c13.333 0 24.333 -1.83301 33 -5.5
s18.334 -9.5 29.001 -17.5zM205.999 614.999l-110 95l-50 -40l160 -140l160 140l-50 40z" />
    <glyph glyph-name="Sacute" unicode="&#x15a;" horiz-adv-x="548" 
d="M112 226l-71.9971 -43.0059c22 -57.333 54.833 -103.833 98.5 -139.5s94.167 -53.5 151.5 -53.5c69.333 0 122.166 18.5 158.499 55.5s54.5 85.167 54.5 144.5c0 32 -5.66699 59.5 -17 82.5s-26 42.333 -44 58s-37.333 28.834 -58 39.501s-40 19.334 -58 26.001
c-28 10.667 -54.333 22 -79 34s-44.667 25.833 -60 41.5s-23 34.834 -23 57.501c0 30.667 10.5 55 31.5 73s48.833 27 83.5 27c26 0 48 -5.5 66 -16.5s33.333 -25.333 46 -43s24 -36.167 34 -55.5l69 46c-9.33301 24 -23.833 47.5 -43.5 70.5s-43.834 42 -72.501 57
s-62 22.5 -100 22.5s-72.333 -7.16699 -103 -21.5s-55 -34.666 -73 -60.999s-27 -57.166 -27 -92.499c0 -30 5.83301 -56 17.5 -78s26.5 -40.667 44.5 -56s37.167 -28.166 57.5 -38.499s39.166 -18.5 56.499 -24.5c26.667 -9.33301 52.5 -20.333 77.5 -33
s45.667 -28.667 62 -48s24.5 -44 24.5 -74c0 -34.667 -10 -62.167 -30 -82.5s-50 -30.5 -90 -30.5c-43.333 0 -79.333 14 -108 42s-53.667 66 -75 114zM458.003 919.994l-75 40l-150 -160l45 -30z" />
    <glyph glyph-name="uni015B" unicode="&#x15b;" horiz-adv-x="403" 
d="M91 161l-65.9971 -37.998c4.66699 -24.667 15.834 -47.167 33.501 -67.5s39.5 -36.333 65.5 -48s53 -17.5 81 -17.5c49.333 0 89.666 11 120.999 33s47 57.667 47 107c0 22.667 -6 42.5 -18 59.5s-27.667 31.833 -47 44.5s-40 23.334 -62 32.001
c-16.667 7.33301 -33.667 14.666 -51 21.999s-31.833 15.5 -43.5 24.5s-17.5 19.5 -17.5 31.5c0 18 6.66699 30.833 20 38.5s30 11.5 50 11.5c18.667 0 37.5 -5.33301 56.5 -16s33.833 -23.667 44.5 -39l64 41c-6 17.333 -17.5 32.666 -34.5 45.999s-37 24 -60 32
s-46.833 12 -71.5 12s-48.334 -4.83301 -71.001 -14.5s-41.334 -23.5 -56.001 -41.5s-22 -39.667 -22 -65s6.66699 -46.5 20 -63.5s30.166 -30.833 50.499 -41.5s40.833 -20.334 61.5 -29.001c18 -6.66699 34.833 -14 50.5 -22s28.5 -17.5 38.5 -28.5s15 -24.833 15 -41.5
c0 -20 -7 -34.667 -21 -44s-33.667 -14 -59 -14c-28.667 0 -54.167 9 -76.5 27s-36.5 41 -42.5 69zM383.003 680.002l-75 40l-150 -160l45 -30z" />
    <glyph glyph-name="uni015C" unicode="&#x15c;" horiz-adv-x="548" 
d="M112 226l-71.9971 -43.0059c22 -57.333 54.833 -103.833 98.5 -139.5s94.167 -53.5 151.5 -53.5c69.333 0 122.166 18.5 158.499 55.5s54.5 85.167 54.5 144.5c0 32 -5.66699 59.5 -17 82.5s-26 42.333 -44 58s-37.333 28.834 -58 39.501s-40 19.334 -58 26.001
c-28 10.667 -54.333 22 -79 34s-44.667 25.833 -60 41.5s-23 34.834 -23 57.501c0 30.667 10.5 55 31.5 73s48.833 27 83.5 27c26 0 48 -5.5 66 -16.5s33.333 -25.333 46 -43s24 -36.167 34 -55.5l69 46c-9.33301 24 -23.833 47.5 -43.5 70.5s-43.834 42 -72.501 57
s-62 22.5 -100 22.5s-72.333 -7.16699 -103 -21.5s-55 -34.666 -73 -60.999s-27 -57.166 -27 -92.499c0 -30 5.83301 -56 17.5 -78s26.5 -40.667 44.5 -56s37.167 -28.166 57.5 -38.499s39.166 -18.5 56.499 -24.5c26.667 -9.33301 52.5 -20.333 77.5 -33
s45.667 -28.667 62 -48s24.5 -44 24.5 -74c0 -34.667 -10 -62.167 -30 -82.5s-50 -30.5 -90 -30.5c-43.333 0 -79.333 14 -108 42s-53.667 66 -75 114zM278.003 864.994l110 -95l50 40l-160 140l-160 -140l50 -40z" />
    <glyph glyph-name="uni015D" unicode="&#x15d;" horiz-adv-x="403" 
d="M91 161l-65.9971 -37.998c4.66699 -24.667 15.834 -47.167 33.501 -67.5s39.5 -36.333 65.5 -48s53 -17.5 81 -17.5c49.333 0 89.666 11 120.999 33s47 57.667 47 107c0 22.667 -6 42.5 -18 59.5s-27.667 31.833 -47 44.5s-40 23.334 -62 32.001
c-16.667 7.33301 -33.667 14.666 -51 21.999s-31.833 15.5 -43.5 24.5s-17.5 19.5 -17.5 31.5c0 18 6.66699 30.833 20 38.5s30 11.5 50 11.5c18.667 0 37.5 -5.33301 56.5 -16s33.833 -23.667 44.5 -39l64 41c-6 17.333 -17.5 32.666 -34.5 45.999s-37 24 -60 32
s-46.833 12 -71.5 12s-48.334 -4.83301 -71.001 -14.5s-41.334 -23.5 -56.001 -41.5s-22 -39.667 -22 -65s6.66699 -46.5 20 -63.5s30.166 -30.833 50.499 -41.5s40.833 -20.334 61.5 -29.001c18 -6.66699 34.833 -14 50.5 -22s28.5 -17.5 38.5 -28.5s15 -24.833 15 -41.5
c0 -20 -7 -34.667 -21 -44s-33.667 -14 -59 -14c-28.667 0 -54.167 9 -76.5 27s-36.5 41 -42.5 69zM203.003 625.002l110 -95l50 40l-160 140l-160 -140l50 -40z" />
    <glyph glyph-name="uni015E" unicode="&#x15e;" horiz-adv-x="548" 
d="M112 226l-72.002 -43.0039c20.667 -53.333 50.5 -97.333 89.5 -132s84.167 -54.667 135.5 -60l-51 -100c10.667 7.33301 21.834 12.166 33.501 14.499s19.834 3.5 24.501 3.5c33.333 0 50 -12 50 -36c0 -12 -4 -21.667 -12 -29s-20.667 -11 -38 -11
c-12.667 0 -22.834 2 -30.501 6s-16.167 10 -25.5 18l-34 -40c14 -14 27.833 -23.833 41.5 -29.5s29.834 -8.5 48.501 -8.5c27.333 0 51.833 8 73.5 24s32.5 39.333 32.5 70c0 24.667 -7.83301 43.167 -23.5 55.5s-31.834 18.5 -48.501 18.5h-4.5h-4.5l25 45
c55.333 6 99.333 26.833 132 62.5s49 80.834 49 135.501c0 32 -5.66699 59.5 -17 82.5s-26 42.333 -44 58s-37.333 28.834 -58 39.501s-40 19.334 -58 26.001c-28 10.667 -54.333 22 -79 34s-44.667 25.833 -60 41.5s-23 34.834 -23 57.501c0 30.667 8.83301 55 26.5 73
s43.834 27 78.501 27c26 0 48.833 -5.5 68.5 -16.5s36.667 -25.333 51 -43s26.5 -36.167 36.5 -55.5l69 46c-12 27.333 -27.667 52.333 -47 75s-42.833 40.834 -70.5 54.501s-60.5 20.5 -98.5 20.5c-41.333 0 -77.166 -7.66699 -107.499 -23s-53.833 -36.5 -70.5 -63.5
s-25 -58.167 -25 -93.5c0 -32 5.83301 -59 17.5 -81s26.5 -40 44.5 -54s37.167 -25.5 57.5 -34.5s39.166 -16.5 56.499 -22.5c26.667 -9.33301 52.5 -20.333 77.5 -33s45.667 -28.667 62 -48s24.5 -44 24.5 -74c0 -34.667 -10 -62.167 -30 -82.5s-50 -30.5 -90 -30.5
c-43.333 0 -79.333 14 -108 42s-53.667 66 -75 114z" />
    <glyph glyph-name="uni015F" unicode="&#x15f;" horiz-adv-x="403" 
d="M88 163l-62.9951 -38.9941c15.333 -34 37.5 -63 66.5 -87s61.833 -38.667 98.5 -44l-50 -101c10.667 7.33301 21.5 12.166 32.5 14.499s18.833 3.5 23.5 3.5c33.333 0 50 -12 50 -36c0 -12 -4 -21.667 -12 -29s-20.667 -11 -38 -11c-12.667 0 -22.834 2 -30.501 6
s-16.167 10 -25.5 18l-32 -40c14 -14 27.5 -23.833 40.5 -29.5s28.833 -8.5 47.5 -8.5c27.333 0 52.166 8 74.499 24s33.5 39.333 33.5 70c0 24.667 -8.16699 43.167 -24.5 55.5s-32.833 18.5 -49.5 18.5h-4h-4l26 45c36.667 4.66699 66.667 18.167 90 40.5
s35 54.833 35 97.5c0 26 -6 47.667 -18 65s-27.667 32 -47 44s-40 22.333 -62 31c-16.667 7.33301 -33.834 14.166 -51.501 20.499s-32.5 14 -44.5 23s-18 20.833 -18 35.5c0 18 7 30.5 21 37.5s31 10.5 51 10.5c18.667 0 37.5 -5.83301 56.5 -17.5
s33.833 -25.167 44.5 -40.5l64 41c-14 25.333 -36 46.666 -66 63.999s-63.333 26 -100 26c-24.667 0 -48.334 -4.33301 -71.001 -13s-41.334 -22.167 -56.001 -40.5s-22 -41.833 -22 -70.5s6.66699 -51.334 20 -68.001s30.166 -29.834 50.499 -39.501
s40.833 -18.834 61.5 -27.501c18 -6.66699 34.833 -14 50.5 -22s28.5 -17.333 38.5 -28s15 -24 15 -40c0 -19.333 -7.16699 -33.5 -21.5 -42.5s-32.166 -13.5 -53.499 -13.5c-22 0 -44.667 9.16699 -68 27.5s-43 41.5 -59 69.5z" />
    <glyph glyph-name="Scaron" unicode="&#x160;" horiz-adv-x="548" 
d="M112 226l-71.9971 -43.0059c22 -57.333 54.833 -103.833 98.5 -139.5s94.167 -53.5 151.5 -53.5c69.333 0 122.166 18.5 158.499 55.5s54.5 85.167 54.5 144.5c0 32 -5.66699 59.5 -17 82.5s-26 42.333 -44 58s-37.333 28.834 -58 39.501s-40 19.334 -58 26.001
c-28 10.667 -54.333 22 -79 34s-44.667 25.833 -60 41.5s-23 34.834 -23 57.501c0 30.667 10.5 55 31.5 73s48.833 27 83.5 27c26 0 48 -5.5 66 -16.5s33.333 -25.333 46 -43s24 -36.167 34 -55.5l69 46c-9.33301 24 -23.833 47.5 -43.5 70.5s-43.834 42 -72.501 57
s-62 22.5 -100 22.5s-72.333 -7.16699 -103 -21.5s-55 -34.666 -73 -60.999s-27 -57.166 -27 -92.499c0 -30 5.83301 -56 17.5 -78s26.5 -40.667 44.5 -56s37.167 -28.166 57.5 -38.499s39.166 -18.5 56.499 -24.5c26.667 -9.33301 52.5 -20.333 77.5 -33
s45.667 -28.667 62 -48s24.5 -44 24.5 -74c0 -34.667 -10 -62.167 -30 -82.5s-50 -30.5 -90 -30.5c-43.333 0 -79.333 14 -108 42s-53.667 66 -75 114zM278.003 854.994l-110 95l-50 -40l160 -140l160 140l-50 40z" />
    <glyph glyph-name="scaron" unicode="&#x161;" horiz-adv-x="403" 
d="M91 161l-65.9971 -37.998c4.66699 -24.667 15.834 -47.167 33.501 -67.5s39.5 -36.333 65.5 -48s53 -17.5 81 -17.5c49.333 0 89.666 11 120.999 33s47 57.667 47 107c0 22.667 -6 42.5 -18 59.5s-27.667 31.833 -47 44.5s-40 23.334 -62 32.001
c-16.667 7.33301 -33.667 14.666 -51 21.999s-31.833 15.5 -43.5 24.5s-17.5 19.5 -17.5 31.5c0 18 6.66699 30.833 20 38.5s30 11.5 50 11.5c18.667 0 37.5 -5.33301 56.5 -16s33.833 -23.667 44.5 -39l64 41c-6 17.333 -17.5 32.666 -34.5 45.999s-37 24 -60 32
s-46.833 12 -71.5 12s-48.334 -4.83301 -71.001 -14.5s-41.334 -23.5 -56.001 -41.5s-22 -39.667 -22 -65s6.66699 -46.5 20 -63.5s30.166 -30.833 50.499 -41.5s40.833 -20.334 61.5 -29.001c18 -6.66699 34.833 -14 50.5 -22s28.5 -17.5 38.5 -28.5s15 -24.833 15 -41.5
c0 -20 -7 -34.667 -21 -44s-33.667 -14 -59 -14c-28.667 0 -54.167 9 -76.5 27s-36.5 41 -42.5 69zM203.003 615.002l-110 95l-50 -40l160 -140l160 140l-50 40z" />
    <glyph glyph-name="uni0164" unicode="&#x164;" horiz-adv-x="465" 
d="M10 620h180v-620h85v620h180v80h-445v-80zM232 855l-110 95l-50 -40l160 -140l160 140l-50 40z" />
    <glyph glyph-name="tcaron" unicode="&#x165;" horiz-adv-x="350" 
d="M80 620v-160h-75v-75h75v-385h80v385h75v75h-75v160h-80zM295 810l-88 -259l58 -21l110 250z" />
    <glyph glyph-name="Uring" unicode="&#x16e;" horiz-adv-x="626" 
d="M75 700l-0.000976562 -470c0 -46 9.83301 -87.167 29.5 -123.5s47.334 -64.833 83.001 -85.5s77.5 -31 125.5 -31c48.667 0 90.667 10.333 126 31s62.833 49.167 82.5 85.5s29.5 77.5 29.5 123.5v470h-85v-470c0 -48 -13 -86.667 -39 -116s-64 -44 -114 -44
s-88 14.667 -114 44s-39 68 -39 116v470h-85zM210.999 870c0 -30 10.5 -54.167 31.5 -72.5s44.5 -27.5 70.5 -27.5s49.5 9.16699 70.5 27.5s31.5 42.5 31.5 72.5s-10.5 54.167 -31.5 72.5s-44.5 27.5 -70.5 27.5s-49.5 -9.16699 -70.5 -27.5s-31.5 -42.5 -31.5 -72.5z
M261.999 870c0 16.667 5.33301 29.667 16 39s22.334 14 35.001 14s24.334 -4.66699 35.001 -14s16 -22.333 16 -39s-5.33301 -29.667 -16 -39s-22.334 -14 -35.001 -14s-24.334 4.66699 -35.001 14s-16 22.333 -16 39z" />
    <glyph glyph-name="uni016F" unicode="&#x16f;" horiz-adv-x="525" 
d="M155 180l-0.000976562 279.999h-80v-290c0 -59.333 14.5 -104.166 43.5 -134.499s67.167 -45.5 114.5 -45.5c30 0 56.833 7.5 80.5 22.5s42.5 35.167 56.5 60.5v-73h80v460h-80v-280c0 -32.667 -10.667 -60 -32 -82s-49.666 -33 -84.999 -33
c-65.333 0 -98 38.333 -98 115zM159.999 629.999c0 -30 10.5 -54.167 31.5 -72.5s44.5 -27.5 70.5 -27.5s49.5 9.16699 70.5 27.5s31.5 42.5 31.5 72.5s-10.5 54.167 -31.5 72.5s-44.5 27.5 -70.5 27.5s-49.5 -9.16699 -70.5 -27.5s-31.5 -42.5 -31.5 -72.5z
M211.999 629.999c0 16.667 5.16699 29.667 15.5 39s21.833 14 34.5 14s24.5 -4.66699 35.5 -14s16.5 -22.333 16.5 -39s-5.5 -29.667 -16.5 -39s-22.833 -14 -35.5 -14s-24.167 4.66699 -34.5 14s-15.5 22.333 -15.5 39z" />
    <glyph glyph-name="uni0178" unicode="&#x178;" horiz-adv-x="561" 
d="M126 825c0 -14.667 5.33301 -27.5 16 -38.5s23.334 -16.5 38.001 -16.5c15.333 0 28.5 5.5 39.5 16.5s16.5 23.833 16.5 38.5c0 15.333 -5.5 28.333 -16.5 39s-24.167 16 -39.5 16c-14.667 0 -27.334 -5.33301 -38.001 -16s-16 -23.667 -16 -39zM326 825
c0 -14.667 5.33301 -27.5 16 -38.5s23.334 -16.5 38.001 -16.5c15.333 0 28.5 5.5 39.5 16.5s16.5 23.833 16.5 38.5c0 15.333 -5.5 28.333 -16.5 39s-24.167 16 -39.5 16c-14.667 0 -27.334 -5.33301 -38.001 -16s-16 -23.667 -16 -39zM461 700l-181 -324l-180 324h-95
l233 -399v-301h85v302l233 398h-95z" />
    <glyph glyph-name="glyph370" unicode="&#x179;" horiz-adv-x="545" 
d="M35 620h348l-368 -620h490v80h-348l368 620h-490v-80zM440 920l-75 40l-150 -160l45 -30z" />
    <glyph glyph-name="uni017A" unicode="&#x17a;" horiz-adv-x="460" 
d="M300 385l-285 -385h410v75h-265l285 385h-400v-75h255zM405 700l-75 40l-150 -160l45 -30z" />
    <glyph glyph-name="Zdotaccent" unicode="&#x17b;" horiz-adv-x="545" 
d="M35 620h348l-368 -620h490v80h-348l368 620h-490v-80zM225 825c0 -14.667 5.5 -27.5 16.5 -38.5s23.833 -16.5 38.5 -16.5c15.333 0 28.333 5.5 39 16.5s16 23.833 16 38.5c0 15.333 -5.33301 28.333 -16 39s-23.667 16 -39 16c-14.667 0 -27.5 -5.33301 -38.5 -16
s-16.5 -23.667 -16.5 -39z" />
    <glyph glyph-name="uni017C" unicode="&#x17c;" horiz-adv-x="460" 
d="M300 385l-285 -385h410v75h-265l285 385h-400v-75h255zM190 615c0 -14.667 5.5 -27.5 16.5 -38.5s23.833 -16.5 38.5 -16.5c15.333 0 28.333 5.5 39 16.5s16 23.833 16 38.5c0 15.333 -5.33301 28.333 -16 39s-23.667 16 -39 16c-14.667 0 -27.5 -5.33301 -38.5 -16
s-16.5 -23.667 -16.5 -39z" />
    <glyph glyph-name="uni017D" unicode="&#x17d;" horiz-adv-x="545" 
d="M35 620h348l-368 -620h490v80h-348l368 620h-490v-80zM280 855l-110 95l-50 -40l160 -140l160 140l-50 40z" />
    <glyph glyph-name="uni017E" unicode="&#x17e;" horiz-adv-x="460" 
d="M245 615l-110 95l-50 -40l160 -140l160 140l-50 40zM300 385l-285 -385h410v75h-265l285 385h-400v-75h255z" />
    <glyph glyph-name="uni0212" unicode="&#x212;" horiz-adv-x="560" 
d="M165 355v270h105c45.333 0 82.166 -11.667 110.499 -35s42.5 -56.666 42.5 -99.999c0 -42.667 -14.167 -75.834 -42.5 -99.501s-65.166 -35.5 -110.499 -35.5h-105zM165 280l85 0.000976562l195 -280h105l-209 288c49.333 12 89.5 35.5 120.5 70.5
s46.5 78.833 46.5 131.5c0 43.333 -10.5 80.666 -31.5 111.999s-49.333 55.5 -85 72.5s-76.167 25.5 -121.5 25.5h-105h-38h-47v-700h85v280zM117 770.001h70.999c0 8.66699 2.33301 18.834 7 30.501s13.334 22 26.001 31s30.667 13.5 54 13.5s41.333 -4.5 54 -13.5
s21.334 -19.333 26.001 -31s7 -21.834 7 -30.501h71c0 23.333 -5.83301 45.666 -17.5 66.999s-29.167 38.833 -52.5 52.5s-52.666 20.5 -87.999 20.5c-34.667 0 -63.834 -6.83301 -87.501 -20.5s-41.334 -31.167 -53.001 -52.5s-17.5 -43.666 -17.5 -66.999z" />
    <glyph glyph-name="uni0213" unicode="&#x213;" horiz-adv-x="343" 
d="M294 372l43.999 65.999c-12 12.667 -25.167 21.167 -39.5 25.5s-29.833 6.5 -46.5 6.5c-17.333 0 -34.5 -5.66699 -51.5 -17s-32.167 -26.666 -45.5 -45.999v53h-80v-460h80v280c0 33.333 5.33301 60.833 16 82.5s31 32.5 61 32.5c13.333 0 24.333 -1.83301 33 -5.5
s18.334 -9.5 29.001 -17.5zM48.999 529.999h70.999c0 8.66699 2.33301 18.834 7 30.501s13.334 22 26.001 31s30.667 13.5 54 13.5s41.333 -4.5 54 -13.5s21.334 -19.333 26.001 -31s7 -21.834 7 -30.501h71c0 23.333 -5.83301 45.666 -17.5 66.999
s-29.167 38.833 -52.5 52.5s-52.666 20.5 -87.999 20.5c-34.667 0 -63.834 -6.83301 -87.501 -20.5s-41.334 -31.167 -53.001 -52.5s-17.5 -43.666 -17.5 -66.999z" />
    <glyph glyph-name="uni0218" unicode="&#x218;" horiz-adv-x="548" 
d="M112 226l-71.9971 -43.0059c22 -57.333 54.833 -103.833 98.5 -139.5s94.167 -53.5 151.5 -53.5c69.333 0 122.166 18.5 158.499 55.5s54.5 85.167 54.5 144.5c0 32 -5.66699 59.5 -17 82.5s-26 42.333 -44 58s-37.333 28.834 -58 39.501s-40 19.334 -58 26.001
c-28 10.667 -54.333 22 -79 34s-44.667 25.833 -60 41.5s-23 34.834 -23 57.501c0 30.667 10.5 55 31.5 73s48.833 27 83.5 27c26 0 48 -5.5 66 -16.5s33.333 -25.333 46 -43s24 -36.167 34 -55.5l69 46c-9.33301 24 -23.833 47.5 -43.5 70.5s-43.834 42 -72.501 57
s-62 22.5 -100 22.5s-72.333 -7.16699 -103 -21.5s-55 -34.666 -73 -60.999s-27 -57.166 -27 -92.499c0 -30 5.83301 -56 17.5 -78s26.5 -40.667 44.5 -56s37.167 -28.166 57.5 -38.499s39.166 -18.5 56.499 -24.5c26.667 -9.33301 52.5 -20.333 77.5 -33
s45.667 -28.667 62 -48s24.5 -44 24.5 -74c0 -34.667 -10 -62.167 -30 -82.5s-50 -30.5 -90 -30.5c-43.333 0 -79.333 14 -108 42s-53.667 66 -75 114zM294.003 -70.0059l-88 -259l58 -21l110 250z" />
    <glyph glyph-name="uni0219" unicode="&#x219;" horiz-adv-x="403" 
d="M91 161l-65.9971 -37.998c4.66699 -24.667 15.834 -47.167 33.501 -67.5s39.5 -36.333 65.5 -48s53 -17.5 81 -17.5c49.333 0 89.666 11 120.999 33s47 57.667 47 107c0 22.667 -6 42.5 -18 59.5s-27.667 31.833 -47 44.5s-40 23.334 -62 32.001
c-16.667 7.33301 -33.667 14.666 -51 21.999s-31.833 15.5 -43.5 24.5s-17.5 19.5 -17.5 31.5c0 18 6.66699 30.833 20 38.5s30 11.5 50 11.5c18.667 0 37.5 -5.33301 56.5 -16s33.833 -23.667 44.5 -39l64 41c-6 17.333 -17.5 32.666 -34.5 45.999s-37 24 -60 32
s-46.833 12 -71.5 12s-48.334 -4.83301 -71.001 -14.5s-41.334 -23.5 -56.001 -41.5s-22 -39.667 -22 -65s6.66699 -46.5 20 -63.5s30.166 -30.833 50.499 -41.5s40.833 -20.334 61.5 -29.001c18 -6.66699 34.833 -14 50.5 -22s28.5 -17.5 38.5 -28.5s15 -24.833 15 -41.5
c0 -20 -7 -34.667 -21 -44s-33.667 -14 -59 -14c-28.667 0 -54.167 9 -76.5 27s-36.5 41 -42.5 69zM209.003 -69.998l-88 -259l58 -21l110 250z" />
    <glyph glyph-name="uni0237" unicode="&#x237;" horiz-adv-x="250" 
d="M-17 -114l-44.001 -65.999c7.33301 -10 18.5 -19.167 33.5 -27.5s33.167 -12.5 54.5 -12.5c42 0 74.667 13 98 39s35 66.333 35 121v520h-80v-510c0 -32.667 -4.16699 -55.834 -12.5 -69.501s-20.166 -20.5 -35.499 -20.5c-8 0 -16.333 1.5 -25 4.5
s-16.667 10.167 -24 21.5z" />
    <glyph glyph-name="uni02C6" unicode="&#x2c6;" horiz-adv-x="480" 
d="M240 645l110 -95l50 40l-160 140l-160 -140l50 -40z" />
    <glyph glyph-name="uni02C7" unicode="&#x2c7;" horiz-adv-x="480" 
d="M240 655l-110 95l-50 -40l160 -140l160 140l-50 40z" />
    <glyph glyph-name="breve" unicode="&#x2d8;" horiz-adv-x="546" 
d="M115 850c0 -22.667 5.83398 -44.834 17.501 -66.501s29.334 -39.334 53.001 -53.001s52.834 -20.5 87.501 -20.5c35.333 0 64.666 6.83301 87.999 20.5s40.833 31.334 52.5 53.001s17.5 43.834 17.5 66.501h-71c0 -8.66699 -2.33301 -18.834 -7 -30.501
s-13.334 -22 -26.001 -31s-30.667 -13.5 -54 -13.5s-41.333 4.5 -54 13.5s-21.334 19.333 -26.001 31s-7 21.834 -7 30.501h-71z" />
    <glyph glyph-name="uni02D9" unicode="&#x2d9;" horiz-adv-x="300" 
d="M95 790c0 -14.667 5.5 -27.5 16.5 -38.5s23.833 -16.5 38.5 -16.5c15.333 0 28.333 5.5 39 16.5s16 23.833 16 38.5c0 15.333 -5.33301 28.333 -16 39s-23.667 16 -39 16c-14.667 0 -27.5 -5.33301 -38.5 -16s-16.5 -23.667 -16.5 -39z" />
    <glyph glyph-name="uni02DA" unicode="&#x2da;" horiz-adv-x="278" 
d="M37 785c0 -30 10.5 -54.167 31.5 -72.5s44.5 -27.5 70.5 -27.5s49.5 9.16699 70.5 27.5s31.5 42.5 31.5 72.5s-10.5 54.167 -31.5 72.5s-44.5 27.5 -70.5 27.5s-49.5 -9.16699 -70.5 -27.5s-31.5 -42.5 -31.5 -72.5zM88 785c0 16.667 5.33301 29.667 16 39
s22.334 14 35.001 14s24.334 -4.66699 35.001 -14s16 -22.333 16 -39s-5.33301 -29.667 -16 -39s-22.334 -14 -35.001 -14s-24.334 4.66699 -35.001 14s-16 22.333 -16 39z" />
    <glyph glyph-name="uni02DB" unicode="&#x2db;" horiz-adv-x="260" 
d="M194 -130c-6.66699 -6.66699 -13.332 -11.6689 -19.999 -15.002s-16.667 -5 -30 -5c-14.667 0 -26.334 3.83301 -35.001 11.5s-13 20.5 -13 38.5c0 18.667 9 37.334 27 56.001s40 33.334 66 44.001l-41 25c-23.333 -12 -45 -25.5 -65 -40.5s-36.167 -31.167 -48.5 -48.5
s-18.5 -36 -18.5 -56c0 -29.333 10 -53.333 30 -72s51 -28 93 -28c21.333 0 39.5 4.16699 54.5 12.5s26.167 17.5 33.5 27.5z" />
    <glyph glyph-name="tilde" unicode="&#x2dc;" horiz-adv-x="530" 
d="M100 625l53.0029 -37c0 5.33301 1.33301 12 4 20s7.66699 15.167 15 21.5s17.666 9.5 30.999 9.5c15.333 0 28.5 -3.83301 39.5 -11.5s22.833 -15.5 35.5 -23.5s28 -12 46 -12c25.333 0 47.333 7.5 66 22.5s32 31.833 40 50.5l-46 43c-20 -32 -38.667 -48 -56 -48
c-13.333 0 -24.333 2.33301 -33 7s-16.834 10.167 -24.501 16.5s-16.667 11.833 -27 16.5s-23.5 7 -39.5 7c-22.667 0 -44.334 -7.5 -65.001 -22.5s-33.667 -34.833 -39 -59.5z" />
    <glyph glyph-name="uni03C0" unicode="&#x3c0;" horiz-adv-x="540" 
d="M30 460l-0.000976562 -75h60v-385h80v385h170v-264c0 -36 5.33301 -63.333 16 -82s25.834 -31.334 45.501 -38.001s43.5 -10 71.5 -10v80c-10 0 -19 1.33301 -27 4s-14.333 8.83398 -19 18.501s-7 25.5 -7 47.5v244h80v75h-470z" />
    <glyph glyph-name="uni1E9E" unicode="&#x1e9e;" horiz-adv-x="716" 
d="M453 -10c42 0 79.3311 8.00098 111.998 24.001s58.5 38.667 77.5 68s28.5 63.666 28.5 102.999c0 49.333 -12.833 88.5 -38.5 117.5s-59.167 49.833 -100.5 62.5c36.667 15.333 65.667 37.833 87 67.5s32 63.5 32 101.5s-11.5 70.167 -34.5 96.5
s-53.667 46.166 -92 59.499s-80.833 20 -127.5 20c-58 0 -111 -11.167 -159 -33.5s-86.333 -57.166 -115 -104.499s-43 -109.333 -43 -186v-386h85v386c0 60.667 10.667 109 32 145s49.833 62 85.5 78s74.167 24 115.5 24c50 0 90.167 -10.333 120.5 -31
s45.5 -47.667 45.5 -81c0 -32.667 -12.167 -61 -36.5 -85s-59.166 -36 -104.499 -36v-20v-35v-20c45.333 0 83.5 -10.833 114.5 -32.5s46.5 -54.167 46.5 -97.5c0 -38 -11.833 -68.333 -35.5 -91s-55.5 -34 -95.5 -34s-72.833 11 -98.5 33s-38.5 49.333 -38.5 82h-86
c0 -36 9.16699 -68.833 27.5 -98.5s44.333 -53.167 78 -70.5s72.834 -26 117.501 -26z" />
    <glyph glyph-name="uni2010" unicode="&#x2010;" horiz-adv-x="210" 
d="M5 200h200v75h-200v-75z" />
    <glyph glyph-name="figuredash" unicode="&#x2012;" horiz-adv-x="590" 
d="M70 200h450v75h-450v-75z" />
    <glyph glyph-name="endash" unicode="&#x2013;" horiz-adv-x="740" 
d="M70 200h600v75h-600v-75z" />
    <glyph glyph-name="uni2014" unicode="&#x2014;" horiz-adv-x="890" 
d="M70 200h750v75h-750v-75z" />
    <glyph glyph-name="quoteleft" unicode="&#x2018;" horiz-adv-x="275" 
d="M165 470l60 230h-55l-100 -230h95z" />
    <glyph glyph-name="quoteright" unicode="&#x2019;" horiz-adv-x="275" 
d="M110 700l-60 -230h55l100 230h-95z" />
    <glyph glyph-name="uni201A" unicode="&#x201a;" horiz-adv-x="275" 
d="M120 80l-60 -230h55l100 230h-95z" />
    <glyph glyph-name="uni201C" unicode="&#x201c;" horiz-adv-x="475" 
d="M165 470l60 230h-55l-100 -230h95zM365 470l60 230h-55l-100 -230h95z" />
    <glyph glyph-name="uni201D" unicode="&#x201d;" horiz-adv-x="475" 
d="M110 700l-60 -230h55l100 230h-95zM310 700l-60 -230h55l100 230h-95z" />
    <glyph glyph-name="uni2020" unicode="&#x2020;" 
d="M245 700v-160h-155v-75h155v-615h80v615h155v75h-155v160h-80z" />
    <glyph glyph-name="uni2021" unicode="&#x2021;" 
d="M245 700v-160h-155v-75h155v-345h-155v-75h155v-195h80v195h155v75h-155v345h155v75h-155v160h-80z" />
    <glyph glyph-name="ellipsis" unicode="&#x2026;" horiz-adv-x="900" 
d="M95 40c0 -14.667 5.5 -27.5 16.5 -38.5s23.833 -16.5 38.5 -16.5c15.333 0 28.333 5.5 39 16.5s16 23.833 16 38.5c0 15.333 -5.33301 28.333 -16 39s-23.667 16 -39 16c-14.667 0 -27.5 -5.33301 -38.5 -16s-16.5 -23.667 -16.5 -39zM395 40
c0 -14.667 5.5 -27.5 16.5 -38.5s23.833 -16.5 38.5 -16.5c15.333 0 28.333 5.5 39 16.5s16 23.833 16 38.5c0 15.333 -5.33301 28.333 -16 39s-23.667 16 -39 16c-14.667 0 -27.5 -5.33301 -38.5 -16s-16.5 -23.667 -16.5 -39zM695 40c0 -14.667 5.5 -27.5 16.5 -38.5
s23.833 -16.5 38.5 -16.5c15.333 0 28.333 5.5 39 16.5s16 23.833 16 38.5c0 15.333 -5.33301 28.333 -16 39s-23.667 16 -39 16c-14.667 0 -27.5 -5.33301 -38.5 -16s-16.5 -23.667 -16.5 -39z" />
    <glyph glyph-name="uni2030" unicode="&#x2030;" horiz-adv-x="1131" 
d="M780 150c0 -29.333 6.5 -56.166 19.5 -80.499s31.5 -43.666 55.5 -57.999s51.667 -21.5 83 -21.5c32 0 59.833 7.16699 83.5 21.5s42 33.666 55 57.999s19.5 51.166 19.5 80.499c0 30 -6.5 57 -19.5 81s-31.333 43.167 -55 57.5s-51.5 21.5 -83.5 21.5
c-31.333 0 -59 -7.16699 -83 -21.5s-42.5 -33.5 -55.5 -57.5s-19.5 -51 -19.5 -81zM851 150c0 25.333 7.66699 47.5 23 66.5s36.666 28.5 63.999 28.5s48.666 -9.5 63.999 -28.5s23 -41.167 23 -66.5s-7.66699 -47.5 -23 -66.5s-36.666 -28.5 -63.999 -28.5
s-48.666 9.5 -63.999 28.5s-23 41.167 -23 66.5zM35 550c0 -29.333 6.5 -56.166 19.5 -80.499s31.5 -43.666 55.5 -57.999s51.667 -21.5 83 -21.5c32 0 59.833 7.16699 83.5 21.5s42 33.666 55 57.999s19.5 51.166 19.5 80.499c0 30 -6.5 57 -19.5 81
s-31.333 43.167 -55 57.5s-51.5 21.5 -83.5 21.5c-31.333 0 -59 -7.16699 -83 -21.5s-42.5 -33.5 -55.5 -57.5s-19.5 -51 -19.5 -81zM106 550c0 25.333 7.66699 47.5 23 66.5s36.666 28.5 63.999 28.5s48.666 -9.5 63.999 -28.5s23 -41.167 23 -66.5
s-7.66699 -47.5 -23 -66.5s-36.666 -28.5 -63.999 -28.5s-48.666 9.5 -63.999 28.5s-23 41.167 -23 66.5zM400 150c0 -29.333 6.5 -56.166 19.5 -80.499s31.5 -43.666 55.5 -57.999s51.667 -21.5 83 -21.5c32 0 59.833 7.16699 83.5 21.5s42 33.666 55 57.999
s19.5 51.166 19.5 80.499c0 30 -6.5 57 -19.5 81s-31.333 43.167 -55 57.5s-51.5 21.5 -83.5 21.5c-31.333 0 -59 -7.16699 -83 -21.5s-42.5 -33.5 -55.5 -57.5s-19.5 -51 -19.5 -81zM471 150c0 25.333 7.66699 47.5 23 66.5s36.666 28.5 63.999 28.5
s48.666 -9.5 63.999 -28.5s23 -41.167 23 -66.5s-7.66699 -47.5 -23 -66.5s-36.666 -28.5 -63.999 -28.5s-48.666 9.5 -63.999 28.5s-23 41.167 -23 66.5zM563 700l-450 -700h75l450 700h-75z" />
    <glyph glyph-name="uni2031" unicode="&#x2031;" horiz-adv-x="1511" 
d="M1160 150c0 -29.333 6.5 -56.166 19.5 -80.499s31.5 -43.666 55.5 -57.999s51.667 -21.5 83 -21.5c32 0 59.833 7.16699 83.5 21.5s42 33.666 55 57.999s19.5 51.166 19.5 80.499c0 30 -6.5 57 -19.5 81s-31.333 43.167 -55 57.5s-51.5 21.5 -83.5 21.5
c-31.333 0 -59 -7.16699 -83 -21.5s-42.5 -33.5 -55.5 -57.5s-19.5 -51 -19.5 -81zM1231 150c0 25.333 7.66699 47.5 23 66.5s36.666 28.5 63.999 28.5s48.666 -9.5 63.999 -28.5s23 -41.167 23 -66.5s-7.66699 -47.5 -23 -66.5s-36.666 -28.5 -63.999 -28.5
s-48.666 9.5 -63.999 28.5s-23 41.167 -23 66.5zM780 150c0 -29.333 6.5 -56.166 19.5 -80.499s31.5 -43.666 55.5 -57.999s51.667 -21.5 83 -21.5c32 0 59.833 7.16699 83.5 21.5s42 33.666 55 57.999s19.5 51.166 19.5 80.499c0 30 -6.5 57 -19.5 81
s-31.333 43.167 -55 57.5s-51.5 21.5 -83.5 21.5c-31.333 0 -59 -7.16699 -83 -21.5s-42.5 -33.5 -55.5 -57.5s-19.5 -51 -19.5 -81zM851 150c0 25.333 7.66699 47.5 23 66.5s36.666 28.5 63.999 28.5s48.666 -9.5 63.999 -28.5s23 -41.167 23 -66.5
s-7.66699 -47.5 -23 -66.5s-36.666 -28.5 -63.999 -28.5s-48.666 9.5 -63.999 28.5s-23 41.167 -23 66.5zM35 550c0 -29.333 6.5 -56.166 19.5 -80.499s31.5 -43.666 55.5 -57.999s51.667 -21.5 83 -21.5c32 0 59.833 7.16699 83.5 21.5s42 33.666 55 57.999
s19.5 51.166 19.5 80.499c0 30 -6.5 57 -19.5 81s-31.333 43.167 -55 57.5s-51.5 21.5 -83.5 21.5c-31.333 0 -59 -7.16699 -83 -21.5s-42.5 -33.5 -55.5 -57.5s-19.5 -51 -19.5 -81zM106 550c0 25.333 7.66699 47.5 23 66.5s36.666 28.5 63.999 28.5
s48.666 -9.5 63.999 -28.5s23 -41.167 23 -66.5s-7.66699 -47.5 -23 -66.5s-36.666 -28.5 -63.999 -28.5s-48.666 9.5 -63.999 28.5s-23 41.167 -23 66.5zM400 150c0 -29.333 6.5 -56.166 19.5 -80.499s31.5 -43.666 55.5 -57.999s51.667 -21.5 83 -21.5
c32 0 59.833 7.16699 83.5 21.5s42 33.666 55 57.999s19.5 51.166 19.5 80.499c0 30 -6.5 57 -19.5 81s-31.333 43.167 -55 57.5s-51.5 21.5 -83.5 21.5c-31.333 0 -59 -7.16699 -83 -21.5s-42.5 -33.5 -55.5 -57.5s-19.5 -51 -19.5 -81zM471 150
c0 25.333 7.66699 47.5 23 66.5s36.666 28.5 63.999 28.5s48.666 -9.5 63.999 -28.5s23 -41.167 23 -66.5s-7.66699 -47.5 -23 -66.5s-36.666 -28.5 -63.999 -28.5s-48.666 9.5 -63.999 28.5s-23 41.167 -23 66.5zM563 700l-450 -700h75l450 700h-75z" />
    <glyph glyph-name="uni2039" unicode="&#x2039;" horiz-adv-x="350" 
d="M130 259l150 186l-50 45l-190 -235l190 -235l50 45z" />
    <glyph glyph-name="uni203A" unicode="&#x203a;" horiz-adv-x="350" 
d="M220 251l-150 -186l50 -45l190 235l-190 235l-50 -45z" />
    <glyph glyph-name="uni203D" unicode="&#x203d;" horiz-adv-x="557" 
d="M200 510l20.001 -340h60l7 120c36.667 2.66699 71 13.334 103 32.001s57.833 43.5 77.5 74.5s29.5 65.5 29.5 103.5c0 40 -9.5 75.833 -28.5 107.5s-44.833 56.667 -77.5 75s-70 27.5 -112 27.5c-39.333 0 -72.5 -4.83301 -99.5 -14.5s-49.833 -23.334 -68.5 -41.001
s-35.667 -38.167 -51 -61.5l65 -41c15.333 25.333 34.833 45.5 58.5 60.5s52.167 22.5 85.5 22.5c45.333 0 81.166 -11.667 107.499 -35s39.5 -56.666 39.5 -99.999c0 -30.667 -11 -59.834 -33 -87.501s-52.667 -47.167 -92 -58.5l9 156h-100zM195.001 40
c0 -14.667 5.5 -27.5 16.5 -38.5s23.833 -16.5 38.5 -16.5c15.333 0 28.333 5.5 39 16.5s16 23.833 16 38.5c0 15.333 -5.33301 28.333 -16 39s-23.667 16 -39 16c-14.667 0 -27.5 -5.33301 -38.5 -16s-16.5 -23.667 -16.5 -39z" />
    <glyph glyph-name="uni2044" unicode="&#x2044;" horiz-adv-x="705" 
d="M580 700l-520 -700h65l520 700h-65z" />
    <glyph glyph-name="uni2070" unicode="&#x2070;" horiz-adv-x="372" 
d="M81 490c0 49.333 9.33301 89.666 28 120.999s44.334 47 77.001 47s58.334 -15.667 77.001 -47s28 -71.666 28 -120.999c0 -48.667 -9.33301 -88.834 -28 -120.501s-44.334 -47.5 -77.001 -47.5s-58.334 15.833 -77.001 47.5s-28 71.834 -28 120.501zM30 490
c0 -41.333 6.66699 -78.333 20 -111s31.666 -58.334 54.999 -77.001s50.333 -28 81 -28s57.667 9.33301 81 28s41.666 44.334 54.999 77.001s20 69.667 20 111c0 42 -6.66699 79.167 -20 111.5s-31.666 57.833 -54.999 76.5s-50.333 28 -81 28s-57.667 -9.33301 -81 -28
s-41.666 -44.167 -54.999 -76.5s-20 -69.5 -20 -111.5z" />
    <glyph glyph-name="uni2074" unicode="&#x2074;" horiz-adv-x="386" 
d="M233 409h-119l119 178v-178zM284 364h66v45h-66v291h-21l-233 -336h54h149v-84h51v84z" />
    <glyph glyph-name="uni2075" unicode="&#x2075;" horiz-adv-x="356" 
d="M326 416c0 41.333 -11.835 75.334 -35.502 102.001s-53.5 40 -89.5 40c-22 0 -42.667 -5.33301 -62 -16l27 111h159v45h-198l-55 -224c21.333 15.333 39.5 25.5 54.5 30.5s32.5 7.5 52.5 7.5c27.333 0 49.833 -8.66699 67.5 -26s26.5 -40.666 26.5 -69.999
c0 -28.667 -8.16699 -51.834 -24.5 -69.501s-39.5 -26.5 -69.5 -26.5c-22.667 0 -43.667 7.16699 -63 21.5s-33.666 30.5 -42.999 48.5l-43 -30c14 -24 32.667 -44.667 56 -62s54.333 -26 93 -26c40.667 0 75.334 12.167 104.001 36.5s43 60.166 43 107.499z" />
    <glyph glyph-name="uni2076" unicode="&#x2076;" horiz-adv-x="346" 
d="M85 416c0 29.333 9 53.166 27 71.499s40.333 27.5 67 27.5c27.333 0 49.833 -9.16699 67.5 -27.5s26.5 -42.166 26.5 -71.499c0 -28.667 -8.83301 -52.167 -26.5 -70.5s-40.167 -27.5 -67.5 -27.5c-26.667 0 -49 9.16699 -67 27.5s-27 41.833 -27 70.5zM204 698
l-140.999 -195c-8 -10.667 -14.5 -23.5 -19.5 -38.5s-7.5 -31.167 -7.5 -48.5c0 -42.667 13.667 -77.334 41 -104.001s61.333 -40 102 -40s74.667 13.333 102 40s41 61.334 41 104.001c0 26 -5.66699 49.167 -17 69.5s-26.333 36.5 -45 48.5s-39.334 18 -62.001 18
c-9.33301 0 -18 -0.666992 -26 -2s-15.333 -4 -22 -8l119 156h-65z" />
    <glyph glyph-name="uni2077" unicode="&#x2077;" horiz-adv-x="354" 
d="M30 652h218l-178 -372h53l201 420h-294v-48z" />
    <glyph glyph-name="uni2078" unicode="&#x2078;" horiz-adv-x="322" 
d="M45 599c0 -22.667 5.3291 -42.167 15.9961 -58.5s25.334 -28.5 44.001 -36.5c-21.333 -8.66699 -39.166 -22.334 -53.499 -41.001s-21.5 -41.667 -21.5 -69c0 -21.333 5.66699 -41.166 17 -59.499s27 -33 47 -44s42.333 -16.5 67 -16.5c25.333 0 47.833 5.5 67.5 16.5
s35.167 25.667 46.5 44s17 38.166 17 59.499c0 27.333 -7.16699 50.333 -21.5 69s-32.166 32.334 -53.499 41.001c18.667 8 33.334 20.167 44.001 36.5s16 35.833 16 58.5c0 29.333 -11 54.5 -33 75.5s-49.667 31.5 -83 31.5c-32.667 0 -60.167 -10.5 -82.5 -31.5
s-33.5 -46.167 -33.5 -75.5zM93.9961 593c0 20 6.33301 36.333 19 49s28.667 19 48 19s35.333 -6.33301 48 -19s19 -29 19 -49s-6.66699 -36.167 -20 -48.5s-29 -18.5 -47 -18.5s-33.667 6.16699 -47 18.5s-20 28.5 -20 48.5zM78.9961 400c0 23.333 8.5 42.666 25.5 57.999
s35.833 23 56.5 23c21.333 0 40.333 -7.66699 57 -23s25 -34.666 25 -57.999c0 -26 -8.33301 -46 -25 -60s-35.667 -21 -57 -21c-20.667 0 -39.5 7 -56.5 21s-25.5 34 -25.5 60z" />
    <glyph glyph-name="uni2079" unicode="&#x2079;" horiz-adv-x="346" 
d="M279 564c0 -28.667 -8.83301 -52.334 -26.5 -71.001s-40.167 -28 -67.5 -28c-26.667 0 -49 9.33301 -67 28s-27 42.334 -27 71.001c0 29.333 9 53 27 71s40.333 27 67 27c27.333 0 49.833 -9 67.5 -27s26.5 -41.667 26.5 -71zM160 282l140.999 195
c8 11.333 14.5 24.5 19.5 39.5s7.5 30.833 7.5 47.5c0 43.333 -13.667 78.166 -41 104.499s-61.333 39.5 -102 39.5s-74.667 -13.167 -102 -39.5s-41 -61.166 -41 -104.499c0 -25.333 5.66699 -48.333 17 -69s26.333 -37 45 -49s39.334 -18 62.001 -18
c9.33301 0 18 0.666992 26 2s15.333 4 22 8l-119 -156h65z" />
    <glyph glyph-name="uni2080" unicode="&#x2080;" horiz-adv-x="372" 
d="M81 210c0 49.333 9.33301 89.666 28 120.999s44.334 47 77.001 47s58.334 -15.667 77.001 -47s28 -71.666 28 -120.999c0 -48.667 -9.33301 -88.834 -28 -120.501s-44.334 -47.5 -77.001 -47.5s-58.334 15.833 -77.001 47.5s-28 71.834 -28 120.501zM30 210
c0 -41.333 6.66699 -78.333 20 -111s31.666 -58.334 54.999 -77.001s50.333 -28 81 -28s57.667 9.33301 81 28s41.666 44.334 54.999 77.001s20 69.667 20 111c0 42 -6.66699 79.167 -20 111.5s-31.666 57.833 -54.999 76.5s-50.333 28 -81 28s-57.667 -9.33301 -81 -28
s-41.666 -44.167 -54.999 -76.5s-20 -69.5 -20 -111.5z" />
    <glyph glyph-name="uni2081" unicode="&#x2081;" horiz-adv-x="314" 
d="M90 338l93 28v-365h51v426l-144 -36v-53z" />
    <glyph glyph-name="uni2082" unicode="&#x2082;" horiz-adv-x="346" 
d="M25 2l296.002 0.00195312v48h-191l133 136c16.667 17.333 30.167 35.666 40.5 54.999s15.5 39.666 15.5 60.999c0 18.667 -4.33301 37.834 -13 57.501s-22.334 36.167 -41.001 49.5s-43.334 20 -74.001 20c-43.333 0 -77.833 -14 -103.5 -42s-38.5 -64.333 -38.5 -109h51
c0 32 8.5 57.167 25.5 75.5s38.833 27.5 65.5 27.5c25.333 0 44.333 -7.83301 57 -23.5s19 -32.834 19 -51.501c0 -16.667 -3.83301 -32.5 -11.5 -47.5s-18.5 -29.833 -32.5 -44.5z" />
    <glyph glyph-name="uni2083" unicode="&#x2083;" horiz-adv-x="312" 
d="M159 -6c37.333 0 68.5 10.6689 93.5 32.002s37.5 49.666 37.5 84.999c0 29.333 -7.66699 52.833 -23 70.5s-35.333 30.167 -60 37.5c22 9.33301 39.333 22.333 52 39s19 35.334 19 56.001c0 29.333 -10.333 55.333 -31 78s-49 34 -85 34
c-34.667 0 -63.167 -10.167 -85.5 -30.5s-33.5 -46.833 -33.5 -79.5h49c0 18.667 6.83301 34 20.5 46s30.167 18 49.5 18c21.333 0 37.333 -6.16699 48 -18.5s16 -28.5 16 -48.5s-7.33301 -37.167 -22 -51.5s-35.667 -21.5 -63 -21.5v-12v-21v-12
c27.333 0 50.333 -6.5 69 -19.5s28 -32.5 28 -58.5c0 -22.667 -7.16699 -40.834 -21.5 -54.501s-33.5 -20.5 -57.5 -20.5s-43.667 6.5 -59 19.5s-23 29.5 -23 49.5h-52c0 -32.667 12.167 -60.334 36.5 -83.001s56.833 -34 97.5 -34z" />
    <glyph glyph-name="uni2084" unicode="&#x2084;" horiz-adv-x="386" 
d="M233 129h-119l119 178v-178zM284 84h66v45h-66v291h-21l-233 -336h54h149v-84h51v84z" />
    <glyph glyph-name="uni2085" unicode="&#x2085;" horiz-adv-x="356" 
d="M326 136c0 41.333 -11.835 75.334 -35.502 102.001s-53.5 40 -89.5 40c-22 0 -42.667 -5.33301 -62 -16l27 111h159v45h-198l-55 -224c21.333 15.333 39.5 25.5 54.5 30.5s32.5 7.5 52.5 7.5c27.333 0 49.833 -8.66699 67.5 -26s26.5 -40.666 26.5 -69.999
c0 -28.667 -8.16699 -51.834 -24.5 -69.501s-39.5 -26.5 -69.5 -26.5c-22.667 0 -43.667 7.16699 -63 21.5s-33.666 30.5 -42.999 48.5l-43 -30c14 -24 32.667 -44.667 56 -62s54.333 -26 93 -26c40.667 0 75.334 12.167 104.001 36.5s43 60.166 43 107.499z" />
    <glyph glyph-name="uni2086" unicode="&#x2086;" horiz-adv-x="346" 
d="M84 136c0 29.333 9 53.166 27 71.499s40.333 27.5 67 27.5c27.333 0 49.833 -9.16699 67.5 -27.5s26.5 -42.166 26.5 -71.499c0 -28.667 -8.83301 -52.167 -26.5 -70.5s-40.167 -27.5 -67.5 -27.5c-26.667 0 -49 9.16699 -67 27.5s-27 41.833 -27 70.5zM203 418
l-140.999 -195c-8 -10.667 -14.5 -23.5 -19.5 -38.5s-7.5 -31.167 -7.5 -48.5c0 -42.667 13.667 -77.334 41 -104.001s61.333 -40 102 -40s74.667 13.333 102 40s41 61.334 41 104.001c0 26 -5.66699 49.167 -17 69.5s-26.333 36.5 -45 48.5s-39.334 18 -62.001 18
c-9.33301 0 -18 -0.666992 -26 -2s-15.333 -4 -22 -8l119 156h-65z" />
    <glyph glyph-name="uni2087" unicode="&#x2087;" horiz-adv-x="354" 
d="M30 372h218l-178 -372h53l201 420h-294v-48z" />
    <glyph glyph-name="uni2088" unicode="&#x2088;" horiz-adv-x="322" 
d="M45 319c0 -22.667 5.3291 -42.167 15.9961 -58.5s25.334 -28.5 44.001 -36.5c-21.333 -8.66699 -39.166 -22.334 -53.499 -41.001s-21.5 -41.667 -21.5 -69c0 -21.333 5.66699 -41.166 17 -59.499s27 -33 47 -44s42.333 -16.5 67 -16.5c25.333 0 47.833 5.5 67.5 16.5
s35.167 25.667 46.5 44s17 38.166 17 59.499c0 27.333 -7.16699 50.333 -21.5 69s-32.166 32.334 -53.499 41.001c18.667 8 33.334 20.167 44.001 36.5s16 35.833 16 58.5c0 29.333 -11 54.5 -33 75.5s-49.667 31.5 -83 31.5c-32.667 0 -60.167 -10.5 -82.5 -31.5
s-33.5 -46.167 -33.5 -75.5zM93.9961 313c0 20 6.33301 36.333 19 49s28.667 19 48 19s35.333 -6.33301 48 -19s19 -29 19 -49s-6.66699 -36.167 -20 -48.5s-29 -18.5 -47 -18.5s-33.667 6.16699 -47 18.5s-20 28.5 -20 48.5zM78.9961 120c0 23.333 8.5 42.666 25.5 57.999
s35.833 23 56.5 23c21.333 0 40.333 -7.66699 57 -23s25 -34.666 25 -57.999c0 -26 -8.33301 -46 -25 -60s-35.667 -21 -57 -21c-20.667 0 -39.5 7 -56.5 21s-25.5 34 -25.5 60z" />
    <glyph glyph-name="uni2089" unicode="&#x2089;" horiz-adv-x="346" 
d="M262 284c0 -28.667 -8.83301 -52.334 -26.5 -71.001s-40.167 -28 -67.5 -28c-26.667 0 -49 9.33301 -67 28s-27 42.334 -27 71.001c0 29.333 9 53 27 71s40.333 27 67 27c27.333 0 49.833 -9 67.5 -27s26.5 -41.667 26.5 -71zM143 2l140.999 195
c8 11.333 14.5 24.5 19.5 39.5s7.5 30.833 7.5 47.5c0 43.333 -13.667 78.166 -41 104.499s-61.333 39.5 -102 39.5s-74.667 -13.167 -102 -39.5s-41 -61.166 -41 -104.499c0 -26 5.66699 -49.167 17 -69.5s26.333 -36.5 45 -48.5s39.334 -18 62.001 -18
c9.33301 0 18 0.666992 26 2s15.333 4 22 8l-119 -156h65z" />
    <glyph glyph-name="Euro" unicode="&#x20ac;" horiz-adv-x="580" 
d="M15 287l58.9961 -0.000976562c8 -58.667 25.5 -110.334 52.5 -155.001s61.333 -79.5 103 -104.5s88.5 -37.5 140.5 -37.5c27.333 0 53.5 3.66699 78.5 11s48.833 17.333 71.5 30v101c-42.667 -41.333 -92.667 -62 -150 -62c-36.667 0 -69.667 9.16699 -99 27.5
s-53.5 43.833 -72.5 76.5s-31.833 70.334 -38.5 113.001h330v48h-335v7.5v7.5c0 10 0.5 19.833 1.5 29.5s1.83301 18.834 2.5 27.501h357v48h-348c14.667 53.333 39.834 95.833 75.501 127.5s77.834 47.5 126.501 47.5c57.333 0 107.333 -20.667 150 -62v101
c-22.667 13.333 -46.5 23.5 -71.5 30.5s-51.167 10.5 -78.5 10.5c-47.333 0 -90.666 -10.667 -129.999 -32s-72.666 -51 -99.999 -89s-47 -82.667 -59 -134h-66v-48h58c-2 -18 -3 -37 -3 -57v-7.5v-7.5h-55v-48z" />
    <glyph glyph-name="uni2122" unicode="&#x2122;" horiz-adv-x="665" 
d="M336 585l114 -203l114 203l26 -235h42l-42 367l-140 -253l-140 253l-42 -367h42zM32 660h90v-310h43v310h90v40h-223v-40z" />
    <glyph glyph-name="uni2150" unicode="&#x2150;" horiz-adv-x="842" 
d="M568 700l-520 -700h65l520 700h-65zM30 611l93 28v-365h51v426l-144 -36v-53zM518 372h218l-178 -372h53l201 420h-294v-48z" />
    <glyph glyph-name="uni2151" unicode="&#x2151;" horiz-adv-x="784" 
d="M568 700l-520 -700h65l520 700h-65zM30 611l93 28v-365h51v426l-144 -36v-53zM717 284c0 -28.667 -8.83301 -52.334 -26.5 -71.001s-40.167 -28 -67.5 -28c-26.667 0 -49 9.33301 -67 28s-27 42.334 -27 71.001c0 29.333 9 53 27 71s40.333 27 67 27
c27.333 0 49.833 -9 67.5 -27s26.5 -41.667 26.5 -71zM598 2l140.999 195c8 11.333 14.5 24.5 19.5 39.5s7.5 30.833 7.5 47.5c0 43.333 -13.667 78.166 -41 104.499s-61.333 39.5 -102 39.5s-74.667 -13.167 -102 -39.5s-41 -61.166 -41 -104.499
c0 -26 5.66699 -49.167 17 -69.5s26.333 -36.5 45 -48.5s39.334 -18 62.001 -18c9.33301 0 18 0.666992 26 2s15.333 4 22 8l-119 -156h65z" />
    <glyph glyph-name="uni2152" unicode="&#x2152;" horiz-adv-x="1080" 
d="M568 700l-520 -700h65l520 700h-65zM30 611l93 28v-365h51v426l-144 -36v-53zM488 338l93 28v-365h51v426l-144 -36v-53zM789 210c0 49.333 9.33301 89.666 28 120.999s44.334 47 77.001 47s58.334 -15.667 77.001 -47s28 -71.666 28 -120.999
c0 -48.667 -9.33301 -88.834 -28 -120.501s-44.334 -47.5 -77.001 -47.5s-58.334 15.833 -77.001 47.5s-28 71.834 -28 120.501zM738 210c0 -41.333 6.66699 -78.333 20 -111s31.666 -58.334 54.999 -77.001s50.333 -28 81 -28s57.667 9.33301 81 28
s41.666 44.334 54.999 77.001s20 69.667 20 111c0 42 -6.66699 79.167 -20 111.5s-31.666 57.833 -54.999 76.5s-50.333 28 -81 28s-57.667 -9.33301 -81 -28s-41.666 -44.167 -54.999 -76.5s-20 -69.5 -20 -111.5z" />
    <glyph glyph-name="onethird" unicode="&#x2153;" horiz-adv-x="755" 
d="M568 700l-520 -700h65l520 700h-65zM30 611l93 28v-365h51v426l-144 -36v-53zM597 -6c37.333 0 68.5 10.6689 93.5 32.002s37.5 49.666 37.5 84.999c0 29.333 -7.66699 52.833 -23 70.5s-35.333 30.167 -60 37.5c22 9.33301 39.333 22.333 52 39s19 35.334 19 56.001
c0 29.333 -10.333 55.333 -31 78s-49 34 -85 34c-34.667 0 -63.167 -10.167 -85.5 -30.5s-33.5 -46.833 -33.5 -79.5h49c0 18.667 6.83301 34 20.5 46s30.167 18 49.5 18c21.333 0 37.333 -6.16699 48 -18.5s16 -28.5 16 -48.5s-7.33301 -37.167 -22 -51.5
s-35.667 -21.5 -63 -21.5v-12v-21v-12c27.333 0 50.333 -6.5 69 -19.5s28 -32.5 28 -58.5c0 -22.667 -7.16699 -40.834 -21.5 -54.501s-33.5 -20.5 -57.5 -20.5s-43.667 6.5 -59 19.5s-23 29.5 -23 49.5h-52c0 -32.667 12.167 -60.334 36.5 -83.001s56.833 -34 97.5 -34z
" />
    <glyph glyph-name="twothirds" unicode="&#x2154;" horiz-adv-x="882" 
d="M695 700l-520 -700h65l520 700h-65zM30 282l296.002 0.00195312v48h-191l133 136c16.667 17.333 30.167 35.666 40.5 54.999s15.5 39.666 15.5 60.999c0 18.667 -4.33301 37.834 -13 57.501s-22.334 36.167 -41.001 49.5s-43.334 20 -74.001 20
c-43.333 0 -77.833 -14 -103.5 -42s-38.5 -64.333 -38.5 -109h51c0 32 8.5 57.167 25.5 75.5s38.833 27.5 65.5 27.5c25.333 0 44.333 -7.83301 57 -23.5s19 -32.834 19 -51.501c0 -16.667 -3.83301 -32.5 -11.5 -47.5s-18.5 -29.833 -32.5 -44.5zM724.002 -5.99805
c37.333 0 68.5 10.6689 93.5 32.002s37.5 49.666 37.5 84.999c0 29.333 -7.66699 52.833 -23 70.5s-35.333 30.167 -60 37.5c22 9.33301 39.333 22.333 52 39s19 35.334 19 56.001c0 29.333 -10.333 55.333 -31 78s-49 34 -85 34c-34.667 0 -63.167 -10.167 -85.5 -30.5
s-33.5 -46.833 -33.5 -79.5h49c0 18.667 6.83301 34 20.5 46s30.167 18 49.5 18c21.333 0 37.333 -6.16699 48 -18.5s16 -28.5 16 -48.5s-7.33301 -37.167 -22 -51.5s-35.667 -21.5 -63 -21.5v-12v-21v-12c27.333 0 50.333 -6.5 69 -19.5s28 -32.5 28 -58.5
c0 -22.667 -7.16699 -40.834 -21.5 -54.501s-33.5 -20.5 -57.5 -20.5s-43.667 6.5 -59 19.5s-23 29.5 -23 49.5h-52c0 -32.667 12.167 -60.334 36.5 -83.001s56.833 -34 97.5 -34z" />
    <glyph glyph-name="uni2155" unicode="&#x2155;" horiz-adv-x="744" 
d="M568 700l-520 -700h65l520 700h-65zM30 611l93 28v-365h51v426l-144 -36v-53zM714 136c0 41.333 -11.835 75.334 -35.502 102.001s-53.5 40 -89.5 40c-22 0 -42.667 -5.33301 -62 -16l27 111h159v45h-198l-55 -224c21.333 15.333 39.5 25.5 54.5 30.5s32.5 7.5 52.5 7.5
c27.333 0 49.833 -8.66699 67.5 -26s26.5 -40.666 26.5 -69.999c0 -28.667 -8.16699 -51.834 -24.5 -69.501s-39.5 -26.5 -69.5 -26.5c-22.667 0 -43.667 7.16699 -63 21.5s-33.666 30.5 -42.999 48.5l-43 -30c14 -24 32.667 -44.667 56 -62s54.333 -26 93 -26
c40.667 0 75.334 12.167 104.001 36.5s43 60.166 43 107.499z" />
    <glyph glyph-name="uni2156" unicode="&#x2156;" horiz-adv-x="871" 
d="M695 700l-520 -700h65l520 700h-65zM30 282l296.002 0.00195312v48h-191l133 136c16.667 17.333 30.167 35.666 40.5 54.999s15.5 39.666 15.5 60.999c0 18.667 -4.33301 37.834 -13 57.501s-22.334 36.167 -41.001 49.5s-43.334 20 -74.001 20
c-43.333 0 -77.833 -14 -103.5 -42s-38.5 -64.333 -38.5 -109h51c0 32 8.5 57.167 25.5 75.5s38.833 27.5 65.5 27.5c25.333 0 44.333 -7.83301 57 -23.5s19 -32.834 19 -51.501c0 -16.667 -3.83301 -32.5 -11.5 -47.5s-18.5 -29.833 -32.5 -44.5zM841.002 136.002
c0 41.333 -11.835 75.334 -35.502 102.001s-53.5 40 -89.5 40c-22 0 -42.667 -5.33301 -62 -16l27 111h159v45h-198l-55 -224c21.333 15.333 39.5 25.5 54.5 30.5s32.5 7.5 52.5 7.5c27.333 0 49.833 -8.66699 67.5 -26s26.5 -40.666 26.5 -69.999
c0 -28.667 -8.16699 -51.834 -24.5 -69.501s-39.5 -26.5 -69.5 -26.5c-22.667 0 -43.667 7.16699 -63 21.5s-33.666 30.5 -42.999 48.5l-43 -30c14 -24 32.667 -44.667 56 -62s54.333 -26 93 -26c40.667 0 75.334 12.167 104.001 36.5s43 60.166 43 107.499z" />
    <glyph glyph-name="uni2157" unicode="&#x2157;" horiz-adv-x="831" 
d="M655 700l-520 -700h65l520 700h-65zM164 274c37.333 0 68.5 10.6689 93.5 32.002s37.5 49.666 37.5 84.999c0 29.333 -7.66699 52.833 -23 70.5s-35.333 30.167 -60 37.5c22 9.33301 39.333 22.333 52 39s19 35.334 19 56.001c0 29.333 -10.333 55.333 -31 78
s-49 34 -85 34c-34.667 0 -63.167 -10.167 -85.5 -30.5s-33.5 -46.833 -33.5 -79.5h49c0 18.667 6.83301 34 20.5 46s30.167 18 49.5 18c21.333 0 37.333 -6.16699 48 -18.5s16 -28.5 16 -48.5s-7.33301 -37.167 -22 -51.5s-35.667 -21.5 -63 -21.5v-12v-21v-12
c27.333 0 50.333 -6.5 69 -19.5s28 -32.5 28 -58.5c0 -22.667 -7.16699 -40.834 -21.5 -54.501s-33.5 -20.5 -57.5 -20.5s-43.667 6.5 -59 19.5s-23 29.5 -23 49.5h-52c0 -32.667 12.167 -60.334 36.5 -83.001s56.833 -34 97.5 -34zM801 136.002
c0 41.333 -11.835 75.334 -35.502 102.001s-53.5 40 -89.5 40c-22 0 -42.667 -5.33301 -62 -16l27 111h159v45h-198l-55 -224c21.333 15.333 39.5 25.5 54.5 30.5s32.5 7.5 52.5 7.5c27.333 0 49.833 -8.66699 67.5 -26s26.5 -40.666 26.5 -69.999
c0 -28.667 -8.16699 -51.834 -24.5 -69.501s-39.5 -26.5 -69.5 -26.5c-22.667 0 -43.667 7.16699 -63 21.5s-33.666 30.5 -42.999 48.5l-43 -30c14 -24 32.667 -44.667 56 -62s54.333 -26 93 -26c40.667 0 75.334 12.167 104.001 36.5s43 60.166 43 107.499z" />
    <glyph glyph-name="uni2158" unicode="&#x2158;" horiz-adv-x="866" 
d="M233 409h-119l119 178v-178zM284 364h66v45h-66v291h-21l-233 -336h54h149v-84h51v84zM690 700l-520 -700h65l520 700h-65zM836 136c0 41.333 -11.835 75.334 -35.502 102.001s-53.5 40 -89.5 40c-22 0 -42.667 -5.33301 -62 -16l27 111h159v45h-198l-55 -224
c21.333 15.333 39.5 25.5 54.5 30.5s32.5 7.5 52.5 7.5c27.333 0 49.833 -8.66699 67.5 -26s26.5 -40.666 26.5 -69.999c0 -28.667 -8.16699 -51.834 -24.5 -69.501s-39.5 -26.5 -69.5 -26.5c-22.667 0 -43.667 7.16699 -63 21.5s-33.666 30.5 -42.999 48.5l-43 -30
c14 -24 32.667 -44.667 56 -62s54.333 -26 93 -26c40.667 0 75.334 12.167 104.001 36.5s43 60.166 43 107.499z" />
    <glyph glyph-name="uni2159" unicode="&#x2159;" horiz-adv-x="734" 
d="M568 700l-520 -700h65l520 700h-65zM30 611l93 28v-365h51v426l-144 -36v-53zM473 136c0 29.333 9 53.166 27 71.499s40.333 27.5 67 27.5c27.333 0 49.833 -9.16699 67.5 -27.5s26.5 -42.166 26.5 -71.499c0 -28.667 -8.83301 -52.167 -26.5 -70.5
s-40.167 -27.5 -67.5 -27.5c-26.667 0 -49 9.16699 -67 27.5s-27 41.833 -27 70.5zM592 418l-140.999 -195c-8 -10.667 -14.5 -23.5 -19.5 -38.5s-7.5 -31.167 -7.5 -48.5c0 -42.667 13.667 -77.334 41 -104.001s61.333 -40 102 -40s74.667 13.333 102 40
s41 61.334 41 104.001c0 26 -5.66699 49.167 -17 69.5s-26.333 36.5 -45 48.5s-39.334 18 -62.001 18c-9.33301 0 -18 -0.666992 -26 -2s-15.333 -4 -22 -8l119 156h-65z" />
    <glyph glyph-name="uni215A" unicode="&#x215a;" horiz-adv-x="856" 
d="M690 700l-520 -700h65l520 700h-65zM326 416c0 41.333 -11.835 75.334 -35.502 102.001s-53.5 40 -89.5 40c-22 0 -42.667 -5.33301 -62 -16l27 111h159v45h-198l-55 -224c21.333 15.333 39.5 25.5 54.5 30.5s32.5 7.5 52.5 7.5c27.333 0 49.833 -8.66699 67.5 -26
s26.5 -40.666 26.5 -69.999c0 -28.667 -8.16699 -51.834 -24.5 -69.501s-39.5 -26.5 -69.5 -26.5c-22.667 0 -43.667 7.16699 -63 21.5s-33.666 30.5 -42.999 48.5l-43 -30c14 -24 32.667 -44.667 56 -62s54.333 -26 93 -26c40.667 0 75.334 12.167 104.001 36.5
s43 60.166 43 107.499zM594.998 136.001c0 29.333 9 53.166 27 71.499s40.333 27.5 67 27.5c27.333 0 49.833 -9.16699 67.5 -27.5s26.5 -42.166 26.5 -71.499c0 -28.667 -8.83301 -52.167 -26.5 -70.5s-40.167 -27.5 -67.5 -27.5c-26.667 0 -49 9.16699 -67 27.5
s-27 41.833 -27 70.5zM713.998 418.001l-140.999 -195c-8 -10.667 -14.5 -23.5 -19.5 -38.5s-7.5 -31.167 -7.5 -48.5c0 -42.667 13.667 -77.334 41 -104.001s61.333 -40 102 -40s74.667 13.333 102 40s41 61.334 41 104.001c0 26 -5.66699 49.167 -17 69.5
s-26.333 36.5 -45 48.5s-39.334 18 -62.001 18c-9.33301 0 -18 -0.666992 -26 -2s-15.333 -4 -22 -8l119 156h-65z" />
    <glyph glyph-name="oneeighth" unicode="&#x215b;" horiz-adv-x="760" 
d="M568 700l-520 -700h65l520 700h-65zM30 611l93 28v-365h51v426l-144 -36v-53zM483 319c0 -22.667 5.3291 -42.167 15.9961 -58.5s25.334 -28.5 44.001 -36.5c-21.333 -8.66699 -39.166 -22.334 -53.499 -41.001s-21.5 -41.667 -21.5 -69
c0 -21.333 5.66699 -41.166 17 -59.499s27 -33 47 -44s42.333 -16.5 67 -16.5c25.333 0 47.833 5.5 67.5 16.5s35.167 25.667 46.5 44s17 38.166 17 59.499c0 27.333 -7.16699 50.333 -21.5 69s-32.166 32.334 -53.499 41.001c18.667 8 33.334 20.167 44.001 36.5
s16 35.833 16 58.5c0 29.333 -11 54.5 -33 75.5s-49.667 31.5 -83 31.5c-32.667 0 -60.167 -10.5 -82.5 -31.5s-33.5 -46.167 -33.5 -75.5zM531.996 313c0 20 6.33301 36.333 19 49s28.667 19 48 19s35.333 -6.33301 48 -19s19 -29 19 -49s-6.66699 -36.167 -20 -48.5
s-29 -18.5 -47 -18.5s-33.667 6.16699 -47 18.5s-20 28.5 -20 48.5zM516.996 120c0 23.333 8.5 42.666 25.5 57.999s35.833 23 56.5 23c21.333 0 40.333 -7.66699 57 -23s25 -34.666 25 -57.999c0 -26 -8.33301 -46 -25 -60s-35.667 -21 -57 -21c-20.667 0 -39.5 7 -56.5 21
s-25.5 34 -25.5 60z" />
    <glyph glyph-name="uni215C" unicode="&#x215c;" horiz-adv-x="847" 
d="M655 700l-520 -700h65l520 700h-65zM164 274c37.333 0 68.5 10.6689 93.5 32.002s37.5 49.666 37.5 84.999c0 29.333 -7.66699 52.833 -23 70.5s-35.333 30.167 -60 37.5c22 9.33301 39.333 22.333 52 39s19 35.334 19 56.001c0 29.333 -10.333 55.333 -31 78
s-49 34 -85 34c-34.667 0 -63.167 -10.167 -85.5 -30.5s-33.5 -46.833 -33.5 -79.5h49c0 18.667 6.83301 34 20.5 46s30.167 18 49.5 18c21.333 0 37.333 -6.16699 48 -18.5s16 -28.5 16 -48.5s-7.33301 -37.167 -22 -51.5s-35.667 -21.5 -63 -21.5v-12v-21v-12
c27.333 0 50.333 -6.5 69 -19.5s28 -32.5 28 -58.5c0 -22.667 -7.16699 -40.834 -21.5 -54.501s-33.5 -20.5 -57.5 -20.5s-43.667 6.5 -59 19.5s-23 29.5 -23 49.5h-52c0 -32.667 12.167 -60.334 36.5 -83.001s56.833 -34 97.5 -34zM570 319.002
c0 -22.667 5.3291 -42.167 15.9961 -58.5s25.334 -28.5 44.001 -36.5c-21.333 -8.66699 -39.166 -22.334 -53.499 -41.001s-21.5 -41.667 -21.5 -69c0 -21.333 5.66699 -41.166 17 -59.499s27 -33 47 -44s42.333 -16.5 67 -16.5c25.333 0 47.833 5.5 67.5 16.5
s35.167 25.667 46.5 44s17 38.166 17 59.499c0 27.333 -7.16699 50.333 -21.5 69s-32.166 32.334 -53.499 41.001c18.667 8 33.334 20.167 44.001 36.5s16 35.833 16 58.5c0 29.333 -11 54.5 -33 75.5s-49.667 31.5 -83 31.5c-32.667 0 -60.167 -10.5 -82.5 -31.5
s-33.5 -46.167 -33.5 -75.5zM618.996 313.002c0 20 6.33301 36.333 19 49s28.667 19 48 19s35.333 -6.33301 48 -19s19 -29 19 -49s-6.66699 -36.167 -20 -48.5s-29 -18.5 -47 -18.5s-33.667 6.16699 -47 18.5s-20 28.5 -20 48.5zM603.996 120.002
c0 23.333 8.5 42.666 25.5 57.999s35.833 23 56.5 23c21.333 0 40.333 -7.66699 57 -23s25 -34.666 25 -57.999c0 -26 -8.33301 -46 -25 -60s-35.667 -21 -57 -21c-20.667 0 -39.5 7 -56.5 21s-25.5 34 -25.5 60z" />
    <glyph glyph-name="uni215D" unicode="&#x215d;" horiz-adv-x="882" 
d="M690 700l-520 -700h65l520 700h-65zM326 416c0 41.333 -11.835 75.334 -35.502 102.001s-53.5 40 -89.5 40c-22 0 -42.667 -5.33301 -62 -16l27 111h159v45h-198l-55 -224c21.333 15.333 39.5 25.5 54.5 30.5s32.5 7.5 52.5 7.5c27.333 0 49.833 -8.66699 67.5 -26
s26.5 -40.666 26.5 -69.999c0 -28.667 -8.16699 -51.834 -24.5 -69.501s-39.5 -26.5 -69.5 -26.5c-22.667 0 -43.667 7.16699 -63 21.5s-33.666 30.5 -42.999 48.5l-43 -30c14 -24 32.667 -44.667 56 -62s54.333 -26 93 -26c40.667 0 75.334 12.167 104.001 36.5
s43 60.166 43 107.499zM604.998 319.001c0 -22.667 5.3291 -42.167 15.9961 -58.5s25.334 -28.5 44.001 -36.5c-21.333 -8.66699 -39.166 -22.334 -53.499 -41.001s-21.5 -41.667 -21.5 -69c0 -21.333 5.66699 -41.166 17 -59.499s27 -33 47 -44s42.333 -16.5 67 -16.5
c25.333 0 47.833 5.5 67.5 16.5s35.167 25.667 46.5 44s17 38.166 17 59.499c0 27.333 -7.16699 50.333 -21.5 69s-32.166 32.334 -53.499 41.001c18.667 8 33.334 20.167 44.001 36.5s16 35.833 16 58.5c0 29.333 -11 54.5 -33 75.5s-49.667 31.5 -83 31.5
c-32.667 0 -60.167 -10.5 -82.5 -31.5s-33.5 -46.167 -33.5 -75.5zM653.994 313.001c0 20 6.33301 36.333 19 49s28.667 19 48 19s35.333 -6.33301 48 -19s19 -29 19 -49s-6.66699 -36.167 -20 -48.5s-29 -18.5 -47 -18.5s-33.667 6.16699 -47 18.5s-20 28.5 -20 48.5z
M638.994 120.001c0 23.333 8.5 42.666 25.5 57.999s35.833 23 56.5 23c21.333 0 40.333 -7.66699 57 -23s25 -34.666 25 -57.999c0 -26 -8.33301 -46 -25 -60s-35.667 -21 -57 -21c-20.667 0 -39.5 7 -56.5 21s-25.5 34 -25.5 60z" />
    <glyph glyph-name="uni215E" unicode="&#x215e;" horiz-adv-x="772" 
d="M580 700l-520 -700h65l520 700h-65zM30 652h218l-178 -372h53l201 420h-294v-48zM495 319c0 -22.667 5.3291 -42.167 15.9961 -58.5s25.334 -28.5 44.001 -36.5c-21.333 -8.66699 -39.166 -22.334 -53.499 -41.001s-21.5 -41.667 -21.5 -69
c0 -21.333 5.66699 -41.166 17 -59.499s27 -33 47 -44s42.333 -16.5 67 -16.5c25.333 0 47.833 5.5 67.5 16.5s35.167 25.667 46.5 44s17 38.166 17 59.499c0 27.333 -7.16699 50.333 -21.5 69s-32.166 32.334 -53.499 41.001c18.667 8 33.334 20.167 44.001 36.5
s16 35.833 16 58.5c0 29.333 -11 54.5 -33 75.5s-49.667 31.5 -83 31.5c-32.667 0 -60.167 -10.5 -82.5 -31.5s-33.5 -46.167 -33.5 -75.5zM543.996 313c0 20 6.33301 36.333 19 49s28.667 19 48 19s35.333 -6.33301 48 -19s19 -29 19 -49s-6.66699 -36.167 -20 -48.5
s-29 -18.5 -47 -18.5s-33.667 6.16699 -47 18.5s-20 28.5 -20 48.5zM528.996 120c0 23.333 8.5 42.666 25.5 57.999s35.833 23 56.5 23c21.333 0 40.333 -7.66699 57 -23s25 -34.666 25 -57.999c0 -26 -8.33301 -46 -25 -60s-35.667 -21 -57 -21c-20.667 0 -39.5 7 -56.5 21
s-25.5 34 -25.5 60z" />
    <glyph glyph-name="uni2212" unicode="&#x2212;" horiz-adv-x="590" 
d="M70 200h450v75h-450v-75z" />
    <glyph glyph-name="uni2219" unicode="&#x2219;" horiz-adv-x="300" 
d="M95 415c0 -14.667 5.5 -27.5 16.5 -38.5s23.833 -16.5 38.5 -16.5c15.333 0 28.333 5.5 39 16.5s16 23.833 16 38.5c0 15.333 -5.33301 28.333 -16 39s-23.667 16 -39 16c-14.667 0 -27.5 -5.33301 -38.5 -16s-16.5 -23.667 -16.5 -39z" />
    <glyph glyph-name="uniFF10" unicode="&#xff10;" horiz-adv-x="580" 
d="M115 350c0 54.667 7.16699 103 21.5 145s34.5 75 60.5 99s57 36 93 36s67.167 -12 93.5 -36s46.5 -57 60.5 -99s21 -90.333 21 -145c0 -54 -7 -102.167 -21 -144.5s-34.167 -75.5 -60.5 -99.5s-57.5 -36 -93.5 -36s-67 12 -93 36s-46.167 57.167 -60.5 99.5
s-21.5 90.5 -21.5 144.5zM30 350c0 -70 11 -132 33 -186s52.5 -96.5 91.5 -127.5s84.167 -46.5 135.5 -46.5s96.5 15.5 135.5 46.5s69.5 73.5 91.5 127.5s33 116 33 186s-11 132 -33 186s-52.5 96.5 -91.5 127.5s-84.167 46.5 -135.5 46.5s-96.5 -15.5 -135.5 -46.5
s-69.5 -73.5 -91.5 -127.5s-33 -116 -33 -186z" />
    <glyph glyph-name="uniFF11" unicode="&#xff11;" horiz-adv-x="580" 
d="M115 562l155 46v-608h85v710l-240 -60v-88z" />
    <glyph glyph-name="uniFF12" unicode="&#xff12;" horiz-adv-x="580" 
d="M26 0l493.997 0.00195312v80h-320l224 227c27.333 28 49.5 58 66.5 90s25.5 66 25.5 102c0 23.333 -4 47.5 -12 72.5s-20.5 48 -37.5 69s-39 38 -66 51s-59.833 19.5 -98.5 19.5c-48 0 -89.667 -10.5 -125 -31.5s-62.666 -50.333 -81.999 -88s-29 -81.5 -29 -131.5h84
c0 53.333 14.167 95.166 42.5 125.499s64.833 45.5 109.5 45.5c28.667 0 52.334 -6.16699 71.001 -18.5s32.834 -28 42.501 -47s14.5 -38.833 14.5 -59.5c0 -28 -6.5 -54.333 -19.5 -79s-31.167 -49.334 -54.5 -74.001z" />
    <glyph glyph-name="uniFF13" unicode="&#xff13;" horiz-adv-x="580" 
d="M300 -10c42 0 79.3311 8.00098 111.998 24.001s58.5 38.667 77.5 68s28.5 63.666 28.5 102.999c0 49.333 -12.833 88.5 -38.5 117.5s-58.834 49.833 -99.501 62.5c36.667 15.333 65.5 37 86.5 65s31.5 59.333 31.5 94c0 33.333 -7.83301 64 -23.5 92s-38 50.667 -67 68
s-63.5 26 -103.5 26c-38 0 -71.833 -7.83301 -101.5 -23.5s-53 -37.167 -70 -64.5s-25.5 -59.333 -25.5 -96h81c0 30.667 11.333 56.167 34 76.5s50.334 30.5 83.001 30.5c35.333 0 61.833 -10.333 79.5 -31s26.5 -47.667 26.5 -81c0 -32.667 -12.167 -61 -36.5 -85
s-59.166 -36 -104.499 -36v-20v-35v-20c45.333 0 83.5 -10.833 114.5 -32.5s46.5 -54.167 46.5 -97.5c0 -38 -11.833 -68.333 -35.5 -91s-55.5 -34 -95.5 -34s-72.833 11 -98.5 33s-38.5 49.333 -38.5 82h-86c0 -36 9.16699 -68.833 27.5 -98.5s44.333 -53.167 78 -70.5
s72.834 -26 117.501 -26z" />
    <glyph glyph-name="uniFF14" unicode="&#xff14;" horiz-adv-x="580" 
d="M356 215h-198l198 296v-296zM441 140h110v75h-110v485h-35l-388 -560h90h248v-140h85v140z" />
    <glyph glyph-name="uniFF15" unicode="&#xff15;" horiz-adv-x="580" 
d="M532 230c0 46.667 -8.99902 87.665 -26.999 122.998s-42.833 63 -74.5 83s-67.5 30 -107.5 30c-36 0 -70.667 -8.66699 -104 -26l47 185h264v75h-330l-92 -373c24 16.667 45.167 29.5 63.5 38.5s36.666 15.333 54.999 19s38.5 5.5 60.5 5.5
c30 0 56.833 -6.66699 80.5 -20s42.334 -32 56.001 -56s20.5 -52 20.5 -84c0 -48 -13.667 -86.667 -41 -116s-66 -44 -116 -44c-26 0 -50.5 5.5 -73.5 16.5s-43.333 25.333 -61 43s-31.834 36.5 -42.501 56.5l-72 -49c15.333 -26.667 34.166 -51.167 56.499 -73.5
s49.333 -40.166 81 -53.499s68.834 -20 111.501 -20c45.333 0 86.5 9 123.5 27s66.5 44.833 88.5 80.5s33 79.834 33 132.501z" />
    <glyph glyph-name="uniFF16" unicode="&#xff16;" horiz-adv-x="580" 
d="M133 230c0 32 6.83301 60.5 20.5 85.5s32.334 44.5 56.001 58.5s50.5 21 80.5 21s56.833 -7 80.5 -21s42.334 -33.5 56.001 -58.5s20.5 -53.5 20.5 -85.5s-6.83301 -60.167 -20.5 -84.5s-32.334 -43.5 -56.001 -57.5s-50.5 -21 -80.5 -21s-56.833 7 -80.5 21
s-42.334 33.167 -56.001 57.5s-20.5 52.5 -20.5 84.5zM332 700l-236 -324.998c-13.333 -18.667 -24 -40.334 -32 -65.001s-12 -51.334 -12 -80.001c0 -48 10.5 -90 31.5 -126s49.5 -64 85.5 -84s76.333 -30 121 -30c45.333 0 85.833 10 121.5 30s64 48 85 84
s31.5 78 31.5 126c0 43.333 -9.33301 82 -28 116s-43.667 61 -75 81s-66 30 -104 30c-15.333 0 -29.5 -1 -42.5 -3s-25.167 -6.33301 -36.5 -13l197 259h-107z" />
    <glyph glyph-name="uniFF17" unicode="&#xff17;" horiz-adv-x="580" 
d="M58 620h362l-296 -620h88l336 700h-490v-80z" />
    <glyph glyph-name="uniFF18" unicode="&#xff18;" horiz-adv-x="580" 
d="M97 531c0 -38 8.83301 -70.5 26.5 -97.5s41.834 -47.167 72.501 -60.5c-36 -14 -65.667 -36.5 -89 -67.5s-35 -69.5 -35 -115.5c0 -36 9.5 -69.167 28.5 -99.5s45 -54.666 78 -72.999s70.167 -27.5 111.5 -27.5c42 0 79.333 9.16699 112 27.5s58.5 42.666 77.5 72.999
s28.5 63.5 28.5 99.5c0 46 -11.667 84.5 -35 115.5s-53 53.5 -89 67.5c31.333 13.333 55.666 33.5 72.999 60.5s26 59.5 26 97.5c0 33.333 -8.5 63.5 -25.5 90.5s-40 48.5 -69 64.5s-61.833 24 -98.5 24s-69.5 -8 -98.5 -24s-52 -37.5 -69 -64.5s-25.5 -57.167 -25.5 -90.5z
M178 521c0 33.333 10.5 60.666 31.5 81.999s47.833 32 80.5 32s59.5 -10.667 80.5 -32s31.5 -48.666 31.5 -81.999c0 -32.667 -11.167 -59.334 -33.5 -80.001s-48.5 -31 -78.5 -31s-56.167 10.333 -78.5 31s-33.5 47.334 -33.5 80.001zM153 200
c0 25.333 6.5 48.166 19.5 68.499s30 36.5 51 48.5s43.167 18 66.5 18s45.5 -6 66.5 -18s38 -28.167 51 -48.5s19.5 -43.166 19.5 -68.499c0 -28.667 -6.5 -53 -19.5 -73s-30 -35.333 -51 -46s-43.167 -16 -66.5 -16s-45.5 5.33301 -66.5 16s-38 26 -51 46
s-19.5 44.333 -19.5 73z" />
    <glyph glyph-name="uniFF19" unicode="&#xff19;" horiz-adv-x="580" 
d="M447 470c0 -32 -6.83301 -60.333 -20.5 -85s-32.334 -44.167 -56.001 -58.5s-50.5 -21.5 -80.5 -21.5s-56.833 7.16699 -80.5 21.5s-42.334 33.833 -56.001 58.5s-20.5 53 -20.5 85s6.83301 60.167 20.5 84.5s32.334 43.5 56.001 57.5s50.5 21 80.5 21
s56.833 -7 80.5 -21s42.334 -33.167 56.001 -57.5s20.5 -52.5 20.5 -84.5zM248 0l236.001 324.998c13.333 18.667 24 40.334 32 65.001s12 51.334 12 80.001c0 48 -10.5 90 -31.5 126s-49.333 64 -85 84s-76.167 30 -121.5 30c-44.667 0 -85 -10 -121 -30
s-64.5 -48 -85.5 -84s-31.5 -78 -31.5 -126c0 -42.667 9.33301 -81.167 28 -115.5s43.667 -61.5 75 -81.5s66 -30 104 -30c15.333 0 29.666 1 42.999 3s25.333 6.33301 36 13l-197 -259h107z" />
    <glyph glyph-name="Zacute" horiz-adv-x="500" 
d="M50 -200h400v1000h-400v-1000zM100 -150v900h300v-900h-300z" />
    <glyph glyph-name="uni00E5.alt" 
d="M35 230c0 -49.333 10.333 -92 31 -128s48.334 -63.667 83.001 -83s72.667 -29 114 -29c36 0 67.833 8.5 95.5 25.5s49.834 41.167 66.501 72.5v-88h75v460h-75v-88c-16.667 31.333 -38.834 55.5 -66.501 72.5s-59.5 25.5 -95.5 25.5c-41.333 0 -79.333 -9.66699 -114 -29
s-62.334 -46.833 -83.001 -82.5s-31 -78.5 -31 -128.5zM116 230c0 35.333 7.16699 65.333 21.5 90s33.5 43.334 57.5 56.001s50 19 78 19c23.333 0 46.333 -6.33301 69 -19s41.334 -31.334 56.001 -56.001s22 -54.667 22 -90s-7.33301 -65.333 -22 -90
s-33.334 -43.334 -56.001 -56.001s-45.667 -19 -69 -19c-28 0 -54 6.33301 -78 19s-43.167 31.334 -57.5 56.001s-21.5 54.667 -21.5 90zM181 630c0 -30 10.5 -54.167 31.5 -72.5s44.5 -27.5 70.5 -27.5s49.5 9.16699 70.5 27.5s31.5 42.5 31.5 72.5
s-10.5 54.167 -31.5 72.5s-44.5 27.5 -70.5 27.5s-49.5 -9.16699 -70.5 -27.5s-31.5 -42.5 -31.5 -72.5zM232 630c0 16.667 5.33301 29.667 16 39s22.334 14 35.001 14s24.334 -4.66699 35.001 -14s16 -22.333 16 -39s-5.33301 -29.667 -16 -39s-22.334 -14 -35.001 -14
s-24.334 4.66699 -35.001 14s-16 22.333 -16 39z" />
    <glyph glyph-name="uni00E3.alt" 
d="M35 230c0 -49.333 10.333 -92 31 -128s48.334 -63.667 83.001 -83s72.667 -29 114 -29c36 0 67.833 8.5 95.5 25.5s49.834 41.167 66.501 72.5v-88h75v460h-75v-88c-16.667 31.333 -38.834 55.5 -66.501 72.5s-59.5 25.5 -95.5 25.5c-41.333 0 -79.333 -9.66699 -114 -29
s-62.334 -46.833 -83.001 -82.5s-31 -78.5 -31 -128.5zM116 230c0 35.333 7.16699 65.333 21.5 90s33.5 43.334 57.5 56.001s50 19 78 19c23.333 0 46.333 -6.33301 69 -19s41.334 -31.334 56.001 -56.001s22 -54.667 22 -90s-7.33301 -65.333 -22 -90
s-33.334 -43.334 -56.001 -56.001s-45.667 -19 -69 -19c-28 0 -54 6.33301 -78 19s-43.167 31.334 -57.5 56.001s-21.5 54.667 -21.5 90zM118 567l53.0029 -37c0 5.33301 1.33301 12 4 20s7.66699 15.167 15 21.5s17.666 9.5 30.999 9.5c15.333 0 28.5 -3.83301 39.5 -11.5
s22.833 -15.5 35.5 -23.5s28 -12 46 -12c25.333 0 47.333 7.5 66 22.5s32 31.833 40 50.5l-46 43c-20 -32 -38.667 -48 -56 -48c-13.333 0 -24.333 2.33301 -33 7s-16.834 10.167 -24.501 16.5s-16.667 11.833 -27 16.5s-23.5 7 -39.5 7
c-22.667 0 -44.334 -7.5 -65.001 -22.5s-33.667 -34.833 -39 -59.5z" />
    <glyph glyph-name="uni0103.alt" 
d="M35 230c0 -49.333 10.333 -92 31 -128s48.334 -63.667 83.001 -83s72.667 -29 114 -29c36 0 67.833 8.5 95.5 25.5s49.834 41.167 66.501 72.5v-88h75v460h-75v-88c-16.667 31.333 -38.834 55.5 -66.501 72.5s-59.5 25.5 -95.5 25.5c-41.333 0 -79.333 -9.66699 -114 -29
s-62.334 -46.833 -83.001 -82.5s-31 -78.5 -31 -128.5zM116 230c0 35.333 7.16699 65.333 21.5 90s33.5 43.334 57.5 56.001s50 19 78 19c23.333 0 46.333 -6.33301 69 -19s41.334 -31.334 56.001 -56.001s22 -54.667 22 -90s-7.33301 -65.333 -22 -90
s-33.334 -43.334 -56.001 -56.001s-45.667 -19 -69 -19c-28 0 -54 6.33301 -78 19s-43.167 31.334 -57.5 56.001s-21.5 54.667 -21.5 90zM105 670c0 -22.667 5.83398 -44.834 17.501 -66.501s29.334 -39.334 53.001 -53.001s52.834 -20.5 87.501 -20.5
c35.333 0 64.666 6.83301 87.999 20.5s40.833 31.334 52.5 53.001s17.5 43.834 17.5 66.501h-71c0 -8.66699 -2.33301 -18.834 -7 -30.501s-13.334 -22 -26.001 -31s-30.667 -13.5 -54 -13.5s-41.333 4.5 -54 13.5s-21.334 19.333 -26.001 31s-7 21.834 -7 30.501h-71z" />
    <glyph glyph-name="uni00E1.alt" 
d="M35 230c0 -49.333 10.333 -92 31 -128s48.334 -63.667 83.001 -83s72.667 -29 114 -29c36 0 67.833 8.5 95.5 25.5s49.834 41.167 66.501 72.5v-88h75v460h-75v-88c-16.667 31.333 -38.834 55.5 -66.501 72.5s-59.5 25.5 -95.5 25.5c-41.333 0 -79.333 -9.66699 -114 -29
s-62.334 -46.833 -83.001 -82.5s-31 -78.5 -31 -128.5zM116 230c0 35.333 7.16699 65.333 21.5 90s33.5 43.334 57.5 56.001s50 19 78 19c23.333 0 46.333 -6.33301 69 -19s41.334 -31.334 56.001 -56.001s22 -54.667 22 -90s-7.33301 -65.333 -22 -90
s-33.334 -43.334 -56.001 -56.001s-45.667 -19 -69 -19c-28 0 -54 6.33301 -78 19s-43.167 31.334 -57.5 56.001s-21.5 54.667 -21.5 90zM393 680l-75 40l-150 -160l45 -30z" />
    <glyph glyph-name="uni00E0.alt" 
d="M35 230c0 -49.333 10.333 -92 31 -128s48.334 -63.667 83.001 -83s72.667 -29 114 -29c36 0 67.833 8.5 95.5 25.5s49.834 41.167 66.501 72.5v-88h75v460h-75v-88c-16.667 31.333 -38.834 55.5 -66.501 72.5s-59.5 25.5 -95.5 25.5c-41.333 0 -79.333 -9.66699 -114 -29
s-62.334 -46.833 -83.001 -82.5s-31 -78.5 -31 -128.5zM116 230c0 35.333 7.16699 65.333 21.5 90s33.5 43.334 57.5 56.001s50 19 78 19c23.333 0 46.333 -6.33301 69 -19s41.334 -31.334 56.001 -56.001s22 -54.667 22 -90s-7.33301 -65.333 -22 -90
s-33.334 -43.334 -56.001 -56.001s-45.667 -19 -69 -19c-28 0 -54 6.33301 -78 19s-43.167 31.334 -57.5 56.001s-21.5 54.667 -21.5 90zM113 680l180 -150l45 30l-150 160z" />
    <glyph glyph-name="uni0101.alt" 
d="M35 230c0 -49.333 10.333 -92 31 -128s48.334 -63.667 83.001 -83s72.667 -29 114 -29c36 0 67.833 8.5 95.5 25.5s49.834 41.167 66.501 72.5v-88h75v460h-75v-88c-16.667 31.333 -38.834 55.5 -66.501 72.5s-59.5 25.5 -95.5 25.5c-41.333 0 -79.333 -9.66699 -114 -29
s-62.334 -46.833 -83.001 -82.5s-31 -78.5 -31 -128.5zM116 230c0 35.333 7.16699 65.333 21.5 90s33.5 43.334 57.5 56.001s50 19 78 19c23.333 0 46.333 -6.33301 69 -19s41.334 -31.334 56.001 -56.001s22 -54.667 22 -90s-7.33301 -65.333 -22 -90
s-33.334 -43.334 -56.001 -56.001s-45.667 -19 -69 -19c-28 0 -54 6.33301 -78 19s-43.167 31.334 -57.5 56.001s-21.5 54.667 -21.5 90zM98 530h350v75h-350v-75z" />
    </font>
</defs>
</svg>
